# https://github.com/mikedh/trimesh

o c_chest_laven
v 0.01702952 0.04535565 0.04540700
v 0.01602952 0.04885565 0.04440700
v 0.01602952 0.04535565 0.04440700
v 0.01702952 0.04885565 0.04540700
v 0.01502952 0.04885565 0.04540700
v 0.01502952 0.04535565 0.04540700
v -0.01547046 -0.01385675 0.05533718
v -0.01547046 -0.01050000 0.03540700
v -0.01547046 -0.01385675 0.03540700
v -0.01547046 -0.01050000 0.05533718
v 0.02452954 -0.01385675 0.05533718
v 0.02452954 -0.01050000 0.05533718
v 0.02452954 -0.01050001 0.03540700
v 0.02452954 -0.01385676 0.03540700
v 0.02452952 -0.01050000 0.02790869
v -0.01547048 -0.01050000 0.02790868
v -0.01547046 0.01043017 0.03547682
v 0.02452951 0.01043018 0.02790869
v -0.01547048 0.01043018 0.02790868
v 0.02452954 0.01043018 0.03547682
v 0.02452951 -0.01050000 0.05740869
v -0.01547049 -0.01050000 0.05740868
v 0.02502952 0.00993018 0.02790869
v 0.02452951 0.01043018 0.05740869
v 0.02502951 0.00993018 0.05740869
v 0.02452954 0.01043018 0.05540700
v 0.02502951 -0.01000000 0.05740869
v 0.02452951 -0.01000000 0.05790869
v -0.01547049 -0.01000000 0.05790868
v -0.01547048 0.00993018 0.02740868
v -0.01597048 -0.01000000 0.02790868
v -0.01597048 0.00993018 0.02790868
v -0.01547048 -0.01000000 0.02740868
v -0.01597049 -0.01000000 0.05740868
v 0.02452952 -0.01000000 0.02740869
v 0.02452951 0.00993018 0.05790869
v 0.02502952 -0.01000000 0.02790869
v -0.01547049 0.00993018 0.05790868
v -0.01597049 0.00993018 0.05740868
v 0.01291324 -0.00539754 0.05790869
v 0.01063197 -0.00311627 0.05790869
v 0.00979697 0.00000000 0.05790869
v 0.01602951 -0.00623254 0.05790869
v 0.01914578 -0.00539754 0.05790869
v 0.02142705 -0.00311627 0.05790869
v 0.02226205 0.00000000 0.05790869
v 0.01291324 0.00539754 0.05790869
v 0.01063197 0.00311627 0.05790869
v 0.01602951 0.00623255 0.05790869
v 0.01914578 0.00539754 0.05790869
v 0.02142705 0.00311627 0.05790869
v 0.02452952 0.00993018 0.02740869
v -0.01547049 0.01043018 0.05740868
v -0.01547046 0.01043017 0.05540700
v 0.02452954 0.01385565 0.05540700
v -0.01547046 0.01385564 0.05540700
v 0.02452954 0.01385565 0.03547682
v -0.01547046 0.01385564 0.03547682
v 0.02502954 0.01435565 0.03547682
v 0.02502954 0.01435565 0.05540700
v -0.01547047 0.04435564 0.03547682
v 0.02452953 0.04385565 0.03497682
v -0.01547047 0.04385564 0.03497682
v 0.02452953 0.04435565 0.03547682
v 0.02452953 0.01435565 0.03497682
v -0.01597047 0.04385564 0.03547682
v -0.01597046 0.01435564 0.03547682
v -0.01547046 0.01435564 0.03497682
v 0.02502953 0.04385565 0.03547682
v -0.01547047 0.04435564 0.05540700
v -0.01597047 0.04385564 0.05540700
v -0.01547047 0.04385564 0.05590700
v 0.02452953 0.04385565 0.05590700
v 0.02502953 0.04385565 0.05540700
v 0.02452953 0.04435565 0.05540700
v -0.01597046 0.01435564 0.05540700
v 0.02452954 0.01435565 0.05590700
v -0.01547046 0.01435564 0.05590700
v 0.01452838 0.00260004 0.06240869
v 0.01525247 0.00289997 0.05890869
v 0.01452838 0.00260004 0.05890869
v 0.01525247 0.00289997 0.06240869
v 0.01063197 -0.00311627 0.05890868
v 0.01063197 0.00311627 0.05890868
v 0.00979696 0.00000000 0.05890868
v 0.01291324 -0.00539754 0.05890869
v 0.01291324 0.00539754 0.05890869
v 0.01302724 0.00000000 0.05890869
v 0.01312954 -0.00077704 0.05890869
v 0.01342947 -0.00150113 0.05890869
v 0.01602951 -0.00623254 0.05890869
v 0.01390659 -0.00212292 0.05890869
v 0.01452838 -0.00260004 0.05890869
v 0.01525247 -0.00289997 0.05890869
v 0.01602951 -0.00300227 0.05890869
v 0.01914578 -0.00539754 0.05890869
v 0.01680655 -0.00289997 0.05890869
v 0.01753064 -0.00260004 0.05890869
v 0.01815243 -0.00212292 0.05890869
v 0.01862955 -0.00150113 0.05890869
v 0.01892948 -0.00077704 0.05890869
v 0.01903178 0.00000000 0.05890869
v 0.01342947 0.00150113 0.05890869
v 0.01602951 0.00623255 0.05890869
v 0.01312954 0.00077704 0.05890869
v 0.01390659 0.00212292 0.05890869
v 0.01602951 0.00300227 0.05890869
v 0.01680655 0.00289997 0.05890869
v 0.01914578 0.00539754 0.05890869
v 0.01753064 0.00260004 0.05890869
v 0.01815243 0.00212292 0.05890869
v 0.01862955 0.00150113 0.05890869
v 0.01892948 0.00077704 0.05890869
v 0.02142705 -0.00311627 0.05890869
v 0.02142705 0.00311627 0.05890869
v 0.02226205 0.00000000 0.05890869
v 0.01302724 0.00000000 0.06240869
v 0.01312954 -0.00077704 0.06240869
v 0.01390659 0.00212292 0.06240869
v 0.01342947 0.00150113 0.06240869
v 0.01312954 0.00077704 0.06240869
v 0.01602951 0.00300227 0.06240869
v 0.01680655 0.00289997 0.06240869
v 0.01753064 0.00260004 0.06240869
v 0.01815243 0.00212292 0.06240869
v 0.01342947 -0.00150113 0.06240869
v 0.01390659 -0.00212292 0.06240869
v 0.01452838 -0.00260004 0.06240869
v 0.01525246 -0.00289997 0.06240869
v 0.01502951 -0.00000000 0.06240869
v 0.01602951 -0.00100000 0.06240869
v 0.01602951 -0.00300227 0.06240869
v 0.01680655 -0.00289997 0.06240869
v 0.01702951 -0.00000000 0.06240869
v 0.01753064 -0.00260004 0.06240869
v 0.01602951 0.00100000 0.06240869
v 0.01815243 -0.00212292 0.06240869
v 0.01862955 -0.00150113 0.06240869
v 0.01862955 0.00150113 0.06240869
v 0.01892947 -0.00077704 0.06240869
v 0.01892947 0.00077704 0.06240869
v 0.01903177 0.00000000 0.06240869
v 0.01602951 -0.00100000 0.05890869
v 0.01602951 0.00100000 0.05890869
v 0.01502951 0.00000000 0.05890869
v 0.01702951 0.00000000 0.05890869
v 0.01291325 0.04435565 0.04000946
v 0.01602952 0.04435565 0.03917446
v 0.01063198 0.04435565 0.04229073
v 0.00979698 0.04435565 0.04540700
v 0.01063198 0.04435565 0.04852327
v 0.01291325 0.04435565 0.05080454
v 0.01602952 0.04435565 0.05163955
v 0.02226207 0.04435565 0.04540700
v 0.02142707 0.04435565 0.04229073
v 0.01914580 0.04435565 0.04000946
v 0.02142707 0.04435565 0.04852327
v 0.01914580 0.04435565 0.05080454
v 0.02142707 0.04535565 0.04229073
v 0.02226207 0.04535565 0.04540700
v 0.01914580 0.04535565 0.04000946
v 0.01602952 0.04535565 0.03917446
v 0.01452839 0.04885565 0.04280696
v 0.01390660 0.04535565 0.04328408
v 0.01390660 0.04885565 0.04328408
v 0.01452839 0.04535565 0.04280696
v 0.01525248 0.04885565 0.04250703
v 0.01525248 0.04535565 0.04250703
v 0.01291325 0.04535565 0.04000946
v 0.01063198 0.04535564 0.04229073
v 0.01602952 0.04535565 0.04240474
v 0.00979698 0.04535564 0.04540700
v 0.01342949 0.04535565 0.04390587
v 0.01312956 0.04535565 0.04462996
v 0.01302726 0.04535565 0.04540700
v 0.01063198 0.04535564 0.04852327
v 0.01312956 0.04535565 0.04618404
v 0.01342948 0.04535565 0.04690813
v 0.01390660 0.04535565 0.04752992
v 0.01452839 0.04535565 0.04800704
v 0.01525248 0.04535565 0.04830697
v 0.01602952 0.04535565 0.04840927
v 0.01753066 0.04535565 0.04280696
v 0.01680657 0.04535565 0.04250703
v 0.01815245 0.04535565 0.04328408
v 0.01862956 0.04535565 0.04390587
v 0.01892949 0.04535565 0.04462996
v 0.01903179 0.04535565 0.04540700
v 0.01892949 0.04535565 0.04618404
v 0.02142707 0.04535565 0.04852327
v 0.01862956 0.04535565 0.04690813
v 0.01815245 0.04535565 0.04752992
v 0.01753066 0.04535565 0.04800704
v 0.01680657 0.04535565 0.04830697
v 0.01291325 0.04535565 0.05080454
v 0.01914580 0.04535565 0.05080454
v 0.01602952 0.04535565 0.05163955
v 0.01302726 0.04885565 0.04540700
v 0.01312956 0.04885565 0.04618404
v 0.01342948 0.04885565 0.04390587
v 0.01312956 0.04885565 0.04462996
v 0.01602952 0.04885565 0.04240474
v 0.01680657 0.04885565 0.04250703
v 0.01753066 0.04885565 0.04280696
v 0.01815245 0.04885565 0.04328408
v 0.01862956 0.04885565 0.04390587
v 0.01602952 0.04885565 0.04640700
v 0.01342948 0.04885565 0.04690813
v 0.01892949 0.04885565 0.04462996
v 0.01903179 0.04885565 0.04540700
v 0.01892949 0.04885565 0.04618404
v 0.01862956 0.04885565 0.04690813
v 0.01390660 0.04885565 0.04752992
v 0.01815245 0.04885565 0.04752992
v 0.01452839 0.04885565 0.04800704
v 0.01753066 0.04885565 0.04800704
v 0.01525248 0.04885565 0.04830697
v 0.01680657 0.04885565 0.04830697
v 0.01602952 0.04885565 0.04840927
v 0.01602952 0.04535565 0.04640700
v 0.01525248 -0.04885676 0.04830697
v 0.01452839 -0.04535676 0.04800704
v 0.01452839 -0.04885676 0.04800704
v 0.01525248 -0.04535676 0.04830697
v 0.01914580 -0.04535676 0.04000946
v 0.01291325 -0.04535676 0.04000946
v 0.01602952 -0.04535676 0.03917446
v 0.02142707 -0.04535676 0.04229073
v 0.01063198 -0.04535675 0.04229073
v 0.01602952 -0.04535676 0.04240474
v 0.01680657 -0.04535676 0.04250704
v 0.01753066 -0.04535676 0.04280696
v 0.02226207 -0.04535676 0.04540700
v 0.01815245 -0.04535676 0.04328408
v 0.01862956 -0.04535676 0.04390587
v 0.01892949 -0.04535676 0.04462996
v 0.01903179 -0.04535676 0.04540700
v 0.02142707 -0.04535676 0.04852327
v 0.01892949 -0.04535676 0.04618405
v 0.01862956 -0.04535676 0.04690813
v 0.01815245 -0.04535676 0.04752992
v 0.01753066 -0.04535676 0.04800704
v 0.01680657 -0.04535676 0.04830697
v 0.01602952 -0.04535676 0.04840927
v 0.01452839 -0.04535676 0.04280696
v 0.00979698 -0.04535675 0.04540700
v 0.01525248 -0.04535676 0.04250704
v 0.01390660 -0.04535676 0.04328408
v 0.01342948 -0.04535676 0.04390587
v 0.01312956 -0.04535676 0.04462996
v 0.01302726 -0.04535676 0.04540700
v 0.01312956 -0.04535676 0.04618405
v 0.01063198 -0.04535675 0.04852327
v 0.01342949 -0.04535676 0.04690814
v 0.01390660 -0.04535676 0.04752992
v 0.01914580 -0.04535676 0.05080454
v 0.01291325 -0.04535676 0.05080454
v 0.01602952 -0.04535676 0.05163955
v 0.01312956 -0.04885676 0.04462996
v 0.01302726 -0.04885676 0.04540700
v 0.01342948 -0.04885676 0.04690814
v 0.01390660 -0.04885676 0.04752992
v 0.01312956 -0.04885676 0.04618405
v 0.01291325 -0.04435676 0.05080454
v 0.01602952 -0.04435676 0.05163955
v 0.01063198 -0.04435676 0.04852327
v 0.00979698 -0.04435676 0.04540700
v 0.01063198 -0.04435676 0.04229073
v 0.01291325 -0.04435676 0.04000946
v 0.01602952 -0.04435676 0.03917446
v 0.01914580 -0.04435676 0.04000946
v 0.02142707 -0.04435676 0.04229073
v 0.02226207 -0.04435676 0.04540700
v 0.01602952 -0.04885676 0.04840927
v 0.01680657 -0.04885676 0.04830697
v 0.01753066 -0.04885676 0.04800704
v 0.01815245 -0.04885676 0.04752992
v 0.01680657 -0.04885676 0.04250704
v 0.01525248 -0.04885676 0.04250704
v 0.01602952 -0.04885676 0.04240474
v 0.01753066 -0.04885676 0.04280696
v 0.01452839 -0.04885676 0.04280696
v 0.01815245 -0.04885676 0.04328408
v 0.01390660 -0.04885676 0.04328408
v 0.01862956 -0.04885676 0.04390587
v 0.01342948 -0.04885676 0.04390587
v 0.01892949 -0.04885676 0.04462996
v 0.01602952 -0.04885676 0.04440700
v 0.01702952 -0.04885676 0.04540700
v 0.01903179 -0.04885676 0.04540700
v 0.01602952 -0.04885676 0.04640700
v 0.01892949 -0.04885676 0.04618405
v 0.01862956 -0.04885676 0.04690813
v 0.01502952 -0.04885676 0.04540700
v 0.01702952 -0.04535676 0.04540700
v 0.01502952 -0.04535676 0.04540700
v 0.01602952 -0.04535676 0.04440700
v 0.01602952 -0.04535676 0.04640700
v 0.02142707 -0.04435676 0.04852327
v 0.01914580 -0.04435676 0.05080454
v 0.02502953 -0.04385676 0.05533718
v 0.02452953 -0.01435676 0.05583718
v 0.02452953 -0.04385676 0.05583718
v 0.02502954 -0.01435676 0.05533718
v -0.01597047 -0.04385675 0.03540700
v -0.01547047 -0.04385675 0.03490700
v -0.01547047 -0.04435675 0.03540700
v -0.01547046 -0.01435675 0.05583718
v -0.01597046 -0.01435675 0.05533718
v 0.02452953 -0.04435676 0.03540700
v 0.02452953 -0.04385676 0.03490700
v 0.02502953 -0.04385676 0.03540700
v -0.01597047 -0.04385675 0.05533718
v -0.01597046 -0.01435675 0.03540700
v 0.02452954 -0.01435676 0.03490700
v -0.01547046 -0.01435675 0.03490700
v 0.02452953 -0.04435676 0.05533718
v 0.02502954 -0.01435676 0.03540700
v -0.01547047 -0.04435675 0.05533718
v -0.01547047 -0.04385675 0.05583718
v -0.02413519 0.04176509 0.01161054
v -0.04813519 0.04226509 0.07061054
v -0.02413519 0.04176509 0.07021054
v -0.04813519 0.04226509 0.01121054
v -0.04813519 -0.04233491 0.01121054
v -0.04813519 -0.04233491 0.07061054
v -0.02413519 -0.04183491 0.01161054
v -0.02413519 -0.04183491 0.07021054
v 0.01505600 0.04435565 -0.00277193
v 0.02036785 0.04385565 0.02123779
v 0.01556396 0.04385565 -0.00278164
v 0.01985601 0.04435565 0.02122808
v 0.00400000 0.00000001 0.00172807
v 0.00282843 0.00282844 -0.00000000
v 0.00400000 0.00000001 -0.00000001
v 0.00282843 0.00282844 0.00172807
v 0.01995598 -0.04385678 0.02172807
v -0.01992422 -0.04435677 0.02122807
v 0.01985598 -0.04435678 0.02122807
v -0.02002422 -0.04385677 0.02172807
v -0.02043603 0.04385566 0.02123779
v -0.01512419 0.04435566 -0.00277192
v -0.01563215 0.04385566 -0.00278163
v -0.01992419 0.04435566 0.02122808
v -0.01512422 -0.04435677 -0.00277193
v -0.02043412 -0.04385677 0.02122808
v -0.01563218 -0.04385677 -0.00278164
v 0.02036782 -0.04385678 0.02123778
v 0.01505598 -0.04435678 -0.00277193
v 0.01556394 -0.04385677 -0.00278164
v -0.01503409 0.04385566 -0.00327192
v 0.01496590 0.04385565 -0.00327193
v 0.01496588 -0.04385677 -0.00327193
v -0.01503412 -0.04385677 -0.00327193
v -0.00282843 0.00282844 0.00172807
v -0.00282843 -0.00282842 0.00172807
v -0.00400000 0.00000001 0.00172807
v 0.00000000 0.00400001 0.00172807
v 0.00000000 -0.00399999 0.00172807
v 0.00282843 -0.00282842 0.00172807
v 0.00282843 -0.00282842 -0.00000000
v 0.00000000 -0.00399999 -0.00000000
v -0.00282843 -0.00282842 0.00000000
v -0.00400000 0.00000001 0.00000000
v -0.00282843 0.00282844 0.00000000
v 0.00000000 0.00400001 0.00000000
v 0.01995600 0.04385565 0.02172808
v 0.00900000 0.00000001 -0.00000000
v 0.00636396 -0.00636395 -0.00327193
v 0.00636396 -0.00636395 -0.00000000
v 0.00900000 0.00000001 -0.00327193
v -0.00000000 -0.00899999 -0.00327193
v 0.00000000 -0.00899999 -0.00000000
v -0.00636396 -0.00636395 -0.00327193
v -0.00636396 -0.00636395 0.00000000
v -0.00900000 0.00000001 0.00000000
v -0.00900000 0.00000001 -0.00327193
v -0.00636396 0.00636397 0.00000000
v -0.00636396 0.00636397 -0.00327193
v 0.00000000 0.00900001 0.00000000
v -0.00000000 0.00900001 -0.00327193
v 0.00636396 0.00636397 -0.00000000
v 0.00636396 0.00636397 -0.00327193
v -0.02002419 0.04385566 0.02172808
f 1 2 3
f 2 1 4
f 3 5 6
f 5 3 2
f 7 8 9
f 8 7 10
f 11 10 7
f 10 11 12
f 13 11 14
f 11 13 12
f 8 14 9
f 14 8 13
f 15 8 16
f 8 15 13
f 17 18 19
f 18 17 20
f 21 10 12
f 10 21 22
f 18 20 23
f 23 24 25
f 24 23 20
f 24 20 26
f 27 28 21
f 22 28 29
f 28 22 21
f 30 31 32
f 31 30 33
f 34 22 29
f 30 32 19
f 33 15 16
f 15 33 35
f 25 24 36
f 35 37 15
f 33 16 31
f 15 12 13
f 12 15 21
f 21 15 27
f 27 15 37
f 38 34 29
f 34 38 39
f 28 25 36
f 25 28 27
f 29 40 38
f 40 29 28
f 38 40 41
f 38 41 42
f 40 28 43
f 43 28 44
f 44 28 45
f 45 28 46
f 46 28 36
f 38 47 36
f 47 38 48
f 48 38 42
f 36 47 49
f 36 49 50
f 36 50 51
f 36 51 46
f 16 34 31
f 34 16 8
f 34 8 10
f 34 10 22
f 35 23 37
f 23 35 52
f 36 53 38
f 53 36 24
f 23 52 18
f 53 39 38
f 39 19 32
f 19 39 17
f 17 39 54
f 54 39 53
f 19 52 30
f 52 19 18
f 53 26 54
f 26 53 24
f 54 55 56
f 55 54 26
f 57 17 58
f 17 57 20
f 57 26 20
f 26 57 55
f 54 58 17
f 58 54 56
f 59 55 57
f 55 59 60
f 61 62 63
f 62 61 64
f 59 57 65
f 61 63 66
f 63 67 66
f 67 63 68
f 65 58 68
f 58 65 57
f 62 68 63
f 68 62 65
f 69 65 62
f 65 69 59
f 70 71 72
f 67 68 58
f 73 74 75
f 72 75 70
f 75 72 73
f 71 67 76
f 67 71 66
f 77 56 55
f 56 77 78
f 79 80 81
f 80 79 82
f 83 84 85
f 84 83 86
f 84 86 87
f 87 86 88
f 88 86 89
f 89 86 90
f 90 86 91
f 90 91 92
f 92 91 93
f 93 91 94
f 94 91 95
f 95 91 96
f 95 96 97
f 97 96 98
f 98 96 99
f 99 96 100
f 100 96 101
f 101 96 102
f 87 103 104
f 103 87 105
f 105 87 88
f 104 103 106
f 104 106 81
f 104 81 80
f 104 80 107
f 104 107 108
f 104 108 109
f 109 108 110
f 109 110 111
f 109 111 112
f 109 112 113
f 109 113 102
f 109 102 96
f 109 96 114
f 109 114 115
f 115 114 116
f 117 89 118
f 89 117 88
f 119 103 120
f 103 119 106
f 120 105 121
f 105 120 103
f 121 88 117
f 88 121 105
f 87 49 47
f 49 87 104
f 87 48 84
f 48 87 47
f 84 42 85
f 42 84 48
f 85 41 83
f 41 85 42
f 86 41 40
f 41 86 83
f 91 40 43
f 40 91 86
f 44 91 43
f 91 44 96
f 44 114 96
f 114 44 45
f 45 116 114
f 116 45 46
f 82 107 80
f 107 82 122
f 107 123 108
f 123 107 122
f 108 124 110
f 124 108 123
f 110 125 111
f 125 110 124
f 118 121 117
f 121 118 126
f 121 126 120
f 120 126 127
f 120 127 119
f 119 127 128
f 119 128 79
f 79 128 129
f 79 129 130
f 130 129 131
f 131 129 132
f 131 132 133
f 131 133 134
f 134 133 135
f 130 82 79
f 82 130 136
f 82 136 122
f 122 136 134
f 122 134 123
f 123 134 124
f 124 134 135
f 124 135 137
f 124 137 125
f 125 137 138
f 125 138 139
f 139 138 140
f 139 140 141
f 141 140 142
f 143 144 145
f 144 143 146
f 145 131 143
f 131 145 130
f 131 146 143
f 146 131 134
f 134 144 146
f 144 134 136
f 144 130 145
f 130 144 136
f 60 77 55
f 78 76 56
f 71 61 66
f 61 71 70
f 61 147 64
f 147 61 70
f 64 147 148
f 147 70 149
f 149 70 150
f 150 70 151
f 151 70 152
f 152 70 153
f 64 154 75
f 154 64 155
f 155 64 156
f 156 64 148
f 75 154 157
f 75 157 158
f 75 158 153
f 75 153 70
f 78 71 76
f 71 78 72
f 112 125 139
f 125 112 111
f 113 139 141
f 139 113 112
f 102 141 142
f 141 102 113
f 101 142 140
f 142 101 102
f 100 140 138
f 140 100 101
f 99 138 137
f 138 99 100
f 99 135 98
f 135 99 137
f 98 133 97
f 133 98 135
f 97 132 95
f 132 97 133
f 132 94 95
f 94 132 129
f 129 93 94
f 93 129 128
f 128 92 93
f 92 128 127
f 126 92 127
f 92 126 90
f 118 90 126
f 90 118 89
f 46 115 116
f 115 46 51
f 50 115 51
f 115 50 109
f 49 109 50
f 109 49 104
f 119 81 106
f 81 119 79
f 159 154 155
f 154 159 160
f 159 156 161
f 156 159 155
f 161 148 162
f 148 161 156
f 163 164 165
f 164 163 166
f 167 166 163
f 166 167 168
f 169 161 162
f 161 169 170
f 161 170 159
f 159 170 171
f 171 170 168
f 168 170 166
f 166 170 172
f 166 172 164
f 164 172 173
f 173 172 174
f 174 172 175
f 175 172 176
f 175 176 177
f 177 176 178
f 178 176 179
f 179 176 180
f 180 176 181
f 181 176 182
f 159 183 160
f 183 159 184
f 184 159 171
f 160 183 185
f 160 185 186
f 160 186 187
f 160 187 188
f 160 188 189
f 160 189 190
f 190 189 191
f 190 191 192
f 190 192 193
f 190 193 194
f 190 194 182
f 190 182 176
f 190 176 195
f 190 195 196
f 196 195 197
f 177 198 175
f 198 177 199
f 173 165 164
f 165 173 200
f 201 173 174
f 173 201 200
f 175 201 174
f 201 175 198
f 162 147 169
f 147 162 148
f 149 169 147
f 169 149 170
f 150 170 149
f 170 150 172
f 151 172 150
f 172 151 176
f 151 195 176
f 195 151 152
f 152 197 195
f 197 152 153
f 158 197 153
f 197 158 196
f 190 158 157
f 158 190 196
f 160 157 154
f 157 160 190
f 202 168 167
f 168 202 171
f 203 171 202
f 171 203 184
f 204 184 203
f 184 204 183
f 205 183 204
f 183 205 185
f 167 203 202
f 203 167 163
f 203 163 204
f 204 163 165
f 204 165 205
f 205 165 200
f 205 200 206
f 206 200 201
f 206 201 2
f 2 201 5
f 5 201 198
f 5 198 199
f 5 199 207
f 207 199 208
f 2 209 206
f 209 2 4
f 209 4 210
f 210 4 211
f 211 4 207
f 211 207 212
f 212 207 208
f 212 208 213
f 212 213 214
f 214 213 215
f 214 215 216
f 216 215 217
f 216 217 218
f 218 217 219
f 6 1 3
f 1 6 220
f 207 6 5
f 6 207 220
f 4 220 207
f 220 4 1
f 205 186 185
f 186 205 206
f 186 209 187
f 209 186 206
f 209 188 187
f 188 209 210
f 210 189 188
f 189 210 211
f 211 191 189
f 191 211 212
f 212 192 191
f 192 212 214
f 193 214 216
f 214 193 192
f 193 218 194
f 218 193 216
f 182 218 219
f 218 182 194
f 181 219 217
f 219 181 182
f 180 217 215
f 217 180 181
f 179 215 213
f 215 179 180
f 213 178 179
f 178 213 208
f 178 199 177
f 199 178 208
f 56 67 58
f 67 56 76
f 64 69 62
f 221 222 223
f 222 221 224
f 225 226 227
f 226 225 228
f 226 228 229
f 229 228 230
f 230 228 231
f 231 228 232
f 232 228 233
f 232 233 234
f 234 233 235
f 235 233 236
f 236 233 237
f 237 233 238
f 237 238 239
f 239 238 240
f 240 238 241
f 241 238 242
f 242 238 243
f 243 238 244
f 229 245 246
f 245 229 247
f 247 229 230
f 246 245 248
f 246 248 249
f 246 249 250
f 246 250 251
f 246 251 252
f 246 252 253
f 253 252 254
f 253 254 255
f 253 255 222
f 253 222 224
f 253 224 244
f 253 244 238
f 253 238 256
f 253 256 257
f 257 256 258
f 251 259 260
f 259 251 250
f 255 261 262
f 261 255 254
f 254 263 261
f 263 254 252
f 252 260 263
f 260 252 251
f 258 264 257
f 264 258 265
f 264 253 257
f 253 264 266
f 266 246 253
f 246 266 267
f 267 229 246
f 229 267 268
f 268 226 229
f 226 268 269
f 269 227 226
f 227 269 270
f 271 227 270
f 227 271 225
f 271 228 225
f 228 271 272
f 272 233 228
f 233 272 273
f 274 224 221
f 224 274 244
f 275 244 274
f 244 275 243
f 276 243 275
f 243 276 242
f 277 242 276
f 242 277 241
f 278 279 280
f 279 278 281
f 279 281 282
f 282 281 283
f 282 283 284
f 284 283 285
f 284 285 286
f 286 285 287
f 286 287 288
f 288 287 289
f 289 287 290
f 289 290 291
f 291 290 292
f 291 292 293
f 288 259 286
f 259 288 294
f 259 294 260
f 260 294 291
f 260 291 263
f 263 291 261
f 261 291 293
f 261 293 277
f 261 277 262
f 262 277 276
f 262 276 223
f 223 276 275
f 223 275 221
f 221 275 274
f 295 296 297
f 296 295 298
f 288 296 294
f 296 288 297
f 289 297 288
f 297 289 295
f 295 291 298
f 291 295 289
f 298 294 296
f 294 298 291
f 240 277 293
f 277 240 241
f 239 293 292
f 293 239 240
f 237 292 290
f 292 237 239
f 236 290 287
f 290 236 237
f 235 287 285
f 287 235 236
f 234 285 283
f 285 234 235
f 232 283 281
f 283 232 234
f 232 278 231
f 278 232 281
f 230 278 280
f 278 230 231
f 247 280 279
f 280 247 230
f 245 279 282
f 279 245 247
f 248 282 284
f 282 248 245
f 249 284 286
f 284 249 248
f 250 286 259
f 286 250 249
f 273 238 233
f 238 273 299
f 238 300 256
f 300 238 299
f 256 265 258
f 265 256 300
f 223 255 262
f 255 223 222
f 301 302 303
f 302 301 304
f 305 306 307
f 308 7 309
f 310 311 312
f 310 306 311
f 306 310 307
f 309 305 313
f 305 309 314
f 9 315 316
f 315 9 14
f 309 9 314
f 9 309 7
f 303 317 301
f 318 315 14
f 9 316 314
f 315 312 311
f 312 315 318
f 313 307 319
f 307 313 305
f 301 310 312
f 310 301 317
f 305 316 306
f 316 305 314
f 318 11 304
f 11 318 14
f 303 319 317
f 319 303 320
f 304 11 302
f 313 319 320
f 320 309 313
f 309 320 308
f 302 7 308
f 7 302 11
f 64 74 69
f 74 64 75
f 77 74 73
f 74 77 60
f 52 33 30
f 33 52 35
f 316 311 306
f 311 316 315
f 303 308 320
f 308 303 302
f 310 270 307
f 270 310 271
f 271 310 272
f 272 310 273
f 273 310 317
f 273 317 299
f 299 317 300
f 300 317 265
f 307 269 319
f 269 307 270
f 319 269 268
f 319 268 267
f 319 267 266
f 319 266 264
f 319 264 265
f 319 265 317
f 78 73 72
f 73 78 77
f 37 25 27
f 25 37 23
f 318 301 312
f 301 318 304
f 59 74 60
f 74 59 69
f 39 31 34
f 31 39 32
f 321 322 323
f 322 321 324
f 325 322 324
f 322 325 326
f 324 327 325
f 327 324 321
f 326 327 328
f 327 326 325
f 321 328 327
f 328 321 323
f 328 322 326
f 322 328 323
f 329 330 331
f 330 329 332
f 333 334 335
f 334 333 336
f 337 338 339
f 338 337 340
f 341 342 343
f 342 341 344
f 345 346 347
f 346 345 338
f 348 349 350
f 349 348 339
f 351 329 352
f 329 351 342
f 331 352 329
f 350 349 353
f 342 332 329
f 332 342 344
f 341 347 346
f 347 341 343
f 351 343 342
f 352 350 353
f 350 352 331
f 343 354 347
f 354 343 351
f 355 356 357
f 356 355 358
f 356 358 359
f 359 358 336
f 359 336 360
f 360 336 333
f 333 361 360
f 361 333 335
f 362 360 361
f 360 362 359
f 363 359 362
f 359 363 356
f 363 357 356
f 357 363 364
f 364 355 357
f 355 364 365
f 358 365 366
f 365 358 355
f 336 366 334
f 366 336 358
f 348 367 337
f 367 348 330
f 337 339 348
f 368 369 370
f 369 368 371
f 372 370 369
f 370 372 373
f 374 373 372
f 373 374 375
f 374 376 375
f 376 374 377
f 377 378 376
f 378 377 379
f 380 379 381
f 379 380 378
f 382 381 383
f 381 382 380
f 382 371 368
f 371 382 383
f 354 345 347
f 354 349 345
f 349 354 353
f 378 365 364
f 365 378 380
f 365 380 366
f 366 380 382
f 366 382 334
f 334 382 335
f 378 375 376
f 375 378 364
f 375 364 363
f 375 363 373
f 373 363 362
f 373 362 361
f 373 361 370
f 370 361 335
f 370 335 382
f 370 382 368
f 351 379 377
f 379 351 352
f 379 352 381
f 381 352 383
f 383 352 371
f 371 352 353
f 354 374 353
f 374 354 377
f 377 354 351
f 353 374 372
f 353 372 369
f 353 369 371
f 367 330 332
f 384 344 341
f 367 344 384
f 344 367 332
f 384 346 340
f 346 384 341
f 339 345 349
f 345 339 338
f 340 346 338
f 337 384 340
f 384 337 367
f 350 330 348
f 330 350 331

