# https://github.com/mikedh/trimesh

o c_chest_leven_dec3
v 0.04654020 -0.02882581 0.01896989
v 0.04654021 -0.03387977 0.01819824
v 0.04654021 -0.03387977 0.01896989
v 0.04654021 -0.03374074 0.01819824
v 0.04654020 -0.03316895 0.01813481
v 0.04654020 -0.03283005 0.01794450
v 0.04654020 -0.03266321 0.01759257
v 0.04654020 -0.03260759 0.01704424
v 0.04654020 -0.02993463 0.01793755
v 0.04654020 -0.03009365 0.01758388
v 0.04654020 -0.03014666 0.01704424
v 0.04654020 -0.03014666 0.01166355
v 0.04654020 -0.02959833 0.01813307
v 0.04654020 -0.02901351 0.01819824
v 0.04654020 -0.02882581 0.01819824
v 0.04654021 -0.03374073 0.01031490
v 0.04654021 -0.03387977 0.00954325
v 0.04654021 -0.03387977 0.01031490
v 0.04654020 -0.02528735 0.00954326
v 0.04654020 -0.03315591 0.01038008
v 0.04654020 -0.03281962 0.01057560
v 0.04654020 -0.03266060 0.01092927
v 0.04654020 -0.02930636 0.01042005
v 0.04654020 -0.02971217 0.01052693
v 0.04654020 -0.03260759 0.01146890
v 0.04654020 -0.02995114 0.01068248
v 0.04654020 -0.03007714 0.01086410
v 0.04654020 -0.02867983 0.01038442
v 0.04654020 -0.02759882 0.01053997
v 0.04654020 -0.02717563 0.01073440
v 0.04654020 -0.02683065 0.01100661
v 0.04654020 -0.02631621 0.01173568
v 0.04654020 -0.02599643 0.01267852
v 0.04654020 -0.02524564 0.01267852
v 0.04654019 -0.01679921 0.01896989
v 0.04654020 -0.02482853 0.01821215
v 0.04654020 -0.02482853 0.01896989
v 0.04654020 -0.02465474 0.01821215
v 0.04654020 -0.02408382 0.01814871
v 0.04654020 -0.02374753 0.01795841
v 0.04654020 -0.02106066 0.01814263
v 0.04654020 -0.02358329 0.01760647
v 0.04654020 -0.02352854 0.01705815
v 0.04654020 -0.02352854 0.01146890
v 0.04654020 -0.02106066 0.01488919
v 0.04654020 -0.01930185 0.01814263
v 0.04654020 -0.01842245 0.01803488
v 0.04654019 -0.01816263 0.01785934
v 0.04654019 -0.01790454 0.01754825
v 0.04654019 -0.01743877 0.01652981
v 0.04654019 -0.01666017 0.01652981
v 0.04654020 -0.02018473 0.01488919
v 0.04654020 -0.02106066 0.01404802
v 0.04654020 -0.02015692 0.01404802
v 0.04654020 -0.01966421 0.01494828
v 0.04654020 -0.01958774 0.01396634
v 0.04654020 -0.01935399 0.01512555
v 0.04654020 -0.01928447 0.01372129
v 0.04654020 -0.01919323 0.01547661
v 0.04654020 -0.01911415 0.01299135
v 0.04654020 -0.01912111 0.01605709
v 0.04654019 -0.01833555 0.01605709
v 0.04654019 -0.01833555 0.01285926
v 0.04654020 -0.01912111 0.01285926
v 0.04654020 -0.02482853 0.01031490
v 0.04654019 -0.01620830 0.00954326
v 0.04654020 -0.02482853 0.00954326
v 0.04654020 -0.02465474 0.01031490
v 0.04654020 -0.02407513 0.01038008
v 0.04654020 -0.02374057 0.01057560
v 0.04654020 -0.02358155 0.01092927
v 0.04654020 -0.02057403 0.01050608
v 0.04654020 -0.02084341 0.01065902
v 0.04654020 -0.02098419 0.01084672
v 0.04654020 -0.02106066 0.01171917
v 0.04654020 -0.01955907 0.01037052
v 0.04654020 -0.01875700 0.01042787
v 0.04654019 -0.01819999 0.01059993
v 0.04654019 -0.01778810 0.01091624
v 0.04654019 -0.01742139 0.01140634
v 0.04654019 -0.01712507 0.01200245
v 0.04654019 -0.01692434 0.01263681
v 0.04654019 -0.01614574 0.01263681
v 0.04654019 -0.01588157 0.01896989
v 0.04654019 -0.01510297 0.01807311
v 0.04654019 -0.01588157 0.01819824
v 0.04654019 -0.01086932 0.01896989
v 0.04654019 -0.01471367 0.01770119
v 0.04654019 -0.01417838 0.01657847
v 0.04654019 -0.01185344 0.01790888
v 0.04654019 -0.01191904 0.01768381
v 0.04654019 -0.01165661 0.01806964
v 0.04654019 -0.01086932 0.01819824
v 0.04654019 -0.00872122 0.01896989
v 0.04654019 -0.00826196 0.01815784
v 0.04654019 -0.00872122 0.01819824
v 0.04654019 -0.00540521 0.01896989
v 0.04654019 -0.00793392 0.01803662
v 0.04654019 -0.00773710 0.01783458
v 0.04654019 -0.00767149 0.01755173
v 0.04654019 -0.00628461 0.01789236
v 0.04654019 -0.00667478 0.01727713
v 0.04654019 -0.00724048 0.01604319
v 0.04654019 -0.00591356 0.01812177
v 0.04654019 -0.00540521 0.01819824
v 0.04654019 -0.01095969 0.00934861
v 0.04654019 -0.01162012 0.01674532
v 0.04654019 -0.00968752 0.01246996
v 0.04654019 -0.01010462 0.00934861
v 0.04654019 -0.00787310 0.01675227
v 0.04654018 0.00277706 0.01896989
v 0.04654019 -0.00525227 0.01821215
v 0.04654019 -0.00525227 0.01896989
v 0.04654019 -0.00507847 0.01821215
v 0.04654019 -0.00450756 0.01814871
v 0.04654019 -0.00417127 0.01795841
v 0.04654018 -0.00148440 0.01814263
v 0.04654019 -0.00400703 0.01760647
v 0.04654019 -0.00395228 0.01705815
v 0.04654018 -0.00148440 0.01404802
v 0.04654018 0.00027441 0.01814263
v 0.04654018 0.00115381 0.01803488
v 0.04654018 0.00141364 0.01785934
v 0.04654018 0.00167172 0.01754825
v 0.04654018 0.00213749 0.01652981
v 0.04654018 0.00291609 0.01652981
v 0.04654018 -0.00148440 0.01488919
v 0.04654018 -0.00058066 0.01404802
v 0.04654018 -0.00060847 0.01488919
v 0.04654018 -0.00008795 0.01494828
v 0.04654018 -0.00001148 0.01396634
v 0.04654018 0.00022227 0.01512555
v 0.04654018 0.00029179 0.01372129
v 0.04654018 0.00038303 0.01547662
v 0.04654018 0.00046211 0.01299135
v 0.04654018 0.00045516 0.01605709
v 0.04654018 0.00124071 0.01605709
v 0.04654018 0.00124071 0.01285926
v 0.04654018 0.00045516 0.01285926
v 0.04654019 -0.00507847 0.01031491
v 0.04654019 -0.00525227 0.00954326
v 0.04654019 -0.00525227 0.01031491
v 0.04654018 0.00336796 0.00954326
v 0.04654019 -0.00449887 0.01038008
v 0.04654019 -0.00416431 0.01057560
v 0.04654019 -0.00400529 0.01092927
v 0.04654018 -0.00099777 0.01050608
v 0.04654019 -0.00395228 0.01146890
v 0.04654018 -0.00126715 0.01065902
v 0.04654018 -0.00140793 0.01084672
v 0.04654018 -0.00148440 0.01171917
v 0.04654018 0.00001719 0.01037052
v 0.04654018 0.00081926 0.01042787
v 0.04654018 0.00137627 0.01059993
v 0.04654018 0.00178816 0.01091624
v 0.04654018 0.00215487 0.01140634
v 0.04654018 0.00245119 0.01200245
v 0.04654018 0.00265192 0.01263681
v 0.04654018 0.00343053 0.01263681
v 0.04654018 0.00742781 0.01896989
v 0.04654018 0.00424389 0.01819824
v 0.04654018 0.00424389 0.01896989
v 0.04654018 0.00483392 0.01810831
v 0.04654018 0.00525537 0.01783849
v 0.04654018 0.00550824 0.01738880
v 0.04654018 0.00559253 0.01675922
v 0.04654018 0.00648236 0.01628650
v 0.04654018 0.00559253 0.01194858
v 0.04654017 0.01259299 0.00939032
v 0.04654017 0.01259299 0.01319990
v 0.04654018 0.00471487 0.01036965
v 0.04654018 0.00429255 0.00954326
v 0.04654018 0.00429255 0.01031491
v 0.04654018 0.00783101 0.00954326
v 0.04654018 0.00507810 0.01053389
v 0.04654018 0.00535096 0.01077025
v 0.04654018 0.00550216 0.01104137
v 0.04654018 0.00686124 0.01061383
v 0.04654018 0.00657708 0.01109872
v 0.04654018 0.00648236 0.01195553
v 0.04654018 0.00729312 0.01038964
v 0.04654018 0.00783101 0.01031491
v 0.04654017 0.01467853 0.01896989
v 0.04654018 0.01129301 0.01819824
v 0.04654018 0.01129301 0.01896989
v 0.04654017 0.01186175 0.01810179
v 0.04654017 0.01226800 0.01781242
v 0.04654017 0.01251175 0.01733014
v 0.04654017 0.01259299 0.01665495
v 0.04654017 0.01375481 0.01778201
v 0.04654017 0.01359405 0.01750654
v 0.04654017 0.01348282 0.01662714
v 0.04654017 0.01401464 0.01800359
v 0.04654017 0.01433529 0.01814958
v 0.04654017 0.01467853 0.01819825
v 0.04654017 0.01348282 0.00939032
v 0.04754020 -0.02528735 0.00954326
v 0.04754021 -0.03387977 0.01031490
v 0.04754021 -0.03387977 0.00954325
v 0.04754021 -0.03374073 0.01031490
v 0.04754020 -0.03315591 0.01038008
v 0.04754020 -0.03281962 0.01057560
v 0.04754020 -0.03266060 0.01092927
v 0.04754020 -0.02930636 0.01042005
v 0.04754020 -0.02971217 0.01052693
v 0.04754020 -0.03260759 0.01146890
v 0.04754020 -0.02995114 0.01068248
v 0.04754020 -0.03007714 0.01086410
v 0.04754020 -0.03260759 0.01704424
v 0.04754020 -0.03014665 0.01166355
v 0.04754020 -0.02867983 0.01038442
v 0.04754020 -0.02759882 0.01053997
v 0.04754020 -0.02717563 0.01073440
v 0.04754020 -0.02683065 0.01100661
v 0.04754020 -0.02631621 0.01173568
v 0.04754020 -0.02599643 0.01267852
v 0.04754020 -0.02524564 0.01267852
v 0.04754021 -0.03374073 0.01819824
v 0.04754021 -0.03387977 0.01896989
v 0.04754021 -0.03387977 0.01819824
v 0.04754020 -0.02882581 0.01896989
v 0.04754020 -0.03316895 0.01813481
v 0.04754020 -0.03283005 0.01794450
v 0.04754020 -0.03266321 0.01759257
v 0.04754020 -0.02993463 0.01793755
v 0.04754020 -0.03009365 0.01758388
v 0.04754020 -0.03014666 0.01704424
v 0.04754020 -0.02959833 0.01813307
v 0.04754020 -0.02901351 0.01819824
v 0.04754020 -0.02882581 0.01819824
v 0.04754019 -0.01620830 0.00954326
v 0.04754020 -0.02482853 0.01031490
v 0.04754020 -0.02482853 0.00954326
v 0.04754020 -0.02465473 0.01031490
v 0.04754020 -0.02407513 0.01038008
v 0.04754020 -0.02374057 0.01057560
v 0.04754020 -0.02358155 0.01092927
v 0.04754020 -0.02057403 0.01050608
v 0.04754020 -0.02352854 0.01146890
v 0.04754020 -0.02084341 0.01065902
v 0.04754020 -0.02098419 0.01084672
v 0.04754020 -0.02106066 0.01171917
v 0.04754020 -0.01955907 0.01037052
v 0.04754020 -0.01875700 0.01042787
v 0.04754019 -0.01819999 0.01059993
v 0.04754019 -0.01778810 0.01091624
v 0.04754019 -0.01742139 0.01140634
v 0.04754019 -0.01712507 0.01200245
v 0.04754019 -0.01692434 0.01263681
v 0.04754019 -0.01614574 0.01263681
v 0.04754019 -0.01833555 0.01285926
v 0.04754020 -0.01911415 0.01299135
v 0.04754020 -0.01912110 0.01285926
v 0.04754020 -0.02015692 0.01404802
v 0.04754020 -0.02106066 0.01488919
v 0.04754020 -0.02106066 0.01404802
v 0.04754020 -0.02018473 0.01488919
v 0.04754020 -0.01966421 0.01494828
v 0.04754020 -0.01958774 0.01396634
v 0.04754020 -0.01935399 0.01512555
v 0.04754020 -0.01928447 0.01372129
v 0.04754020 -0.01919323 0.01547661
v 0.04754020 -0.01912110 0.01605709
v 0.04754019 -0.01833555 0.01605709
v 0.04754020 -0.02465474 0.01821215
v 0.04754020 -0.02482853 0.01896989
v 0.04754020 -0.02482853 0.01821215
v 0.04754019 -0.01679920 0.01896989
v 0.04754020 -0.02408382 0.01814871
v 0.04754020 -0.02374753 0.01795841
v 0.04754020 -0.02106066 0.01814263
v 0.04754020 -0.02358329 0.01760647
v 0.04754020 -0.02352854 0.01705815
v 0.04754020 -0.01930185 0.01814263
v 0.04754020 -0.01842245 0.01803488
v 0.04754019 -0.01816263 0.01785934
v 0.04754019 -0.01790454 0.01754825
v 0.04754019 -0.01743877 0.01652981
v 0.04754019 -0.01666017 0.01652981
v 0.04754019 -0.01095969 0.00934861
v 0.04754019 -0.01191904 0.01768381
v 0.04754019 -0.01417838 0.01657847
v 0.04754019 -0.01162012 0.01674532
v 0.04754019 -0.00968752 0.01246996
v 0.04754019 -0.01010462 0.00934861
v 0.04754019 -0.00724048 0.01604319
v 0.04754019 -0.00787310 0.01675227
v 0.04754019 -0.00767149 0.01755173
v 0.04754019 -0.00826196 0.01815784
v 0.04754019 -0.00872122 0.01896989
v 0.04754019 -0.00872122 0.01819824
v 0.04754019 -0.00540521 0.01896989
v 0.04754019 -0.00793392 0.01803662
v 0.04754019 -0.00773710 0.01783458
v 0.04754019 -0.00628461 0.01789236
v 0.04754019 -0.00667478 0.01727713
v 0.04754019 -0.00591356 0.01812177
v 0.04754019 -0.00540521 0.01819824
v 0.04754019 -0.01510297 0.01807311
v 0.04754019 -0.01588157 0.01896989
v 0.04754019 -0.01588157 0.01819824
v 0.04754019 -0.01086932 0.01896989
v 0.04754019 -0.01471367 0.01770119
v 0.04754019 -0.01185344 0.01790888
v 0.04754019 -0.01165661 0.01806964
v 0.04754019 -0.01086932 0.01819824
v 0.04754018 0.00336796 0.00954326
v 0.04754019 -0.00525227 0.01031491
v 0.04754019 -0.00525227 0.00954326
v 0.04754019 -0.00507847 0.01031491
v 0.04754019 -0.00449887 0.01038008
v 0.04754019 -0.00416431 0.01057560
v 0.04754019 -0.00400529 0.01092927
v 0.04754018 -0.00099777 0.01050608
v 0.04754019 -0.00395228 0.01146890
v 0.04754018 -0.00126715 0.01065902
v 0.04754018 -0.00140792 0.01084672
v 0.04754019 -0.00395228 0.01705815
v 0.04754018 -0.00148439 0.01171917
v 0.04754018 -0.00148439 0.01404802
v 0.04754018 0.00001719 0.01037052
v 0.04754018 0.00081926 0.01042787
v 0.04754018 0.00137627 0.01059993
v 0.04754018 0.00178816 0.01091624
v 0.04754018 0.00215487 0.01140634
v 0.04754018 0.00245119 0.01200245
v 0.04754018 0.00265193 0.01263681
v 0.04754018 0.00343053 0.01263681
v 0.04754018 0.00124071 0.01285926
v 0.04754018 0.00046211 0.01299135
v 0.04754018 0.00045516 0.01285926
v 0.04754018 0.00124071 0.01605709
v 0.04754018 -0.00148439 0.01488919
v 0.04754018 -0.00148439 0.01814263
v 0.04754018 -0.00058066 0.01404802
v 0.04754018 -0.00060847 0.01488919
v 0.04754018 -0.00008795 0.01494828
v 0.04754018 -0.00001148 0.01396634
v 0.04754018 0.00022227 0.01512555
v 0.04754018 0.00029179 0.01372129
v 0.04754018 0.00038303 0.01547662
v 0.04754018 0.00045516 0.01605709
v 0.04754019 -0.00507847 0.01821215
v 0.04754019 -0.00525227 0.01896989
v 0.04754019 -0.00525227 0.01821215
v 0.04754018 0.00277706 0.01896989
v 0.04754019 -0.00450756 0.01814871
v 0.04754019 -0.00417126 0.01795841
v 0.04754019 -0.00400703 0.01760647
v 0.04754018 0.00027441 0.01814263
v 0.04754018 0.00115381 0.01803488
v 0.04754018 0.00141364 0.01785934
v 0.04754018 0.00167172 0.01754825
v 0.04754018 0.00213749 0.01652981
v 0.04754018 0.00291609 0.01652981
v 0.04754018 0.00483392 0.01810831
v 0.04754018 0.00424389 0.01896989
v 0.04754018 0.00424389 0.01819824
v 0.04754018 0.00742781 0.01896989
v 0.04754018 0.00525537 0.01783849
v 0.04754018 0.00550825 0.01738880
v 0.04754018 0.00559254 0.01675922
v 0.04754018 0.00648237 0.01628650
v 0.04754018 0.00559254 0.01194858
v 0.04754017 0.01259300 0.00939032
v 0.04754017 0.01259300 0.01319990
v 0.04754017 0.01348283 0.00939032
v 0.04754017 0.01259300 0.01665495
v 0.04754017 0.01186175 0.01810179
v 0.04754018 0.01129301 0.01896989
v 0.04754018 0.01129301 0.01819824
v 0.04754017 0.01467853 0.01896989
v 0.04754017 0.01226800 0.01781242
v 0.04754017 0.01251175 0.01733014
v 0.04754017 0.01375481 0.01778201
v 0.04754017 0.01359405 0.01750654
v 0.04754017 0.01348283 0.01662714
v 0.04754017 0.01401464 0.01800359
v 0.04754017 0.01433529 0.01814958
v 0.04754017 0.01467853 0.01819825
v 0.04754018 0.00783101 0.00954326
v 0.04754018 0.00429255 0.01031491
v 0.04754018 0.00429255 0.00954326
v 0.04754018 0.00471487 0.01036965
v 0.04754018 0.00507810 0.01053389
v 0.04754018 0.00535096 0.01077025
v 0.04754018 0.00550216 0.01104137
v 0.04754018 0.00686124 0.01061383
v 0.04754018 0.00657708 0.01109872
v 0.04754018 0.00648237 0.01195553
v 0.04754018 0.00729312 0.01038964
v 0.04754018 0.00783101 0.01031491
v 0.04699017 0.02044082 0.01376319
v 0.04699017 0.02049830 0.01303984
v 0.04699017 0.02041036 0.01349674
v 0.04699017 0.02053223 0.01400431
v 0.04699017 0.02058146 0.01288068
v 0.04699017 0.02068457 0.01422010
v 0.04699017 0.02065506 0.01282763
v 0.04699017 0.02095329 0.01293469
v 0.04699017 0.02089785 0.01441056
v 0.04699017 0.02122810 0.01392259
v 0.04699017 0.02144317 0.01467725
v 0.04699017 0.02118270 0.01369939
v 0.04699017 0.02136432 0.01411806
v 0.04699017 0.02156457 0.01425427
v 0.04699017 0.02210416 0.01476614
v 0.04699017 0.02180211 0.01429968
v 0.04699017 0.02208409 0.01423277
v 0.04699017 0.02230298 0.01403203
v 0.04699017 0.02275463 0.01467008
v 0.04699017 0.02244350 0.01371946
v 0.04699017 0.02249033 0.01331704
v 0.04699017 0.02197416 0.01166625
v 0.04699017 0.02163005 0.01028119
v 0.04699017 0.02132895 0.01078422
v 0.04699017 0.02283062 0.01160603
v 0.04699017 0.02219999 0.01209311
v 0.04699017 0.02236129 0.01251052
v 0.04699017 0.02245807 0.01291850
v 0.04699017 0.02303721 0.01455000
v 0.04699017 0.02333293 0.01222974
v 0.04699017 0.02329135 0.01438188
v 0.04699017 0.02350129 0.01417506
v 0.04699017 0.02360870 0.01266705
v 0.04699017 0.02365124 0.01393884
v 0.04699017 0.02373058 0.01301690
v 0.04699017 0.02374121 0.01367322
v 0.04699017 0.02377120 0.01337822
v 0.04699017 0.02042565 0.00950120
v 0.04699017 0.02042565 0.00986443
v 0.04699017 0.02295680 0.00950120
v 0.04699017 0.02382091 0.01028119
v 0.04699017 0.02318621 0.00947252
v 0.04699017 0.02324356 0.00933297
v 0.04699017 0.02362591 0.00918767
v 0.04699017 0.02322062 0.00918767
v 0.04699017 0.02126299 0.01306469
v 0.04699017 0.02121807 0.01343748
v 0.04699017 0.02132417 0.01320998
v 0.04699017 0.02135476 0.01314116
v 0.04754017 0.02042565 0.00950120
v 0.04754017 0.02042565 0.00986443
v 0.04754017 0.02132895 0.01078422
v 0.04754017 0.02197417 0.01166625
v 0.04754017 0.02219999 0.01209311
v 0.04754017 0.02236129 0.01251052
v 0.04754017 0.02245807 0.01291850
v 0.04754017 0.02249033 0.01331704
v 0.04754017 0.02244350 0.01371946
v 0.04754017 0.02230298 0.01403203
v 0.04754017 0.02208409 0.01423277
v 0.04754017 0.02180211 0.01429968
v 0.04754017 0.02156457 0.01425427
v 0.04754017 0.02136432 0.01411806
v 0.04754017 0.02122810 0.01392259
v 0.04754017 0.02118270 0.01369939
v 0.04754017 0.02121807 0.01343748
v 0.04754017 0.02132417 0.01320998
v 0.04754017 0.02135476 0.01314116
v 0.04754017 0.02126299 0.01306469
v 0.04754017 0.02095329 0.01293469
v 0.04754017 0.02065506 0.01282763
v 0.04754017 0.02058146 0.01288068
v 0.04754017 0.02049830 0.01303984
v 0.04754017 0.02041036 0.01349674
v 0.04754017 0.02044082 0.01376319
v 0.04754017 0.02053223 0.01400431
v 0.04754017 0.02068457 0.01422010
v 0.04754017 0.02089785 0.01441056
v 0.04754017 0.02144318 0.01467725
v 0.04754017 0.02210416 0.01476614
v 0.04754017 0.02275463 0.01467008
v 0.04754017 0.02303721 0.01455000
v 0.04754017 0.02329135 0.01438188
v 0.04754017 0.02350129 0.01417506
v 0.04754017 0.02365124 0.01393884
v 0.04754017 0.02374121 0.01367322
v 0.04754017 0.02377120 0.01337822
v 0.04754017 0.02373058 0.01301690
v 0.04754017 0.02360870 0.01266705
v 0.04754017 0.02333294 0.01222974
v 0.04754017 0.02283062 0.01160603
v 0.04754017 0.02163005 0.01028119
v 0.04754017 0.02382091 0.01028119
v 0.04754017 0.02362591 0.00918767
v 0.04754017 0.02322062 0.00918767
v 0.04754017 0.02324356 0.00933297
v 0.04754017 0.02318621 0.00947252
v 0.04754017 0.02295680 0.00950120
v 0.04699018 0.01605253 0.01273539
v 0.04699018 0.01606831 0.01131879
v 0.04699018 0.01602099 0.01212794
v 0.04699017 0.01614716 0.01326542
v 0.04699017 0.01621025 0.01067310
v 0.04699017 0.01630488 0.01371803
v 0.04699017 0.01646069 0.01016027
v 0.04699017 0.01652569 0.01409321
v 0.04699017 0.01683348 0.00974973
v 0.04699017 0.01679692 0.01438762
v 0.04699017 0.01710590 0.01459791
v 0.04699017 0.01730234 0.00948017
v 0.04699017 0.01730568 0.01212029
v 0.04699017 0.01733531 0.01324009
v 0.04699017 0.01745265 0.01472408
v 0.04699017 0.01742421 0.01390012
v 0.04699017 0.01758384 0.01422273
v 0.04699017 0.01783715 0.01476614
v 0.04699017 0.01769448 0.01430338
v 0.04699017 0.01782568 0.01433026
v 0.04699017 0.01797157 0.01430195
v 0.04699017 0.01821221 0.01472456
v 0.04699017 0.01809189 0.01421699
v 0.04699017 0.01825582 0.01387718
v 0.04699017 0.01855357 0.01459982
v 0.04699017 0.01834041 0.01320281
v 0.04699017 0.01836861 0.01208588
v 0.04699017 0.01747583 0.01013291
v 0.04699017 0.01784097 0.00939032
v 0.04699017 0.01740892 0.01035957
v 0.04699017 0.01733149 0.01105879
v 0.04699017 0.01757333 0.00997101
v 0.04699017 0.01770141 0.00987387
v 0.04699017 0.01786009 0.00984149
v 0.04699017 0.01822679 0.00943226
v 0.04699017 0.01799714 0.00986754
v 0.04699017 0.01811005 0.00994568
v 0.04699017 0.01826347 0.01025825
v 0.04699017 0.01857365 0.00955807
v 0.04699017 0.01834233 0.01092354
v 0.04699017 0.01886124 0.01439192
v 0.04699017 0.01888156 0.00976777
v 0.04699017 0.01913522 0.01410086
v 0.04699017 0.01915052 0.01006134
v 0.04699017 0.01936021 0.01373045
v 0.04699017 0.01936881 0.01044453
v 0.04699017 0.01952092 0.01328454
v 0.04699017 0.01952474 0.01092306
v 0.04699017 0.01961734 0.01276311
v 0.04699017 0.01961830 0.01149694
v 0.04699017 0.01964948 0.01216617
v 0.04754017 0.01730234 0.00948017
v 0.04754017 0.01733149 0.01105879
v 0.04754017 0.01730568 0.01212029
v 0.04754017 0.01740892 0.01035957
v 0.04754017 0.01747583 0.01013291
v 0.04754017 0.01784097 0.00939032
v 0.04754017 0.01757333 0.00997101
v 0.04754017 0.01770141 0.00987387
v 0.04754017 0.01786009 0.00984149
v 0.04754017 0.01822679 0.00943226
v 0.04754017 0.01799714 0.00986754
v 0.04754017 0.01811005 0.00994568
v 0.04754017 0.01826347 0.01025825
v 0.04754017 0.01857365 0.00955807
v 0.04754017 0.01834233 0.01092354
v 0.04754017 0.01836861 0.01208588
v 0.04754017 0.01855357 0.01459982
v 0.04754017 0.01886124 0.01439192
v 0.04754017 0.01888156 0.00976777
v 0.04754017 0.01913522 0.01410086
v 0.04754017 0.01915052 0.01006134
v 0.04754017 0.01936021 0.01373045
v 0.04754017 0.01936881 0.01044453
v 0.04754017 0.01952092 0.01328454
v 0.04754017 0.01952474 0.01092306
v 0.04754017 0.01961734 0.01276311
v 0.04754017 0.01961830 0.01149694
v 0.04754017 0.01964948 0.01216617
v 0.04754018 0.01606831 0.01131879
v 0.04754018 0.01605253 0.01273539
v 0.04754018 0.01602099 0.01212794
v 0.04754017 0.01614717 0.01326542
v 0.04754017 0.01621025 0.01067310
v 0.04754017 0.01630488 0.01371803
v 0.04754017 0.01646069 0.01016027
v 0.04754017 0.01652569 0.01409321
v 0.04754017 0.01683348 0.00974973
v 0.04754017 0.01679692 0.01438762
v 0.04754017 0.01710591 0.01459791
v 0.04754017 0.01733531 0.01324009
v 0.04754017 0.01745265 0.01472408
v 0.04754017 0.01742421 0.01390012
v 0.04754017 0.01758384 0.01422273
v 0.04754017 0.01783715 0.01476614
v 0.04754017 0.01769448 0.01430338
v 0.04754017 0.01782568 0.01433026
v 0.04754017 0.01797157 0.01430195
v 0.04754017 0.01821221 0.01472456
v 0.04754017 0.01809189 0.01421699
v 0.04754017 0.01825582 0.01387718
v 0.04754017 0.01834041 0.01320281
f 1 2 3
f 2 1 4
f 4 1 5
f 5 1 6
f 6 1 7
f 7 1 8
f 8 1 9
f 8 9 10
f 8 10 11
f 8 11 12
f 9 1 13
f 13 1 14
f 14 1 15
f 16 17 18
f 17 16 19
f 19 16 20
f 19 20 21
f 19 21 22
f 19 22 23
f 23 22 24
f 24 22 25
f 24 25 26
f 26 25 27
f 27 25 8
f 27 8 12
f 19 23 28
f 19 28 29
f 19 29 30
f 19 30 31
f 19 31 32
f 19 32 33
f 19 33 34
f 35 36 37
f 36 35 38
f 38 35 39
f 39 35 40
f 40 35 41
f 40 41 42
f 42 41 43
f 43 41 44
f 44 41 45
f 41 35 46
f 46 35 47
f 47 35 48
f 48 35 49
f 49 35 50
f 50 35 51
f 52 53 45
f 53 52 54
f 54 52 55
f 54 55 56
f 56 55 57
f 56 57 58
f 58 57 59
f 58 59 60
f 60 59 61
f 60 61 62
f 60 63 64
f 63 60 62
f 65 66 67
f 66 65 68
f 66 68 69
f 66 69 70
f 66 70 71
f 66 71 72
f 72 71 44
f 72 44 73
f 73 44 74
f 74 44 75
f 75 44 45
f 75 45 53
f 66 72 76
f 66 76 77
f 66 77 78
f 66 78 79
f 66 79 80
f 66 80 81
f 66 81 82
f 66 82 83
f 84 85 86
f 85 84 87
f 85 87 88
f 88 87 89
f 89 87 90
f 89 90 91
f 90 87 92
f 92 87 93
f 94 95 96
f 95 94 97
f 95 97 98
f 98 97 99
f 99 97 100
f 100 97 101
f 100 101 102
f 100 102 103
f 101 97 104
f 104 97 105
f 91 106 89
f 106 91 107
f 106 107 108
f 106 108 109
f 109 108 103
f 103 108 110
f 103 110 100
f 111 112 113
f 112 111 114
f 114 111 115
f 115 111 116
f 116 111 117
f 116 117 118
f 118 117 119
f 119 117 120
f 117 111 121
f 121 111 122
f 122 111 123
f 123 111 124
f 124 111 125
f 125 111 126
f 120 127 128
f 127 120 117
f 128 127 129
f 128 129 130
f 128 130 131
f 131 130 132
f 131 132 133
f 133 132 134
f 133 134 135
f 135 134 136
f 135 136 137
f 135 138 139
f 138 135 137
f 140 141 142
f 141 140 143
f 143 140 144
f 143 144 145
f 143 145 146
f 143 146 147
f 147 146 148
f 147 148 149
f 149 148 150
f 150 148 119
f 150 119 151
f 151 119 120
f 143 147 152
f 143 152 153
f 143 153 154
f 143 154 155
f 143 155 156
f 143 156 157
f 143 157 158
f 143 158 159
f 160 161 162
f 161 160 163
f 163 160 164
f 164 160 165
f 165 160 166
f 166 160 167
f 166 167 168
f 167 160 169
f 169 160 170
f 171 172 173
f 172 171 174
f 174 171 175
f 174 175 176
f 174 176 177
f 174 177 168
f 174 168 178
f 178 168 179
f 179 168 180
f 180 168 167
f 174 178 181
f 174 181 182
f 183 184 185
f 184 183 186
f 186 183 187
f 187 183 188
f 188 183 189
f 189 183 190
f 189 190 191
f 189 191 170
f 170 191 192
f 170 192 169
f 190 183 193
f 193 183 194
f 194 183 195
f 196 169 192
f 197 198 199
f 198 197 200
f 200 197 201
f 201 197 202
f 202 197 203
f 203 197 204
f 203 204 205
f 203 205 206
f 206 205 207
f 206 207 208
f 206 208 209
f 209 208 210
f 204 197 211
f 211 197 212
f 212 197 213
f 213 197 214
f 214 197 215
f 215 197 216
f 216 197 217
f 218 219 220
f 219 218 221
f 221 218 222
f 221 222 223
f 221 223 224
f 221 224 209
f 221 209 225
f 225 209 226
f 226 209 227
f 227 209 210
f 221 225 228
f 221 228 229
f 221 229 230
f 34 197 19
f 197 34 217
f 197 17 19
f 17 197 199
f 198 17 199
f 17 198 18
f 18 200 16
f 200 18 198
f 200 20 16
f 20 200 201
f 201 21 20
f 21 201 202
f 203 21 202
f 21 203 22
f 206 22 203
f 22 206 25
f 209 25 206
f 25 209 8
f 224 8 209
f 8 224 7
f 223 7 224
f 7 223 6
f 6 222 5
f 222 6 223
f 222 4 5
f 4 222 218
f 218 2 4
f 2 218 220
f 219 2 220
f 2 219 3
f 219 1 3
f 1 219 221
f 1 230 15
f 230 1 221
f 230 14 15
f 14 230 229
f 229 13 14
f 13 229 228
f 228 9 13
f 9 228 225
f 9 226 10
f 226 9 225
f 10 227 11
f 227 10 226
f 11 210 12
f 210 11 227
f 12 208 27
f 208 12 210
f 27 207 26
f 207 27 208
f 207 24 26
f 24 207 205
f 205 23 24
f 23 205 204
f 204 28 23
f 28 204 211
f 211 29 28
f 29 211 212
f 212 30 29
f 30 212 213
f 213 31 30
f 31 213 214
f 215 31 214
f 31 215 32
f 216 32 215
f 32 216 33
f 33 217 34
f 217 33 216
f 231 232 233
f 232 231 234
f 234 231 235
f 235 231 236
f 236 231 237
f 237 231 238
f 237 238 239
f 239 238 240
f 239 240 241
f 239 241 242
f 238 231 243
f 243 231 244
f 244 231 245
f 245 231 246
f 246 231 247
f 247 231 248
f 248 231 249
f 249 231 250
f 251 252 253
f 254 255 256
f 255 254 257
f 257 254 258
f 258 254 259
f 258 259 260
f 260 259 261
f 260 261 262
f 262 261 252
f 262 252 263
f 263 252 264
f 264 252 251
f 265 266 267
f 266 265 268
f 268 265 269
f 268 269 270
f 268 270 271
f 271 270 272
f 271 272 273
f 271 273 239
f 271 239 242
f 271 242 256
f 271 256 255
f 268 271 274
f 268 274 275
f 268 275 276
f 268 276 277
f 268 277 278
f 268 278 279
f 53 242 75
f 242 53 256
f 75 241 74
f 241 75 242
f 74 240 73
f 240 74 241
f 240 72 73
f 72 240 238
f 238 76 72
f 76 238 243
f 243 77 76
f 77 243 244
f 244 78 77
f 78 244 245
f 78 246 79
f 246 78 245
f 247 79 246
f 79 247 80
f 248 80 247
f 80 248 81
f 249 81 248
f 81 249 82
f 249 83 82
f 83 249 250
f 66 250 231
f 250 66 83
f 231 67 66
f 67 231 233
f 232 67 233
f 67 232 65
f 232 68 65
f 68 232 234
f 68 235 69
f 235 68 234
f 235 70 69
f 70 235 236
f 237 70 236
f 70 237 71
f 239 71 237
f 71 239 44
f 273 44 239
f 44 273 43
f 272 43 273
f 43 272 42
f 270 42 272
f 42 270 40
f 270 39 40
f 39 270 269
f 269 38 39
f 38 269 265
f 38 267 36
f 267 38 265
f 267 37 36
f 37 267 266
f 266 35 37
f 35 266 268
f 35 279 51
f 279 35 268
f 279 50 51
f 50 279 278
f 277 50 278
f 50 277 49
f 276 49 277
f 49 276 48
f 276 47 48
f 47 276 275
f 275 46 47
f 46 275 274
f 274 41 46
f 41 274 271
f 41 255 45
f 255 41 271
f 255 52 45
f 52 255 257
f 52 258 55
f 258 52 257
f 258 57 55
f 57 258 260
f 262 57 260
f 57 262 59
f 263 59 262
f 59 263 61
f 263 62 61
f 62 263 264
f 62 251 63
f 251 62 264
f 63 253 64
f 253 63 251
f 252 64 253
f 64 252 60
f 261 60 252
f 60 261 58
f 261 56 58
f 56 261 259
f 259 54 56
f 54 259 254
f 254 53 54
f 53 254 256
f 280 281 282
f 281 280 283
f 283 280 284
f 284 280 285
f 284 285 286
f 284 286 287
f 287 286 288
f 289 290 291
f 290 289 292
f 292 289 293
f 292 293 294
f 292 294 288
f 292 288 295
f 295 288 296
f 296 288 286
f 292 295 297
f 292 297 298
f 299 300 301
f 300 299 302
f 302 299 303
f 302 303 282
f 302 282 304
f 304 282 281
f 302 304 305
f 302 305 306
f 282 106 280
f 106 282 89
f 303 89 282
f 89 303 88
f 88 299 85
f 299 88 303
f 299 86 85
f 86 299 301
f 300 86 301
f 86 300 84
f 84 302 87
f 302 84 300
f 87 306 93
f 306 87 302
f 306 92 93
f 92 306 305
f 305 90 92
f 90 305 304
f 90 281 91
f 281 90 304
f 91 283 107
f 283 91 281
f 107 284 108
f 284 107 283
f 287 108 284
f 108 287 110
f 288 110 287
f 110 288 100
f 294 100 288
f 100 294 99
f 293 99 294
f 99 293 98
f 98 289 95
f 289 98 293
f 289 96 95
f 96 289 291
f 291 94 96
f 94 291 290
f 290 97 94
f 97 290 292
f 97 298 105
f 298 97 292
f 298 104 105
f 104 298 297
f 297 101 104
f 101 297 295
f 101 296 102
f 296 101 295
f 102 286 103
f 286 102 296
f 109 286 285
f 286 109 103
f 109 280 106
f 280 109 285
f 307 308 309
f 308 307 310
f 310 307 311
f 311 307 312
f 312 307 313
f 313 307 314
f 313 314 315
f 315 314 316
f 315 316 317
f 315 317 318
f 318 317 319
f 318 319 320
f 314 307 321
f 321 307 322
f 322 307 323
f 323 307 324
f 324 307 325
f 325 307 326
f 326 307 327
f 327 307 328
f 329 330 331
f 330 329 332
f 320 333 334
f 333 320 335
f 333 335 336
f 336 335 337
f 337 335 338
f 337 338 339
f 339 338 340
f 339 340 341
f 341 340 330
f 341 330 342
f 342 330 332
f 343 344 345
f 344 343 346
f 346 343 347
f 346 347 348
f 346 348 334
f 334 348 349
f 334 349 318
f 334 318 320
f 346 334 350
f 346 350 351
f 346 351 352
f 346 352 353
f 346 353 354
f 346 354 355
f 120 319 151
f 319 120 320
f 151 317 150
f 317 151 319
f 150 316 149
f 316 150 317
f 316 147 149
f 147 316 314
f 314 152 147
f 152 314 321
f 321 153 152
f 153 321 322
f 322 154 153
f 154 322 323
f 323 155 154
f 155 323 324
f 325 155 324
f 155 325 156
f 326 156 325
f 156 326 157
f 327 157 326
f 157 327 158
f 327 159 158
f 159 327 328
f 159 307 143
f 307 159 328
f 307 141 143
f 141 307 309
f 308 141 309
f 141 308 142
f 308 140 142
f 140 308 310
f 140 311 144
f 311 140 310
f 311 145 144
f 145 311 312
f 313 145 312
f 145 313 146
f 315 146 313
f 146 315 148
f 318 148 315
f 148 318 119
f 349 119 318
f 119 349 118
f 348 118 349
f 118 348 116
f 116 347 115
f 347 116 348
f 347 114 115
f 114 347 343
f 343 112 114
f 112 343 345
f 344 112 345
f 112 344 113
f 344 111 113
f 111 344 346
f 126 346 355
f 346 126 111
f 355 125 126
f 125 355 354
f 353 125 354
f 125 353 124
f 352 124 353
f 124 352 123
f 352 122 123
f 122 352 351
f 122 350 121
f 350 122 351
f 350 117 121
f 117 350 334
f 117 333 127
f 333 117 334
f 333 129 127
f 129 333 336
f 336 130 129
f 130 336 337
f 337 132 130
f 132 337 339
f 341 132 339
f 132 341 134
f 342 134 341
f 134 342 136
f 136 332 137
f 332 136 342
f 137 329 138
f 329 137 332
f 329 139 138
f 139 329 331
f 330 139 331
f 139 330 135
f 340 135 330
f 135 340 133
f 340 131 133
f 131 340 338
f 338 128 131
f 128 338 335
f 128 320 120
f 320 128 335
f 356 357 358
f 357 356 359
f 359 356 360
f 359 360 361
f 359 361 362
f 359 362 363
f 363 362 364
f 359 363 365
f 359 365 366
f 366 365 367
f 366 367 368
f 369 370 371
f 370 369 372
f 372 369 373
f 372 373 374
f 372 374 368
f 372 368 375
f 375 368 376
f 376 368 377
f 377 368 367
f 372 375 378
f 372 378 379
f 372 379 380
f 381 382 383
f 382 381 384
f 384 381 385
f 385 381 386
f 386 381 387
f 387 381 364
f 364 381 388
f 364 388 389
f 364 389 390
f 364 390 363
f 388 381 391
f 391 381 392
f 180 363 390
f 363 180 167
f 180 389 179
f 389 180 390
f 178 389 388
f 389 178 179
f 388 181 178
f 181 388 391
f 391 182 181
f 182 391 392
f 174 392 381
f 392 174 182
f 381 172 174
f 172 381 383
f 382 172 383
f 172 382 173
f 173 384 171
f 384 173 382
f 384 175 171
f 175 384 385
f 385 176 175
f 176 385 386
f 387 176 386
f 176 387 177
f 387 168 177
f 168 387 364
f 362 168 364
f 168 362 166
f 361 166 362
f 166 361 165
f 360 165 361
f 165 360 164
f 360 163 164
f 163 360 356
f 163 358 161
f 358 163 356
f 357 161 358
f 161 357 162
f 357 160 162
f 160 357 359
f 160 366 170
f 366 160 359
f 368 170 366
f 170 368 189
f 374 189 368
f 189 374 188
f 373 188 374
f 188 373 187
f 373 186 187
f 186 373 369
f 369 184 186
f 184 369 371
f 370 184 371
f 184 370 185
f 370 183 185
f 183 370 372
f 183 380 195
f 380 183 372
f 380 194 195
f 194 380 379
f 379 193 194
f 193 379 378
f 378 190 193
f 190 378 375
f 190 376 191
f 376 190 375
f 191 377 192
f 377 191 376
f 192 367 196
f 367 192 377
f 196 365 169
f 365 196 367
f 363 169 365
f 169 363 167
f 393 394 395
f 394 393 396
f 394 396 397
f 397 396 398
f 397 398 399
f 399 398 400
f 400 398 401
f 400 401 402
f 402 401 403
f 400 402 404
f 402 403 405
f 405 403 406
f 406 403 407
f 406 407 408
f 408 407 409
f 409 407 410
f 410 407 411
f 410 411 412
f 412 411 413
f 414 415 416
f 415 414 417
f 417 414 418
f 417 418 419
f 417 419 420
f 417 420 413
f 417 413 411
f 417 411 421
f 417 421 422
f 422 421 423
f 422 423 424
f 422 424 425
f 425 424 426
f 425 426 427
f 427 426 428
f 427 428 429
f 416 430 431
f 430 416 415
f 430 415 432
f 432 415 433
f 432 433 434
f 434 433 435
f 435 433 436
f 436 437 435
f 404 438 400
f 438 404 439
f 438 439 440
f 438 440 441
f 442 431 430
f 431 442 443
f 443 416 431
f 416 443 444
f 445 416 444
f 416 445 414
f 446 414 445
f 414 446 418
f 447 418 446
f 418 447 419
f 448 419 447
f 419 448 420
f 449 420 448
f 420 449 413
f 450 413 449
f 413 450 412
f 450 410 412
f 410 450 451
f 410 452 409
f 452 410 451
f 409 453 408
f 453 409 452
f 453 406 408
f 406 453 454
f 406 455 405
f 455 406 454
f 402 455 456
f 455 402 405
f 402 457 404
f 457 402 456
f 404 458 439
f 458 404 457
f 439 459 440
f 459 439 458
f 440 460 441
f 460 440 459
f 441 461 438
f 461 441 460
f 461 400 438
f 400 461 462
f 400 463 399
f 463 400 462
f 463 397 399
f 397 463 464
f 465 397 464
f 397 465 394
f 466 394 465
f 394 466 395
f 467 395 466
f 395 467 393
f 468 393 467
f 393 468 396
f 469 396 468
f 396 469 398
f 398 470 401
f 470 398 469
f 470 403 401
f 403 470 471
f 471 407 403
f 407 471 472
f 472 411 407
f 411 472 473
f 411 474 421
f 474 411 473
f 421 475 423
f 475 421 474
f 475 424 423
f 424 475 476
f 424 477 426
f 477 424 476
f 428 477 478
f 477 428 426
f 429 478 479
f 478 429 428
f 429 480 427
f 480 429 479
f 427 481 425
f 481 427 480
f 425 482 422
f 482 425 481
f 422 483 417
f 483 422 482
f 417 484 415
f 484 417 483
f 484 433 415
f 433 484 485
f 436 485 486
f 485 436 433
f 486 437 436
f 437 486 487
f 487 435 437
f 435 487 488
f 488 434 435
f 434 488 489
f 434 490 432
f 490 434 489
f 490 430 432
f 430 490 442
f 461 457 462
f 457 461 458
f 458 461 459
f 459 461 460
f 486 488 487
f 442 444 443
f 444 442 484
f 484 442 490
f 484 490 485
f 485 490 489
f 485 489 488
f 485 488 486
f 484 445 444
f 445 484 483
f 445 483 446
f 446 483 447
f 447 483 448
f 448 483 449
f 449 483 473
f 473 483 474
f 474 483 482
f 474 482 475
f 475 482 476
f 476 482 481
f 476 481 477
f 477 481 480
f 477 480 478
f 478 480 479
f 465 467 466
f 467 465 468
f 468 465 464
f 468 464 469
f 469 464 463
f 469 463 462
f 469 462 470
f 470 462 456
f 470 456 471
f 456 462 457
f 471 456 455
f 471 455 454
f 471 454 472
f 472 454 453
f 472 453 452
f 472 452 451
f 472 451 473
f 473 451 450
f 473 450 449
f 491 492 493
f 492 491 494
f 492 494 495
f 495 494 496
f 495 496 497
f 497 496 498
f 497 498 499
f 499 498 500
f 499 500 501
f 499 501 502
f 502 501 503
f 503 501 504
f 504 501 505
f 504 505 506
f 506 505 507
f 507 505 508
f 507 508 509
f 509 508 510
f 510 508 511
f 511 508 512
f 511 512 513
f 513 512 514
f 514 512 515
f 514 515 516
f 516 515 517
f 502 518 519
f 518 502 520
f 520 502 521
f 521 502 503
f 519 518 522
f 519 522 523
f 519 523 524
f 519 524 525
f 525 524 526
f 525 526 527
f 525 527 528
f 525 528 529
f 529 528 530
f 529 530 517
f 529 517 515
f 529 515 531
f 529 531 532
f 532 531 533
f 532 533 534
f 534 533 535
f 534 535 536
f 536 535 537
f 536 537 538
f 538 537 539
f 538 539 540
f 540 539 541
f 542 543 544
f 543 542 545
f 545 542 546
f 546 542 547
f 546 547 548
f 548 547 549
f 549 547 550
f 550 547 551
f 550 551 552
f 552 551 553
f 553 551 554
f 554 551 555
f 554 555 556
f 556 555 557
f 557 555 558
f 558 555 559
f 559 555 560
f 559 560 561
f 561 560 562
f 561 562 563
f 563 562 564
f 563 564 565
f 565 564 566
f 565 566 567
f 567 566 568
f 567 568 569
f 570 571 572
f 571 570 573
f 573 570 574
f 573 574 575
f 575 574 576
f 575 576 577
f 577 576 578
f 577 578 579
f 579 578 580
f 580 578 542
f 580 542 544
f 580 544 581
f 580 581 582
f 582 581 583
f 582 583 584
f 582 584 585
f 585 584 586
f 585 586 587
f 585 587 588
f 585 588 589
f 589 588 590
f 589 590 591
f 589 591 558
f 558 591 592
f 558 592 557
f 571 493 572
f 493 571 491
f 573 491 571
f 491 573 494
f 575 494 573
f 494 575 496
f 575 498 496
f 498 575 577
f 579 498 577
f 498 579 500
f 500 580 501
f 580 500 579
f 580 505 501
f 505 580 582
f 582 508 505
f 508 582 585
f 508 589 512
f 589 508 585
f 589 515 512
f 515 589 558
f 515 559 531
f 559 515 558
f 531 561 533
f 561 531 559
f 535 561 563
f 561 535 533
f 535 565 537
f 565 535 563
f 537 567 539
f 567 537 565
f 539 569 541
f 569 539 567
f 541 568 540
f 568 541 569
f 540 566 538
f 566 540 568
f 538 564 536
f 564 538 566
f 536 562 534
f 562 536 564
f 534 560 532
f 560 534 562
f 532 555 529
f 555 532 560
f 555 525 529
f 525 555 551
f 551 519 525
f 519 551 547
f 547 502 519
f 502 547 542
f 502 578 499
f 578 502 542
f 578 497 499
f 497 578 576
f 576 495 497
f 495 576 574
f 570 495 574
f 495 570 492
f 572 492 570
f 492 572 493
f 503 543 521
f 543 503 544
f 521 545 520
f 545 521 543
f 520 546 518
f 546 520 545
f 518 548 522
f 548 518 546
f 548 523 522
f 523 548 549
f 549 524 523
f 524 549 550
f 524 552 526
f 552 524 550
f 552 527 526
f 527 552 553
f 554 527 553
f 527 554 528
f 556 528 554
f 528 556 530
f 557 530 556
f 530 557 517
f 592 517 557
f 517 592 516
f 591 516 592
f 516 591 514
f 590 514 591
f 514 590 513
f 590 511 513
f 511 590 588
f 511 587 510
f 587 511 588
f 587 509 510
f 509 587 586
f 586 507 509
f 507 586 584
f 507 583 506
f 583 507 584
f 506 581 504
f 581 506 583
f 504 544 503
f 544 504 581

