# https://github.com/mikedh/trimesh

o c_chest_leven_dec1
v 0.03789498 -0.04815964 0.06059866
v 0.03730710 0.04835564 0.06118954
v 0.03730710 -0.04834597 0.06118954
v 0.03789498 0.04816931 0.06059866
v 0.03779596 -0.04884596 0.06057870
v 0.04708621 -0.03836315 0.00665980
v 0.04672070 -0.03921757 0.00641412
v 0.04672070 -0.03858833 0.00582370
v 0.04663526 -0.04005754 0.05510030
v 0.04615813 0.04036884 0.05576390
v 0.04615813 -0.04035916 0.05576390
v 0.04663526 0.04006721 0.05510030
v 0.04628142 -0.04091614 0.05520529
v 0.03281983 -0.04834597 0.06200852
v 0.02996570 -0.04884596 0.06150852
v 0.03282876 -0.04884596 0.06150852
v 0.03000838 -0.04834597 0.06200852
v 0.03084800 0.04885564 0.05830830
v 0.03671961 0.04885564 -0.00266713
v 0.03320416 0.04885564 -0.00266713
v 0.03831920 0.04885564 0.05796373
v 0.03779596 0.04885564 0.06057870
v 0.02996570 0.04885564 0.05880830
v 0.02996570 0.04885564 0.06150852
v 0.03282876 0.04885564 0.06150852
v 0.03034763 0.04824163 0.05830830
v 0.03831920 0.04816931 0.05847858
v 0.04628142 0.04092581 0.05520529
v 0.04672070 0.03922724 0.00641412
v 0.04708621 0.03837282 0.00665980
v 0.03000838 0.04835564 0.06200852
v 0.03281983 0.04835564 0.06200852
v 0.03831920 -0.04884596 0.05796373
v 0.03320416 -0.04884596 -0.00266713
v 0.03671961 -0.04884596 -0.00266713
v 0.03084800 -0.04884596 0.05830830
v 0.02996570 -0.04884596 0.05880830
v 0.03670378 -0.04823196 -0.00327192
v 0.03034763 -0.04823196 0.05830830
v 0.04672070 0.03859800 0.00582370
v 0.03670378 0.04824163 -0.00327192
v 0.03320378 0.04824163 -0.00327192
v 0.03380960 0.04827524 0.06190792
v 0.03269216 0.04824163 -0.00266757
v 0.03320378 -0.04823196 -0.00327192
v 0.03831920 -0.04815964 0.05847858
v 0.03380960 -0.04826557 0.06190792
v 0.03269216 -0.04823196 -0.00266757
v -0.02554849 -0.03929981 0.06150852
v -0.02554849 -0.03879248 0.06200852
v -0.02554849 0.03930950 0.06150852
v -0.02554849 0.03880216 0.06200852
v 0.03000838 0.04835564 0.05830830
v -0.02554849 0.02767744 0.05830830
v -0.02554849 0.03880216 0.05830830
v -0.00578644 0.01885564 0.05830830
v -0.00578644 -0.01885677 0.05830830
v 0.00851980 0.00449999 0.05830830
v 0.00762069 0.00232936 0.05830830
v 0.00731403 -0.00000001 0.05830830
v 0.00995007 0.00636395 0.05830830
v 0.01181403 0.00779422 0.05830830
v 0.01398466 0.00869332 0.05830830
v 0.01631403 0.00899999 0.05830830
v 0.01864340 0.00869332 0.05830830
v 0.02081403 0.00779422 0.05830830
v 0.02267799 0.00636395 0.05830830
v 0.02410826 0.00449999 0.05830830
v 0.02500736 0.00232936 0.05830830
v 0.02531403 -0.00000001 0.05830830
v -0.02554849 -0.03879248 0.05830830
v -0.02554849 -0.02767857 0.05830830
v 0.03000838 -0.04834597 0.05830830
v 0.00851980 -0.00450001 0.05830830
v 0.00762069 -0.00232938 0.05830830
v 0.00995007 -0.00636397 0.05830830
v 0.01181403 -0.00779424 0.05830830
v 0.01398466 -0.00869334 0.05830830
v 0.01631403 -0.00900001 0.05830830
v 0.01864340 -0.00869334 0.05830830
v 0.02081403 -0.00779424 0.05830830
v 0.02267799 -0.00636397 0.05830830
v 0.02410826 -0.00450001 0.05830830
v 0.02500736 -0.00232938 0.05830830
v -0.02554849 0.03930950 0.05880830
v -0.02554849 -0.03929981 0.05880830
v -0.00578644 0.01885564 0.06200852
v -0.00578644 -0.01885677 0.06200852
v -0.02554849 0.02767744 0.06200852
v -0.02554849 -0.02767857 0.06200852
v 0.01631403 -0.00900001 0.06200852
v 0.01398466 -0.00869334 0.06200852
v 0.01864340 -0.00869334 0.06200852
v 0.02081403 -0.00779424 0.06200852
v 0.02267799 -0.00636397 0.06200852
v 0.02410826 -0.00450001 0.06200852
v 0.02500736 -0.00232938 0.06200852
v 0.02531403 -0.00000001 0.06200852
v 0.02500736 0.00232936 0.06200852
v 0.02410826 0.00449999 0.06200852
v 0.02267799 0.00636395 0.06200852
v 0.02081403 0.00779422 0.06200852
v 0.01864340 0.00869332 0.06200852
v 0.01631403 0.00899999 0.06200852
v 0.01398466 0.00869332 0.06200852
v 0.01181403 0.00779422 0.06200852
v 0.00995007 0.00636395 0.06200852
v 0.00851980 0.00449999 0.06200852
v 0.00762069 0.00232936 0.06200852
v 0.00731403 -0.00000001 0.06200852
v 0.00762069 -0.00232938 0.06200852
v 0.00851980 -0.00450001 0.06200852
v 0.00995007 -0.00636397 0.06200852
v 0.01181403 -0.00779424 0.06200852
v -0.05552414 -0.03379455 0.01878182
v -0.05552419 -0.03379458 0.01176046
v -0.05145553 -0.04174131 0.01086119
v -0.05497992 -0.03266338 0.01086156
v -0.05045561 0.04496469 0.06905778
v -0.04013519 0.04371341 0.07111109
v -0.03813519 0.04496469 0.06905778
v -0.04889599 0.04371341 0.07111024
v -0.05813519 0.02996505 0.06255825
v -0.05139082 0.04313808 0.01207205
v -0.05813519 0.02996505 0.02520172
v -0.05045553 0.04496499 0.01386481
v -0.04013520 0.04396506 0.01085910
v -0.04813519 0.04246505 0.01086124
v -0.04894613 0.04396529 0.01086080
v -0.04013520 0.04246501 0.01085855
v -0.05145552 0.04167140 0.01086119
v -0.05497992 0.01996505 0.01086140
v -0.05497992 0.03259325 0.01086147
v -0.04813519 0.01996505 0.01086235
v -0.05126611 0.04241106 0.01086118
v -0.05552420 0.03372448 0.01878195
v -0.05813519 0.02862473 0.02386490
v -0.03913480 0.04496502 0.01185895
v -0.04845553 0.04496494 0.01186304
v -0.03813520 0.04496511 0.01285825
v -0.03813520 -0.04503501 0.01285825
v -0.04845553 -0.04503487 0.01186304
v -0.03913480 -0.04503492 0.01185895
v -0.05045553 -0.04503481 0.01386481
v -0.03813519 -0.04503459 0.06905778
v -0.05045561 -0.04503459 0.06905778
v -0.05813519 -0.03003496 0.02520172
v -0.05126611 -0.04248100 0.01086118
v -0.05139082 -0.04320801 0.01207205
v -0.05813519 -0.02869463 0.02386490
v -0.05597992 0.01996505 0.01186119
v -0.04813519 0.01996501 0.01315834
v -0.05213519 0.01996501 0.01315843
v -0.05597991 0.01996505 0.01966914
v -0.05213519 0.01996505 0.01386490
v -0.05466696 0.01996505 0.02019432
v -0.05813519 -0.03003495 0.06255825
v -0.05189517 -0.04014844 0.07111124
v -0.05747415 -0.03003489 0.06515353
v -0.05813519 -0.02290098 0.02936490
v -0.05613519 -0.02274206 0.02915779
v -0.05813519 -0.02274206 0.02915779
v -0.05613519 -0.02290098 0.02936490
v -0.05613519 -0.03003495 0.02386490
v -0.05213519 -0.04033495 0.06755825
v -0.05213519 -0.04033495 0.01386490
v -0.05613519 -0.03003495 0.06255825
v -0.05813519 -0.02300088 0.03012372
v -0.05613519 -0.02303495 0.02986490
v -0.05813519 -0.02303495 0.02986490
v -0.05613519 -0.02300088 0.03012372
v -0.05613519 -0.00906902 0.03512372
v -0.05813519 -0.00903495 0.03486490
v -0.05613519 -0.00903495 0.03486490
v -0.05813519 -0.00906902 0.03512372
v -0.05613519 -0.00932784 0.03057200
v -0.05813519 -0.00953495 0.03073092
v -0.05813519 -0.00932784 0.03057200
v -0.05613519 -0.00953495 0.03073092
v -0.05613519 -0.00916892 0.03536490
v -0.05813519 -0.00916892 0.03536490
v -0.05813519 -0.02300088 0.03512372
v -0.05613519 -0.02303495 0.03486490
v -0.05813519 -0.02303495 0.03486490
v -0.05613519 -0.02300088 0.03512372
v -0.05613519 -0.02203495 0.03386490
v -0.05813519 -0.01003495 0.03386490
v -0.05813519 -0.02203495 0.03386490
v -0.05613519 -0.01003495 0.03386490
v -0.05813519 -0.00977613 0.03083082
v -0.05613519 -0.00977613 0.03083082
v -0.05813519 -0.00916892 0.03036490
v -0.05613519 -0.00916892 0.03036490
v -0.05813519 -0.02274206 0.03057200
v -0.05613519 -0.02290098 0.03036490
v -0.05813519 -0.02290098 0.03036490
v -0.05613519 -0.02274206 0.03057200
v -0.05613519 -0.02300088 0.03460608
v -0.05813519 -0.02300088 0.03460608
v -0.05613519 -0.00932784 0.04557200
v -0.05813519 -0.00953495 0.04573092
v -0.05813519 -0.00932784 0.04557200
v -0.05613519 -0.00953495 0.04573092
v -0.05813519 -0.00916892 0.04536490
v -0.05613519 -0.00916892 0.04536490
v -0.05597992 0.03183436 0.01966914
v -0.05597992 0.03183436 0.01186119
v -0.04813519 -0.02003495 0.01086235
v -0.05497992 -0.02003495 0.01086171
v -0.04894613 -0.04403522 0.01086080
v -0.04813519 -0.04253495 0.01086124
v -0.04013520 -0.04403496 0.01085910
v -0.04013520 -0.04253491 0.01085855
v -0.05597977 -0.02003495 0.01966905
v -0.05597987 -0.03190440 0.01186119
v -0.05597982 -0.03190440 0.01966903
v -0.05597992 -0.02003495 0.01186119
v -0.05813519 -0.02300088 0.04512372
v -0.05813519 -0.02290098 0.04536490
v -0.05813519 -0.02274206 0.04557200
v -0.05813519 -0.02253495 0.04573092
v -0.05813519 -0.02229377 0.04583082
v -0.05813519 -0.02303495 0.04486490
v -0.05813519 -0.02203495 0.04586490
v -0.05813519 -0.01003495 0.04586490
v -0.05813519 -0.00977613 0.04583082
v -0.05813519 -0.00906902 0.04512372
v -0.05813519 -0.00903495 0.04486490
v -0.05813519 -0.00903495 0.03986490
v -0.05813519 0.00925794 0.04557200
v -0.05813519 -0.00903495 0.02986490
v -0.05813519 0.00909902 0.04536490
v -0.05813519 0.00899912 0.04512372
v -0.05813519 0.00896505 0.04486490
v -0.05813519 0.00946505 0.04573092
v -0.05813519 0.00970623 0.04583082
v -0.05813519 0.00996505 0.04586490
v -0.05813519 0.02196505 0.04586490
v -0.05813519 0.02222387 0.04583082
v -0.05813519 0.02246505 0.04573092
v -0.05813519 0.02267216 0.04557200
v -0.05813519 0.02283108 0.04536490
v -0.05813519 0.02293098 0.04512372
v -0.05813519 0.02296505 0.04486490
v -0.05813519 0.02296505 0.03986490
v -0.05813519 0.02296505 0.03486490
v -0.05813519 0.02296505 0.02986490
v -0.05813519 -0.02203495 0.02886490
v -0.05813519 -0.02229377 0.02889897
v -0.05813519 -0.02253495 0.02899887
v -0.05813519 -0.02300088 0.02960608
v -0.05813519 -0.02303495 0.03986490
v -0.05813519 -0.01003495 0.02886490
v -0.05813519 -0.00977613 0.02889897
v -0.05813519 -0.00953495 0.02899887
v -0.05813519 -0.00932784 0.02915779
v -0.05813519 -0.00916892 0.02936490
v -0.05813519 -0.00906902 0.02960608
v -0.05813519 0.00970623 0.02889897
v -0.05813519 0.00946505 0.02899887
v -0.05813519 0.00925794 0.02915779
v -0.05813519 0.00909902 0.02936490
v -0.05813519 0.00899912 0.02960608
v -0.05813519 0.00896505 0.02986490
v -0.05813519 0.00896505 0.03986490
v -0.05813519 0.00896505 0.03486490
v -0.05813519 0.00996505 0.02886490
v -0.05813519 0.02196505 0.02886490
v -0.05813519 0.02222387 0.02889897
v -0.05813519 0.02246505 0.02899887
v -0.05813519 0.02267216 0.02915779
v -0.05813519 0.02283108 0.02936490
v -0.05813519 0.02293098 0.02960608
v -0.05813519 0.00899912 0.03460608
v -0.05813519 0.00899912 0.03012372
v -0.05813519 0.00909902 0.03436490
v -0.05813519 0.00909902 0.03036490
v -0.05813519 0.00925794 0.03415779
v -0.05813519 0.00925794 0.03057200
v -0.05813519 0.00946505 0.03399887
v -0.05813519 0.00946505 0.03073092
v -0.05813519 0.00970623 0.03389897
v -0.05813519 0.00970623 0.03083082
v -0.05813519 0.00996505 0.03386490
v -0.05813519 0.00996505 0.03086490
v -0.05813519 0.02196505 0.03386490
v -0.05813519 0.02196505 0.03086490
v -0.05813519 0.02222387 0.03389897
v -0.05813519 0.02222387 0.03083082
v -0.05813519 0.02246505 0.03399887
v -0.05813519 0.02246505 0.03073092
v -0.05813519 0.02267216 0.03415779
v -0.05813519 0.02267216 0.03057200
v -0.05813519 0.02283108 0.03436490
v -0.05813519 0.02283108 0.03036490
v -0.05813519 0.02293098 0.03460608
v -0.05813519 0.02293098 0.03012372
v -0.05813519 0.00899912 0.03960608
v -0.05813519 0.00899912 0.03512372
v -0.05813519 0.00909902 0.03936490
v -0.05813519 0.00909902 0.03536490
v -0.05813519 0.00925794 0.03915779
v -0.05813519 0.00925794 0.03557200
v -0.05813519 0.00946505 0.03899887
v -0.05813519 0.00946505 0.03573092
v -0.05813519 0.00970623 0.03889897
v -0.05813519 0.00970623 0.03583082
v -0.05813519 0.00996505 0.03886490
v -0.05813519 0.00996505 0.03586490
v -0.05813519 0.02196505 0.03886490
v -0.05813519 0.02196505 0.03586490
v -0.05813519 0.02222387 0.03889897
v -0.05813519 0.02222387 0.03583082
v -0.05813519 0.02246505 0.03899887
v -0.05813519 0.02246505 0.03573092
v -0.05813519 0.02267216 0.03915779
v -0.05813519 0.02267216 0.03557200
v -0.05813519 0.02283108 0.03936490
v -0.05813519 0.02283108 0.03536490
v -0.05813519 0.02293098 0.03960608
v -0.05813519 0.02293098 0.03512372
v -0.05813519 0.00899912 0.04460608
v -0.05813519 0.00899912 0.04012372
v -0.05813519 0.00909902 0.04436490
v -0.05813519 0.00909902 0.04036490
v -0.05813519 0.00925794 0.04415779
v -0.05813519 0.00925794 0.04057200
v -0.05813519 0.00946505 0.04399887
v -0.05813519 0.00946505 0.04073092
v -0.05813519 0.00970623 0.04389897
v -0.05813519 0.00970623 0.04083082
v -0.05813519 0.00996505 0.04386490
v -0.05813519 0.00996505 0.04086490
v -0.05813519 0.02196505 0.04386490
v -0.05813519 0.02196505 0.04086490
v -0.05813519 0.02222387 0.04389897
v -0.05813519 0.02222387 0.04083082
v -0.05813519 0.02246505 0.04399887
v -0.05813519 0.02246505 0.04073092
v -0.05813519 0.02267216 0.04415779
v -0.05813519 0.02267216 0.04057200
v -0.05813519 0.02283108 0.04436490
v -0.05813519 0.02283108 0.04036490
v -0.05813519 0.02293098 0.04460608
v -0.05813519 0.02293098 0.04012372
v -0.05813519 -0.02290098 0.03436490
v -0.05813519 -0.02274206 0.03415779
v -0.05813519 -0.02253495 0.03399887
v -0.05813519 -0.02253495 0.03073092
v -0.05813519 -0.02229377 0.03389897
v -0.05813519 -0.02229377 0.03083082
v -0.05813519 -0.02203495 0.03086490
v -0.05813519 -0.01003495 0.03086490
v -0.05813519 -0.00977613 0.03389897
v -0.05813519 -0.00953495 0.03399887
v -0.05813519 -0.00932784 0.03415779
v -0.05813519 -0.00916892 0.03436490
v -0.05813519 -0.00906902 0.03012372
v -0.05813519 -0.00906902 0.03460608
v -0.05813519 -0.02300088 0.03960608
v -0.05813519 -0.02290098 0.03936490
v -0.05813519 -0.02290098 0.03536490
v -0.05813519 -0.02274206 0.03915779
v -0.05813519 -0.02274206 0.03557200
v -0.05813519 -0.02253495 0.03899887
v -0.05813519 -0.02253495 0.03573092
v -0.05813519 -0.02229377 0.03889897
v -0.05813519 -0.02229377 0.03583082
v -0.05813519 -0.02203495 0.03886490
v -0.05813519 -0.02203495 0.03586490
v -0.05813519 -0.01003495 0.03886490
v -0.05813519 -0.01003495 0.03586490
v -0.05813519 -0.00977613 0.03889897
v -0.05813519 -0.00977613 0.03583082
v -0.05813519 -0.00953495 0.03899887
v -0.05813519 -0.00953495 0.03573092
v -0.05813519 -0.00932784 0.03915779
v -0.05813519 -0.00932784 0.03557200
v -0.05813519 -0.00916892 0.03936490
v -0.05813519 -0.00906902 0.03960608
v -0.05813519 -0.02300088 0.04460608
v -0.05813519 -0.02300088 0.04012372
v -0.05813519 -0.02290098 0.04436490
v -0.05813519 -0.02290098 0.04036490
v -0.05813519 -0.02274206 0.04415779
v -0.05813519 -0.02274206 0.04057200
v -0.05813519 -0.02253495 0.04399887
v -0.05813519 -0.02253495 0.04073092
v -0.05813519 -0.02229377 0.04389897
v -0.05813519 -0.02229377 0.04083082
v -0.05813519 -0.02203495 0.04386490
v -0.05813519 -0.02203495 0.04086490
v -0.05813519 -0.01003495 0.04386490
v -0.05813519 -0.01003495 0.04086490
v -0.05813519 -0.00977613 0.04389897
v -0.05813519 -0.00977613 0.04083082
v -0.05813519 -0.00953495 0.04399887
v -0.05813519 -0.00953495 0.04073092
v -0.05813519 -0.00932784 0.04415779
v -0.05813519 -0.00932784 0.04057200
v -0.05813519 -0.00916892 0.04436490
v -0.05813519 -0.00916892 0.04036490
v -0.05813519 -0.00906902 0.04012372
v -0.05813519 -0.00906902 0.04460608
v -0.05613519 -0.02229377 0.03389897
v -0.05613519 -0.02300088 0.02960608
v -0.05613519 -0.00953495 0.02899887
v -0.05613519 -0.00932784 0.02915779
v -0.03813520 -0.04253490 0.01285825
v -0.05552420 0.03372448 0.01176046
v -0.04013519 -0.04378331 0.07111109
v -0.04889513 -0.04378331 0.07111138
v -0.05189595 0.04005408 0.07111198
v -0.05747414 0.02996505 0.06515351
v -0.05213519 0.04026505 0.01315825
v -0.05213519 0.04026505 0.01386490
v -0.05213519 -0.02003491 0.01315843
v -0.05213519 -0.02003493 0.01348635
v -0.05213519 -0.04033495 0.01315825
v -0.05213519 -0.02003492 0.01386490
v -0.05613519 0.02996505 0.06255825
v -0.05613519 0.02996505 0.02386490
v -0.05213519 0.04026505 0.06755825
v -0.05613519 0.02293098 0.03012372
v -0.05613519 0.02296505 0.02986490
v -0.05613519 0.02293098 0.02960608
v -0.05613519 0.02283108 0.02936490
v -0.05613519 0.02267216 0.02915779
v -0.05613519 0.02246505 0.02899887
v -0.05613519 0.02222387 0.02889897
v -0.05613519 0.00970623 0.03083082
v -0.05613519 0.00946505 0.03073092
v -0.05613519 0.00909902 0.03036490
v -0.05613519 0.00925794 0.03057200
v -0.05613519 0.02296505 0.03486490
v -0.05613519 0.02293098 0.03460608
v -0.04813519 0.04026505 0.01315825
v -0.04813519 0.04026505 0.06855825
v -0.05213519 0.04026505 0.06855825
v -0.05613519 0.00899912 0.03012372
v -0.05613519 0.00996505 0.03386490
v -0.05613519 0.02196505 0.03386490
v -0.05613519 0.02267216 0.03057200
v -0.05613519 0.02283108 0.03036490
v -0.05613519 0.02222387 0.03389897
v -0.05613519 0.02293098 0.03512372
v -0.05613519 0.02246505 0.03073092
v -0.05613519 0.02246505 0.03399887
v -0.05613519 0.00896505 0.03486490
v -0.05613519 0.00899912 0.03512372
v -0.05613519 0.00909902 0.03536490
v -0.05613519 0.00996505 0.02886490
v -0.05613519 0.02196505 0.02886490
v -0.05613519 0.00925794 0.02915779
v -0.05613519 0.00946505 0.02899887
v -0.05613519 0.00909902 0.02936490
v -0.05613519 0.00899912 0.02960608
v -0.05613519 0.00925794 0.03415779
v -0.05613519 0.00946505 0.03399887
v -0.05613519 0.02222387 0.03083082
v -0.05613519 0.02267216 0.03415779
v -0.05613519 0.02196505 0.03086490
v -0.05613519 0.02283108 0.03436490
v -0.05613519 0.00996505 0.03086490
v -0.05613519 0.00899912 0.03460608
v -0.05613519 0.00970623 0.03389897
v -0.05613519 0.00909902 0.03436490
v -0.05613519 0.00970623 0.02889897
v -0.05613519 0.00925794 0.03557200
v -0.05613519 0.00896505 0.02986490
v -0.05613519 0.00946505 0.03573092
v -0.05466696 -0.02003495 0.02019432
v -0.04813519 -0.02003496 0.01117561
v -0.04813519 -0.02003499 0.01315834
v -0.05192532 -0.02003493 0.01315843
v -0.05613519 -0.02253495 0.03399887
v -0.05613519 -0.00906902 0.03012372
v -0.05613519 -0.02229377 0.03083082
v -0.05613519 -0.02253495 0.03073092
v -0.05613519 -0.00916892 0.02936490
v -0.05613519 -0.00953495 0.03399887
v -0.05613519 -0.00932784 0.03415779
v -0.05613519 -0.00906902 0.02960608
v -0.05613519 -0.00977613 0.03389897
v -0.05613519 -0.02290098 0.03436490
v -0.05613519 -0.00932784 0.03557200
v -0.05613519 -0.00903495 0.02986490
v -0.05613519 -0.01003495 0.03086490
v -0.05613519 -0.00906902 0.03460608
v -0.05613519 -0.00916892 0.03436490
v -0.05613519 -0.01003495 0.02886490
v -0.05613519 -0.00977613 0.02889897
v -0.05613519 -0.00953495 0.03573092
v -0.05613519 -0.02229377 0.02889897
v -0.05613519 -0.02203495 0.02886490
v -0.05613519 -0.00906902 0.04512372
v -0.05613519 -0.00903495 0.04486490
v -0.05613519 -0.00906902 0.04460608
v -0.05613519 -0.00916892 0.04436490
v -0.05613519 -0.00932784 0.04415779
v -0.05613519 -0.00953495 0.04399887
v -0.05613519 -0.00977613 0.04389897
v -0.05613519 -0.01003495 0.04386490
v -0.05613519 -0.02203495 0.04386490
v -0.05613519 -0.02229377 0.04389897
v -0.05613519 -0.02253495 0.04399887
v -0.05613519 -0.00977613 0.04583082
v -0.05613519 -0.02203495 0.03586490
v -0.05613519 -0.02229377 0.03583082
v -0.05613519 -0.01003495 0.03586490
v -0.05613519 -0.00977613 0.03889897
v -0.05613519 -0.00953495 0.03899887
v -0.05613519 -0.00932784 0.03915779
v -0.05613519 -0.00977613 0.03583082
v -0.05613519 -0.02253495 0.03899887
v -0.05613519 -0.02229377 0.03889897
v -0.05613519 -0.02203495 0.03886490
v -0.05613519 -0.02274206 0.03915779
v -0.05613519 -0.01003495 0.03886490
v -0.05613519 -0.02290098 0.03936490
v -0.05613519 -0.02300088 0.03960608
v -0.05613519 -0.00932784 0.04057200
v -0.05613519 -0.00916892 0.04036490
v -0.05613519 -0.02303495 0.03986490
v -0.05613519 -0.00916892 0.03936490
v -0.05613519 -0.02300088 0.04012372
v -0.05613519 -0.00953495 0.04073092
v -0.05613519 -0.02290098 0.04036490
v -0.05613519 -0.02274206 0.04057200
v -0.05613519 -0.02253495 0.04073092
v -0.05613519 -0.00977613 0.04083082
v -0.05613519 -0.02229377 0.04083082
v -0.05613519 -0.00906902 0.04012372
v -0.05613519 -0.02203495 0.04086490
v -0.05613519 -0.00906902 0.03960608
v -0.05613519 -0.00903495 0.03986490
v -0.05613519 -0.01003495 0.04086490
v -0.05613519 -0.02203495 0.03086490
v -0.05613519 -0.02274206 0.03415779
v -0.05613519 -0.02253495 0.02899887
v -0.05613519 0.02296505 0.03986490
v -0.05613519 0.02296505 0.04486490
v -0.05613519 -0.02229377 0.04583082
v -0.05613519 -0.02253495 0.04573092
v -0.05613519 -0.02274206 0.04557200
v -0.05613519 -0.02290098 0.04536490
v -0.05613519 -0.02300088 0.04512372
v -0.05613519 -0.02303495 0.04486490
v -0.05613519 -0.02203495 0.04586490
v -0.05613519 -0.01003495 0.04586490
v -0.05613519 0.00925794 0.04557200
v -0.05613519 0.00909902 0.04536490
v -0.05613519 0.00899912 0.04512372
v -0.05613519 0.00896505 0.04486490
v -0.05613519 0.00896505 0.03986490
v -0.05613519 0.00946505 0.04573092
v -0.05613519 0.00970623 0.04583082
v -0.05613519 0.00996505 0.04586490
v -0.05613519 0.02196505 0.04586490
v -0.05613519 0.02222387 0.04583082
v -0.05613519 0.02246505 0.04573092
v -0.05613519 0.02267216 0.04557200
v -0.05613519 0.02283108 0.04536490
v -0.05613519 0.02293098 0.04512372
v -0.05613519 0.00899912 0.04012372
v -0.05613519 0.00899912 0.04460608
v -0.05613519 0.00909902 0.04036490
v -0.05613519 0.00909902 0.04436490
v -0.05613519 0.00925794 0.04415779
v -0.05613519 0.00925794 0.04057200
v -0.05613519 0.00946505 0.04073092
v -0.05613519 0.00946505 0.04399887
v -0.05613519 0.00970623 0.04083082
v -0.05613519 0.00970623 0.04389897
v -0.05613519 0.00996505 0.04086490
v -0.05613519 0.00996505 0.04386490
v -0.05613519 0.02196505 0.04086490
v -0.05613519 0.02196505 0.04386490
v -0.05613519 0.02222387 0.04083082
v -0.05613519 0.02222387 0.04389897
v -0.05613519 0.02246505 0.04073092
v -0.05613519 0.02246505 0.04399887
v -0.05613519 0.02267216 0.04057200
v -0.05613519 0.02267216 0.04415779
v -0.05613519 0.02283108 0.04036490
v -0.05613519 0.02283108 0.04436490
v -0.05613519 0.02293098 0.04012372
v -0.05613519 0.02293098 0.04460608
v -0.05613519 0.00899912 0.03960608
v -0.05613519 0.00909902 0.03936490
v -0.05613519 0.00925794 0.03915779
v -0.05613519 0.00946505 0.03899887
v -0.05613519 0.00970623 0.03583082
v -0.05613519 0.00970623 0.03889897
v -0.05613519 0.00996505 0.03586490
v -0.05613519 0.00996505 0.03886490
v -0.05613519 0.02196505 0.03586490
v -0.05613519 0.02196505 0.03886490
v -0.05613519 0.02222387 0.03583082
v -0.05613519 0.02222387 0.03889897
v -0.05613519 0.02246505 0.03573092
v -0.05613519 0.02246505 0.03899887
v -0.05613519 0.02267216 0.03557200
v -0.05613519 0.02267216 0.03915779
v -0.05613519 0.02283108 0.03536490
v -0.05613519 0.02283108 0.03936490
v -0.05613519 0.02293098 0.03960608
v -0.05613519 -0.02300088 0.04460608
v -0.05613519 -0.02290098 0.04436490
v -0.05613519 -0.02274206 0.04415779
v -0.05613519 -0.02290098 0.03536490
v -0.05613519 -0.02274206 0.03557200
v -0.05613519 -0.02253495 0.03573092
v -0.04813519 -0.04033495 0.01315825
v -0.03813520 0.04246500 0.01285825
v -0.03813519 0.04246497 0.06905778
v -0.04013519 0.04246498 0.07111082
v -0.04813519 0.04246505 0.07111055
v -0.05213519 -0.04033495 0.06855825
v -0.04813519 -0.04033495 0.06855825
v -0.03813519 -0.04253487 0.06905778
v -0.04813519 -0.04253495 0.07111055
v -0.04013519 -0.04253488 0.07111082
f 1 2 3
f 2 1 4
f 1 3 5
f 6 7 8
f 9 10 11
f 10 9 12
f 7 9 13
f 14 15 16
f 15 14 17
f 18 19 20
f 19 18 21
f 21 18 22
f 22 18 23
f 22 23 24
f 22 24 25
f 18 26 23
f 27 22 4
f 22 27 21
f 28 12 29
f 12 30 29
f 31 25 24
f 25 31 32
f 6 9 7
f 33 34 35
f 34 33 36
f 36 33 5
f 36 5 37
f 37 5 15
f 15 5 16
f 38 7 35
f 7 38 8
f 36 37 39
f 25 2 22
f 40 38 41
f 38 40 8
f 27 10 28
f 22 2 4
f 20 41 42
f 41 20 19
f 43 25 32
f 25 43 2
f 29 30 40
f 21 27 28
f 20 42 44
f 21 29 19
f 29 21 28
f 41 45 42
f 45 41 38
f 41 29 40
f 29 41 19
f 28 10 12
f 33 1 5
f 1 33 46
f 7 33 35
f 33 7 13
f 11 27 46
f 27 11 10
f 6 12 9
f 12 6 30
f 16 47 14
f 47 16 3
f 11 46 13
f 38 34 45
f 34 38 35
f 40 6 8
f 6 40 30
f 16 5 3
f 13 46 33
f 46 4 1
f 4 46 27
f 45 34 48
f 9 11 13
f 49 17 50
f 17 49 15
f 31 51 52
f 51 31 24
f 44 45 48
f 45 44 42
f 18 44 26
f 44 18 20
f 26 48 39
f 48 26 44
f 39 34 36
f 34 39 48
f 53 54 55
f 54 53 56
f 56 53 57
f 57 53 58
f 57 58 59
f 57 59 60
f 58 53 61
f 61 53 62
f 62 53 63
f 63 53 64
f 64 53 65
f 65 53 66
f 66 53 67
f 67 53 68
f 68 53 69
f 69 53 70
f 57 71 72
f 71 57 73
f 73 57 74
f 74 57 75
f 75 57 60
f 73 74 76
f 73 76 77
f 73 77 78
f 73 78 79
f 73 79 80
f 73 80 81
f 73 81 82
f 73 82 83
f 73 83 84
f 73 84 70
f 73 70 53
f 26 73 53
f 73 26 39
f 23 26 53
f 37 73 39
f 51 23 85
f 23 51 24
f 15 86 37
f 86 15 49
f 87 57 88
f 57 87 56
f 56 89 54
f 89 56 87
f 90 57 72
f 57 90 88
f 23 55 85
f 55 23 53
f 52 54 89
f 54 52 55
f 55 52 51
f 55 51 85
f 73 86 71
f 86 73 37
f 50 86 49
f 86 50 71
f 71 50 90
f 71 90 72
f 78 91 79
f 91 78 92
f 91 80 79
f 80 91 93
f 93 81 80
f 81 93 94
f 94 82 81
f 82 94 95
f 96 82 95
f 82 96 83
f 97 83 96
f 83 97 84
f 98 84 97
f 84 98 70
f 99 70 98
f 70 99 69
f 100 69 99
f 69 100 68
f 101 68 100
f 68 101 67
f 101 66 67
f 66 101 102
f 102 65 66
f 65 102 103
f 103 64 65
f 64 103 104
f 64 105 63
f 105 64 104
f 63 106 62
f 106 63 105
f 62 107 61
f 107 62 106
f 58 107 108
f 107 58 61
f 59 108 109
f 108 59 58
f 60 109 110
f 109 60 59
f 75 110 111
f 110 75 60
f 74 111 112
f 111 74 75
f 76 112 113
f 112 76 74
f 76 114 77
f 114 76 113
f 77 92 78
f 92 77 114
f 17 90 50
f 90 17 88
f 88 17 87
f 87 17 112
f 87 112 111
f 87 111 110
f 112 17 113
f 113 17 114
f 114 17 92
f 92 17 91
f 91 17 93
f 93 17 94
f 94 17 95
f 95 17 96
f 96 17 97
f 97 17 98
f 89 31 52
f 31 89 87
f 31 87 108
f 108 87 109
f 109 87 110
f 31 108 107
f 31 107 106
f 31 106 105
f 31 105 104
f 31 104 103
f 31 103 102
f 31 102 101
f 31 101 100
f 31 100 99
f 31 99 98
f 31 98 17
f 31 17 14
f 31 14 32
f 3 43 47
f 43 3 2
f 47 32 14
f 32 47 43
f 115 116 117
f 117 116 118
f 119 120 121
f 120 119 122
f 123 124 125
f 124 123 119
f 124 119 126
f 127 128 129
f 128 127 130
f 131 132 133
f 132 131 134
f 134 131 135
f 134 135 129
f 134 129 128
f 125 136 137
f 136 125 124
f 136 124 131
f 131 124 135
f 129 138 127
f 138 129 139
f 139 140 138
f 140 139 126
f 140 126 121
f 121 126 119
f 135 139 129
f 139 135 124
f 139 124 126
f 141 142 143
f 142 141 144
f 144 141 145
f 144 145 146
f 147 148 149
f 148 147 117
f 117 147 115
f 115 147 150
f 134 151 132
f 151 134 152
f 151 152 153
f 151 153 154
f 154 153 155
f 154 155 156
f 146 149 144
f 149 146 157
f 149 157 147
f 158 157 146
f 157 158 159
f 160 161 162
f 161 160 163
f 164 165 166
f 165 164 167
f 168 169 170
f 169 168 171
f 172 173 174
f 173 172 175
f 176 177 178
f 177 176 179
f 180 175 172
f 175 180 181
f 182 183 184
f 183 182 185
f 186 187 188
f 187 186 189
f 179 190 177
f 190 179 191
f 176 192 193
f 192 176 178
f 194 195 196
f 195 194 197
f 184 198 199
f 198 184 183
f 200 201 202
f 201 200 203
f 200 204 205
f 204 200 202
f 206 151 154
f 151 206 207
f 208 118 209
f 118 208 117
f 117 208 148
f 148 208 210
f 210 208 211
f 210 211 212
f 212 211 213
f 133 151 207
f 151 133 132
f 214 215 216
f 215 214 217
f 119 120 121
f 120 119 122
f 157 150 147
f 150 157 218
f 218 157 219
f 219 157 220
f 220 157 221
f 221 157 222
f 222 157 123
f 150 218 223
f 222 123 224
f 224 123 225
f 225 123 226
f 226 123 201
f 201 123 202
f 202 123 204
f 204 123 227
f 227 123 228
f 228 123 229
f 229 123 173
f 173 123 230
f 173 230 231
f 231 230 232
f 231 232 233
f 231 233 234
f 230 123 235
f 235 123 236
f 236 123 237
f 237 123 238
f 238 123 239
f 239 123 240
f 240 123 241
f 241 123 242
f 242 123 243
f 243 123 244
f 244 123 245
f 245 123 246
f 246 123 247
f 247 123 137
f 137 123 125
f 150 248 137
f 248 150 249
f 249 150 250
f 250 150 162
f 162 150 160
f 160 150 251
f 251 150 170
f 170 150 223
f 170 223 252
f 170 252 184
f 137 248 253
f 137 253 254
f 137 254 255
f 137 255 256
f 137 256 257
f 137 257 258
f 137 258 231
f 137 231 259
f 259 231 260
f 260 231 261
f 261 231 262
f 262 231 263
f 263 231 264
f 264 231 234
f 264 234 265
f 264 265 266
f 137 259 267
f 137 267 268
f 137 268 269
f 137 269 270
f 137 270 271
f 137 271 272
f 137 272 273
f 137 273 247
f 274 264 266
f 264 274 275
f 275 274 276
f 275 276 277
f 277 276 278
f 277 278 279
f 279 278 280
f 279 280 281
f 281 280 282
f 281 282 283
f 283 282 284
f 283 284 285
f 285 284 286
f 285 286 287
f 287 286 288
f 287 288 289
f 289 288 290
f 289 290 291
f 291 290 292
f 291 292 293
f 293 292 294
f 293 294 295
f 295 294 296
f 295 296 297
f 297 296 246
f 297 246 247
f 298 266 265
f 266 298 299
f 299 298 300
f 299 300 301
f 301 300 302
f 301 302 303
f 303 302 304
f 303 304 305
f 305 304 306
f 305 306 307
f 307 306 308
f 307 308 309
f 309 308 310
f 309 310 311
f 311 310 312
f 311 312 313
f 313 312 314
f 313 314 315
f 315 314 316
f 315 316 317
f 317 316 318
f 317 318 319
f 319 318 320
f 319 320 321
f 321 320 245
f 321 245 246
f 322 265 234
f 265 322 323
f 323 322 324
f 323 324 325
f 325 324 326
f 325 326 327
f 327 326 328
f 327 328 329
f 329 328 330
f 329 330 331
f 331 330 332
f 331 332 333
f 333 332 334
f 333 334 335
f 335 334 336
f 335 336 337
f 337 336 338
f 337 338 339
f 339 338 340
f 339 340 341
f 341 340 342
f 341 342 343
f 343 342 344
f 343 344 345
f 345 344 244
f 345 244 245
f 199 170 184
f 170 199 168
f 168 199 346
f 168 346 196
f 196 346 347
f 196 347 194
f 194 347 348
f 194 348 349
f 349 348 350
f 349 350 351
f 351 350 188
f 351 188 352
f 352 188 187
f 352 187 353
f 353 187 354
f 353 354 190
f 190 354 355
f 190 355 177
f 177 355 356
f 177 356 178
f 178 356 357
f 178 357 192
f 192 357 358
f 358 357 359
f 358 359 173
f 358 173 231
f 360 184 252
f 184 360 182
f 182 360 361
f 182 361 362
f 362 361 363
f 362 363 364
f 364 363 365
f 364 365 366
f 366 365 367
f 366 367 368
f 368 367 369
f 368 369 370
f 370 369 371
f 370 371 372
f 372 371 373
f 372 373 374
f 374 373 375
f 374 375 376
f 376 375 377
f 376 377 378
f 378 377 379
f 378 379 181
f 181 379 380
f 181 380 175
f 175 380 229
f 175 229 173
f 381 252 223
f 252 381 382
f 382 381 383
f 382 383 384
f 384 383 385
f 384 385 386
f 386 385 387
f 386 387 388
f 388 387 389
f 388 389 390
f 390 389 391
f 390 391 392
f 392 391 393
f 392 393 394
f 394 393 395
f 394 395 396
f 396 395 397
f 396 397 398
f 398 397 399
f 398 399 400
f 400 399 401
f 400 401 402
f 402 401 403
f 403 401 404
f 403 404 228
f 403 228 229
f 405 188 350
f 188 405 186
f 170 406 251
f 406 170 169
f 407 256 255
f 256 407 408
f 409 212 213
f 212 409 143
f 143 409 141
f 150 216 115
f 216 150 214
f 214 150 137
f 214 137 154
f 154 137 206
f 206 137 136
f 142 148 210
f 148 142 149
f 149 142 144
f 131 410 136
f 131 133 410
f 209 215 217
f 215 209 118
f 215 118 116
f 115 215 116
f 215 115 216
f 411 146 145
f 146 411 412
f 412 158 146
f 413 123 414
f 123 413 119
f 122 119 413
f 410 133 207
f 206 410 207
f 410 206 136
f 415 155 153
f 155 415 416
f 417 418 419
f 419 420 166
f 420 419 418
f 416 421 422
f 421 416 423
f 424 247 425
f 247 424 297
f 425 273 426
f 273 425 247
f 426 272 427
f 272 426 273
f 427 271 428
f 271 427 272
f 429 271 270
f 271 429 428
f 430 270 269
f 270 430 429
f 431 281 283
f 281 431 432
f 279 433 277
f 433 279 434
f 435 296 436
f 296 435 246
f 437 416 415
f 416 437 438
f 416 438 423
f 423 438 439
f 277 440 275
f 440 277 433
f 441 286 284
f 286 441 442
f 443 295 444
f 295 443 293
f 442 288 286
f 288 442 445
f 432 279 281
f 279 432 434
f 446 246 435
f 246 446 321
f 443 291 293
f 291 443 447
f 445 290 288
f 290 445 448
f 299 449 266
f 449 299 450
f 301 450 299
f 450 301 451
f 452 268 267
f 268 452 453
f 454 260 261
f 260 454 455
f 263 456 262
f 456 263 457
f 458 280 278
f 280 458 459
f 262 454 261
f 454 262 456
f 447 289 291
f 289 447 460
f 448 292 290
f 292 448 461
f 460 287 289
f 287 460 462
f 463 292 461
f 292 463 294
f 462 285 287
f 285 462 464
f 266 465 274
f 465 266 449
f 436 294 463
f 294 436 296
f 466 284 282
f 284 466 441
f 444 297 424
f 297 444 295
f 274 467 276
f 467 274 465
f 464 283 285
f 283 464 431
f 455 259 260
f 259 455 468
f 303 451 301
f 451 303 469
f 264 457 263
f 457 264 470
f 468 267 259
f 267 468 452
f 276 458 278
f 458 276 467
f 453 269 268
f 269 453 430
f 471 303 305
f 303 471 469
f 275 470 264
f 470 275 440
f 459 282 280
f 282 459 466
f 159 123 157
f 123 159 414
f 156 214 154
f 214 156 472
f 217 208 209
f 208 217 473
f 473 217 474
f 474 217 475
f 475 217 417
f 417 217 214
f 417 214 418
f 418 214 420
f 420 214 472
f 418 417 475
f 476 350 348
f 350 476 405
f 193 358 477
f 358 193 192
f 478 349 351
f 349 478 479
f 480 256 408
f 256 480 257
f 481 356 355
f 356 481 482
f 483 257 480
f 257 483 258
f 143 210 212
f 210 143 142
f 196 171 168
f 171 196 195
f 189 354 187
f 354 189 484
f 199 485 346
f 485 199 198
f 486 181 180
f 181 486 378
f 487 258 483
f 258 487 231
f 191 353 190
f 353 191 488
f 489 357 490
f 357 489 359
f 490 356 482
f 356 490 357
f 491 254 253
f 254 491 492
f 492 255 254
f 255 492 407
f 486 376 378
f 376 486 493
f 477 231 487
f 231 477 358
f 484 355 354
f 355 484 481
f 494 248 249
f 248 494 495
f 205 227 496
f 227 205 204
f 496 228 497
f 228 496 227
f 497 404 498
f 404 497 228
f 498 401 499
f 401 498 404
f 499 399 500
f 399 499 401
f 501 399 397
f 399 501 500
f 502 397 395
f 397 502 501
f 503 395 393
f 395 503 502
f 504 393 391
f 393 504 503
f 505 391 389
f 391 505 504
f 506 389 387
f 389 506 505
f 203 226 201
f 226 203 507
f 508 368 370
f 368 508 509
f 510 370 372
f 370 510 508
f 511 375 373
f 375 511 512
f 512 377 375
f 377 512 513
f 514 372 374
f 372 514 510
f 515 367 365
f 367 515 516
f 516 369 367
f 369 516 517
f 518 365 363
f 365 518 515
f 517 371 369
f 371 517 519
f 519 373 371
f 373 519 511
f 361 518 363
f 518 361 520
f 360 520 361
f 520 360 521
f 522 402 523
f 402 522 400
f 252 521 360
f 521 252 524
f 525 377 513
f 377 525 379
f 382 524 252
f 524 382 526
f 522 398 400
f 398 522 527
f 384 526 382
f 526 384 528
f 386 528 384
f 528 386 529
f 530 386 388
f 386 530 529
f 527 396 398
f 396 527 531
f 532 388 390
f 388 532 530
f 523 403 533
f 403 523 402
f 534 390 392
f 390 534 532
f 535 379 525
f 379 535 380
f 533 229 536
f 229 533 403
f 537 392 394
f 392 537 534
f 536 380 535
f 380 536 229
f 531 394 396
f 394 531 537
f 174 359 489
f 359 174 173
f 488 352 353
f 352 488 538
f 346 539 347
f 539 346 485
f 538 351 352
f 351 538 478
f 539 348 347
f 348 539 476
f 251 163 160
f 163 251 406
f 540 249 250
f 249 540 494
f 161 250 162
f 250 161 540
f 420 164 166
f 164 420 472
f 416 156 155
f 156 416 422
f 472 422 164
f 422 472 156
f 167 423 165
f 423 167 421
f 164 406 167
f 406 164 163
f 163 164 161
f 161 164 540
f 540 164 494
f 494 164 495
f 495 164 422
f 167 406 169
f 495 422 491
f 491 422 492
f 492 422 407
f 407 422 408
f 408 422 480
f 480 422 483
f 483 422 487
f 487 422 468
f 487 468 174
f 174 468 455
f 174 455 536
f 536 455 454
f 536 454 497
f 497 454 456
f 497 456 457
f 497 457 470
f 468 422 452
f 452 422 453
f 453 422 430
f 430 422 429
f 429 422 428
f 428 422 427
f 427 422 426
f 426 422 425
f 425 422 435
f 435 422 541
f 541 422 542
f 167 543 421
f 543 167 544
f 544 167 545
f 545 167 546
f 546 167 547
f 547 167 548
f 548 167 169
f 548 169 183
f 548 183 524
f 421 543 549
f 421 549 550
f 421 550 507
f 421 507 203
f 421 203 200
f 421 200 205
f 421 205 496
f 421 496 497
f 421 497 551
f 551 497 552
f 552 497 553
f 553 497 554
f 554 497 470
f 554 470 449
f 554 449 555
f 421 551 556
f 421 556 557
f 421 557 558
f 421 558 559
f 421 559 560
f 421 560 561
f 421 561 562
f 421 562 563
f 421 563 564
f 421 564 542
f 421 542 422
f 565 554 555
f 554 565 566
f 566 565 567
f 566 567 568
f 568 567 569
f 569 567 570
f 569 570 571
f 569 571 572
f 572 571 573
f 572 573 574
f 574 573 575
f 574 575 576
f 576 575 577
f 576 577 578
f 578 577 579
f 578 579 580
f 580 579 581
f 580 581 582
f 582 581 583
f 582 583 584
f 584 583 585
f 584 585 586
f 586 585 587
f 586 587 588
f 588 587 541
f 588 541 542
f 450 555 449
f 555 450 589
f 589 450 451
f 589 451 590
f 590 451 469
f 590 469 591
f 591 469 471
f 591 471 592
f 592 471 593
f 592 593 594
f 594 593 595
f 594 595 596
f 596 595 597
f 596 597 598
f 598 597 599
f 598 599 600
f 600 599 601
f 600 601 602
f 602 601 603
f 602 603 604
f 604 603 605
f 604 605 606
f 606 605 446
f 606 446 607
f 607 446 435
f 607 435 541
f 440 449 470
f 449 440 465
f 465 440 433
f 465 433 467
f 467 433 458
f 458 433 434
f 458 434 432
f 458 432 459
f 459 432 431
f 459 431 466
f 466 431 464
f 466 464 441
f 441 464 462
f 441 462 442
f 442 462 460
f 442 460 445
f 445 460 447
f 445 447 448
f 448 447 443
f 448 443 461
f 461 443 444
f 461 444 463
f 463 444 424
f 463 424 436
f 436 424 425
f 436 425 435
f 526 548 524
f 548 526 608
f 608 526 528
f 608 528 609
f 609 528 529
f 609 529 610
f 610 529 530
f 610 530 506
f 506 530 532
f 506 532 505
f 505 532 534
f 505 534 504
f 504 534 537
f 504 537 503
f 503 537 531
f 503 531 502
f 502 531 527
f 502 527 501
f 501 527 522
f 501 522 500
f 500 522 523
f 500 523 499
f 499 523 533
f 499 533 498
f 498 533 536
f 498 536 497
f 185 524 183
f 524 185 521
f 521 185 611
f 521 611 520
f 520 611 612
f 520 612 518
f 518 612 613
f 518 613 515
f 515 613 509
f 515 509 516
f 516 509 508
f 516 508 517
f 517 508 510
f 517 510 519
f 519 510 514
f 519 514 511
f 511 514 493
f 511 493 512
f 512 493 486
f 512 486 513
f 513 486 180
f 513 180 525
f 525 180 172
f 525 172 535
f 535 172 174
f 535 174 536
f 171 183 169
f 183 171 198
f 198 171 195
f 198 195 485
f 485 195 197
f 485 197 539
f 539 197 479
f 539 479 476
f 476 479 478
f 476 478 405
f 405 478 538
f 405 538 186
f 186 538 488
f 186 488 189
f 189 488 191
f 189 191 484
f 484 191 179
f 484 179 481
f 481 179 176
f 481 176 482
f 482 176 193
f 482 193 490
f 490 193 477
f 490 477 489
f 489 477 487
f 489 487 174
f 134 437 152
f 437 134 128
f 437 128 438
f 614 417 419
f 417 614 475
f 475 614 474
f 563 243 564
f 243 563 242
f 564 244 542
f 244 564 243
f 542 344 588
f 344 542 244
f 588 342 586
f 342 588 344
f 586 340 584
f 340 586 342
f 582 340 338
f 340 582 584
f 615 121 616
f 121 615 140
f 153 437 415
f 437 153 152
f 121 617 616
f 617 121 120
f 615 128 130
f 128 615 618
f 618 615 616
f 618 616 617
f 127 615 130
f 615 127 138
f 615 138 140
f 438 619 439
f 619 438 620
f 580 338 336
f 338 580 582
f 578 336 334
f 336 578 580
f 576 334 332
f 334 576 578
f 574 332 330
f 332 574 576
f 572 330 328
f 330 572 574
f 569 328 326
f 328 569 572
f 324 569 326
f 569 324 568
f 322 568 324
f 568 322 566
f 234 566 322
f 566 234 554
f 233 554 234
f 554 233 553
f 232 553 233
f 553 232 552
f 230 552 232
f 552 230 551
f 556 230 235
f 230 556 551
f 557 235 236
f 235 557 556
f 598 312 310
f 312 598 600
f 596 310 308
f 310 596 598
f 594 308 306
f 308 594 596
f 592 306 304
f 306 592 594
f 591 304 302
f 304 591 592
f 300 591 302
f 591 300 590
f 298 590 300
f 590 298 589
f 265 589 298
f 589 265 555
f 323 555 265
f 555 323 565
f 325 565 323
f 565 325 567
f 327 567 325
f 567 327 570
f 571 327 329
f 327 571 570
f 573 329 331
f 329 573 571
f 575 331 333
f 331 575 573
f 577 333 335
f 333 577 575
f 579 335 337
f 335 579 577
f 581 337 339
f 337 581 579
f 583 339 341
f 339 583 581
f 583 343 585
f 343 583 341
f 585 345 587
f 345 585 343
f 587 245 541
f 245 587 345
f 541 320 607
f 320 541 245
f 607 318 606
f 318 607 320
f 606 316 604
f 316 606 318
f 602 316 314
f 316 602 604
f 600 314 312
f 314 600 602
f 595 307 309
f 307 595 593
f 597 309 311
f 309 597 595
f 599 311 313
f 311 599 597
f 601 313 315
f 313 601 599
f 603 315 317
f 315 603 601
f 603 319 605
f 319 603 317
f 605 321 446
f 321 605 319
f 593 305 307
f 305 593 471
f 558 236 237
f 236 558 557
f 559 237 238
f 237 559 558
f 560 238 239
f 238 560 559
f 561 239 240
f 239 561 560
f 562 240 241
f 240 562 561
f 562 242 563
f 242 562 241
f 479 194 349
f 194 479 197
f 495 253 248
f 253 495 491
f 509 366 368
f 366 509 613
f 613 364 366
f 364 613 612
f 364 611 362
f 611 364 612
f 362 185 182
f 185 362 611
f 493 374 376
f 374 493 514
f 507 225 226
f 225 507 550
f 550 224 225
f 224 550 549
f 549 222 224
f 222 549 543
f 543 221 222
f 221 543 544
f 544 220 221
f 220 544 545
f 220 546 219
f 546 220 545
f 219 547 218
f 547 219 546
f 218 548 223
f 548 218 547
f 223 608 381
f 608 223 548
f 381 609 383
f 609 381 608
f 383 610 385
f 610 383 609
f 610 387 385
f 387 610 506
f 409 145 141
f 145 409 621
f 211 409 213
f 409 211 622
f 409 622 621
f 621 622 623
f 621 411 145
f 411 621 623
f 423 619 165
f 619 423 439
f 413 159 158
f 159 413 414
f 411 622 412
f 622 411 623
f 158 122 413
f 122 158 412
f 122 412 618
f 122 618 120
f 618 412 622
f 120 618 617
f 211 614 622
f 614 211 208
f 622 614 620
f 614 208 473
f 614 473 474
f 620 618 622
f 618 620 438
f 618 438 128
f 166 614 419
f 614 166 620
f 620 166 165
f 620 165 619

