# https://github.com/mikedh/trimesh

o c_head_laven
v -0.00140791 -0.00888920 -0.00000000
v 0.00140791 -0.00888920 -0.00000000
v -0.00000000 -0.00900000 -0.00000000
v -0.00278116 -0.00855951 -0.00000000
v 0.00278115 -0.00855951 -0.00000000
v -0.00408592 -0.00801906 -0.00000000
v 0.00408591 -0.00801906 -0.00000000
v -0.00529007 -0.00728115 -0.00000000
v 0.00529006 -0.00728115 -0.00000000
v -0.00636396 -0.00636396 -0.00000000
v 0.00636396 -0.00636396 -0.00000000
v -0.00000000 -0.00600000 -0.00000000
v -0.00728116 -0.00529007 -0.00000000
v -0.00424264 -0.00424264 -0.00000000
v -0.00801906 -0.00408592 -0.00000000
v -0.00600000 -0.00000000 0.00000000
v -0.00855951 -0.00278115 -0.00000000
v -0.00888920 -0.00140791 -0.00000000
v -0.00900000 -0.00000000 -0.00000000
v -0.00888920 0.00140791 0.00000000
v -0.00424264 0.00424264 0.00000000
v -0.00855951 0.00278115 0.00000000
v -0.00801906 0.00408591 0.00000000
v -0.00728116 0.00529006 0.00000000
v -0.00000000 0.00600000 0.00000000
v -0.00636396 0.00636396 0.00000000
v 0.00728115 -0.00529007 -0.00000000
v 0.00424264 -0.00424264 -0.00000000
v 0.00801906 -0.00408592 -0.00000000
v 0.00600000 -0.00000000 0.00000000
v 0.00855951 -0.00278115 -0.00000000
v 0.00888919 -0.00140791 -0.00000000
v 0.00900000 -0.00000000 -0.00000000
v 0.00888919 0.00140791 0.00000000
v 0.00424264 0.00424264 0.00000000
v 0.00855951 0.00278115 0.00000000
v 0.00801906 0.00408591 0.00000000
v 0.00728115 0.00529006 0.00000000
v 0.00636396 0.00636396 0.00000000
v -0.00529007 0.00728115 0.00000000
v 0.00529006 0.00728115 0.00000000
v -0.00408592 0.00801906 0.00000000
v 0.00408591 0.00801906 0.00000000
v -0.00278116 0.00855951 0.00000000
v 0.00278115 0.00855951 0.00000000
v -0.00140791 0.00888919 0.00000000
v 0.00140791 0.00888919 0.00000000
v -0.00000000 0.00900000 0.00000000
v 0.02209238 -0.01119357 0.04250000
v -0.00200945 -0.01300000 0.04250000
v 0.02097366 -0.01300000 0.04250000
v -0.00200945 0.01300000 0.04250000
v 0.02303962 -0.00929162 0.04250000
v 0.02380731 -0.00731036 0.04250000
v 0.02438888 -0.00526671 0.04250000
v 0.02477937 -0.00317811 0.04250000
v 0.02497545 -0.00106240 0.04250000
v 0.02497545 0.00106239 0.04250000
v 0.02477937 0.00317811 0.04250000
v 0.02438888 0.00526671 0.04250000
v 0.02380731 0.00731035 0.04250000
v 0.02303962 0.00929161 0.04250000
v 0.02209238 0.01119357 0.04250000
v 0.02097366 0.01300000 0.04250000
v -0.01311804 -0.01040211 0.00500000
v -0.00500000 -0.01050000 0.00500000
v -0.01250000 -0.01050000 0.00500000
v -0.01450000 -0.00850000 0.00500000
v -0.00000000 -0.00900000 0.00500000
v -0.01440212 -0.00911804 0.00500000
v -0.00140791 -0.00888920 0.00500000
v -0.00278116 -0.00855951 0.00500000
v -0.00408592 -0.00801906 0.00500000
v -0.00529007 -0.00728115 0.00500000
v -0.00636396 -0.00636396 0.00500000
v -0.00728116 -0.00529007 0.00500000
v -0.00801906 -0.00408592 0.00500000
v -0.01450000 0.00850000 0.00500000
v -0.00855951 -0.00278115 0.00500000
v -0.00888920 -0.00140791 0.00500000
v -0.00900000 -0.00000000 0.00500000
v -0.00888920 0.00140791 0.00500000
v -0.00855951 0.00278115 0.00500000
v -0.00801906 0.00408591 0.00500000
v -0.00728116 0.00529006 0.00500000
v -0.00636396 0.00636396 0.00500000
v -0.00529007 0.00728115 0.00500000
v -0.00408592 0.00801906 0.00500000
v -0.00278116 0.00855951 0.00500000
v -0.01440212 0.00911803 0.00500000
v -0.00140791 0.00888919 0.00500000
v -0.00000000 0.00900000 0.00500000
v -0.00300000 -0.01250000 0.00500000
v 0.01609074 -0.01300000 0.00500000
v -0.00300000 -0.01300000 0.00500000
v 0.01739224 -0.01142927 0.00500000
v -0.00309789 -0.01188197 0.00500000
v -0.00338197 -0.01132443 0.00500000
v 0.01851947 -0.00972915 0.00500000
v -0.00382443 -0.01088197 0.00500000
v -0.00438197 -0.01059789 0.00500000
v -0.01367557 -0.01011804 0.00500000
v -0.01411804 -0.00967557 0.00500000
v 0.01945968 -0.00791888 0.00500000
v 0.00140791 -0.00888920 0.00500000
v 0.00278115 -0.00855951 0.00500000
v 0.00408591 -0.00801906 0.00500000
v 0.00529006 -0.00728115 0.00500000
v 0.02020223 -0.00601896 0.00500000
v 0.00636396 -0.00636396 0.00500000
v 0.00728115 -0.00529007 0.00500000
v 0.02073871 -0.00405090 0.00500000
v 0.00801906 -0.00408592 0.00500000
v 0.00855951 -0.00278115 0.00500000
v 0.02106305 -0.00203698 0.00500000
v 0.00888919 -0.00140791 0.00500000
v 0.02117157 -0.00000000 0.00500000
v 0.00900000 -0.00000000 0.00500000
v 0.00888919 0.00140791 0.00500000
v 0.02106305 0.00203698 0.00500000
v 0.00855951 0.00278115 0.00500000
v 0.02073871 0.00405090 0.00500000
v 0.00801906 0.00408591 0.00500000
v 0.02020223 0.00601896 0.00500000
v 0.00728115 0.00529006 0.00500000
v 0.00636396 0.00636396 0.00500000
v 0.01945968 0.00791888 0.00500000
v 0.00529006 0.00728115 0.00500000
v 0.00408591 0.00801906 0.00500000
v 0.01851947 0.00972914 0.00500000
v 0.00278115 0.00855951 0.00500000
v 0.00140791 0.00888919 0.00500000
v -0.01411804 0.00967557 0.00500000
v -0.01367557 0.01011803 0.00500000
v 0.01739224 0.01142927 0.00500000
v -0.00500000 0.01050000 0.00500000
v -0.01311804 0.01040211 0.00500000
v -0.01250000 0.01050000 0.00500000
v -0.00438197 0.01059788 0.00500000
v -0.00382443 0.01088196 0.00500000
v -0.00338197 0.01132443 0.00500000
v -0.00309789 0.01188196 0.00500000
v 0.01609074 0.01300000 0.00500000
v -0.00300000 0.01250000 0.00500000
v -0.00300000 0.01300000 0.00500000
v -0.01189192 0.01500000 0.03111820
v -0.02000000 0.01500000 0.01200000
v -0.02000000 0.01500000 0.03111820
v -0.00100000 0.01500000 0.01200000
v -0.01120097 0.01500000 0.03117470
v -0.01052958 0.01500000 0.03133270
v -0.00987755 0.01500000 0.03157470
v -0.00926119 0.01500000 0.03188580
v -0.00868170 0.01500000 0.03225760
v -0.00813788 0.01500000 0.03268810
v -0.00763803 0.01500000 0.03317120
v -0.00718888 0.01500000 0.03370200
v -0.00200945 0.01500000 0.04050000
v 0.02097366 0.01500000 0.04050000
v -0.00100000 0.01500000 0.00700000
v 0.01609074 0.01500000 0.00700000
v 0.01855945 0.01500000 0.00888110
v 0.02097366 0.01500000 0.01082840
v 0.01609074 -0.01500000 0.00700000
v -0.00100000 -0.01500000 0.01200000
v -0.00100000 -0.01500000 0.00700000
v -0.02000000 -0.01500000 0.03111820
v -0.02000000 -0.01500000 0.01200000
v -0.01189192 -0.01500000 0.03111820
v -0.01119828 -0.01500000 0.03117610
v -0.01051985 -0.01500000 0.03133570
v -0.00987316 -0.01500000 0.03157670
v -0.00925992 -0.01500000 0.03188650
v -0.00867780 -0.01500000 0.03226040
v -0.00813364 -0.01500000 0.03269190
v -0.00763666 -0.01500000 0.03317230
v -0.00718888 -0.01500000 0.03370200
v -0.00200945 -0.01500000 0.04050000
v 0.02097366 -0.01500000 0.04050000
v 0.01855945 -0.01500000 0.00888110
v 0.02097366 -0.01500000 0.01082840
v -0.02000000 -0.01300000 0.01000000
v -0.01311804 -0.01040211 0.01000000
v -0.00300000 -0.01300000 0.01000000
v -0.01367557 -0.01011804 0.01000000
v -0.01411804 -0.00967557 0.01000000
v -0.01440212 -0.00911804 0.01000000
v -0.02000000 0.01300000 0.01000000
v -0.00300000 -0.01250000 0.01000000
v -0.01250000 -0.01050000 0.01000000
v -0.00309789 -0.01188197 0.01000000
v -0.00338197 -0.01132443 0.01000000
v -0.00382443 -0.01088197 0.01000000
v -0.00438197 -0.01059789 0.01000000
v -0.01450000 -0.00850000 0.01000000
v -0.01450000 0.00850000 0.01000000
v -0.01440212 0.00911803 0.01000000
v -0.01411804 0.00967557 0.01000000
v -0.01367557 0.01011803 0.01000000
v -0.01311804 0.01040211 0.01000000
v -0.01250000 0.01050000 0.01000000
v -0.00500000 0.01050000 0.01000000
v -0.00438197 0.01059788 0.01000000
v -0.00382443 0.01088196 0.01000000
v -0.00338197 0.01132443 0.01000000
v -0.00309789 0.01188196 0.01000000
v -0.00300000 0.01250000 0.01000000
v -0.00300000 0.01300000 0.01000000
v -0.00500000 -0.01050000 0.01000000
v -0.02200000 0.00202353 0.03589610
v -0.02200000 -0.00202354 0.03589610
v -0.02200000 -0.00000000 0.03600000
v -0.02200000 0.00402577 0.03558540
v -0.02200000 -0.00402577 0.03558540
v -0.02200000 0.00598563 0.03507110
v -0.02200000 -0.00598563 0.03507110
v -0.02200000 -0.00788250 0.03435880
v -0.02200000 0.00788249 0.03435880
v -0.02200000 -0.00969639 0.03345590
v -0.02200000 0.00969639 0.03345590
v -0.02200000 -0.01140823 0.03237190
v -0.02200000 0.01140823 0.03237190
v -0.02200000 -0.01300000 0.03111820
v -0.02200000 0.01300000 0.03111820
v -0.02200000 0.01300000 0.01200000
v -0.02200000 -0.01300000 0.01200000
v -0.02000000 0.01431645 0.03262380
v -0.01087858 0.01279024 0.03384180
v -0.01189192 0.01431645 0.03262380
v -0.02000000 0.01256349 0.03400450
v -0.00998320 0.01116093 0.03491810
v -0.02000000 0.01067830 0.03519820
v -0.00921300 0.00944167 0.03584380
v -0.02000000 0.00868072 0.03619260
v -0.00857419 0.00764631 0.03661160
v -0.02000000 0.00659177 0.03697710
v -0.00807192 0.00578932 0.03721540
v -0.02000000 0.00443344 0.03754340
v -0.00771023 0.00388566 0.03765010
v -0.02000000 0.00222844 0.03788550
v -0.00749205 0.00195069 0.03791240
v -0.02000000 -0.00000000 0.03800000
v -0.00741912 -0.00000000 0.03800000
v -0.00749205 -0.00195070 0.03791240
v -0.02000000 -0.00222845 0.03788550
v -0.00771023 -0.00388567 0.03765010
v -0.02000000 -0.00443344 0.03754340
v -0.00807192 -0.00578932 0.03721540
v -0.02000000 -0.00659177 0.03697710
v -0.00857419 -0.00764631 0.03661160
v -0.02000000 -0.00868072 0.03619260
v -0.00921300 -0.00944168 0.03584380
v -0.02000000 -0.01067831 0.03519820
v -0.00998320 -0.01116094 0.03491810
v -0.02000000 -0.01256350 0.03400450
v -0.01087858 -0.01279024 0.03384180
v -0.02000000 -0.01431646 0.03262380
v -0.01189192 -0.01431646 0.03262380
v -0.00360032 0.01300000 0.04171210
v -0.00750899 0.00999584 0.03658190
v -0.00700107 0.00841118 0.03724860
v -0.00810292 0.01152812 0.03580240
v -0.00877974 0.01300000 0.03491410
v -0.00658182 0.00678245 0.03779890
v -0.00625344 0.00511818 0.03822990
v -0.00587567 0.00171804 0.03872570
v -0.00360032 -0.01300000 0.04171210
v -0.00582826 -0.00000000 0.03878790
v -0.00587567 -0.00171805 0.03872570
v -0.00750899 -0.00999584 0.03658190
v -0.00810292 -0.01152812 0.03580240
v -0.00700107 -0.00841118 0.03724860
v -0.00658182 -0.00678245 0.03779890
v -0.00625344 -0.00511818 0.03822990
v -0.00877974 -0.01300000 0.03491410
v 0.02383955 0.01216692 0.04050000
v 0.02262355 0.01413043 0.01082840
v 0.02262355 0.01413043 0.04050000
v 0.02383955 0.01216692 0.01082840
v 0.02486916 0.01009958 0.01082840
v 0.02486916 0.01009958 0.04050000
v 0.02570360 0.00794604 0.04050000
v 0.02570360 0.00794604 0.01082840
v 0.02633573 0.00572468 0.01082840
v 0.02633573 0.00572468 0.04050000
v 0.02676018 0.00345447 0.04050000
v 0.02676018 0.00345447 0.01082840
v 0.02697331 0.00115477 0.04050000
v 0.02697331 0.00115477 0.01082840
v 0.02697331 -0.00115478 0.01082840
v 0.02697331 -0.00115478 0.04050000
v 0.02676018 -0.00345447 0.01082840
v 0.02676018 -0.00345447 0.04050000
v 0.02633573 -0.00572468 0.01082840
v 0.02633573 -0.00572468 0.04050000
v 0.02570360 -0.00794604 0.04050000
v 0.02570360 -0.00794604 0.01082840
v 0.02486916 -0.01009958 0.01082840
v 0.02486916 -0.01009958 0.04050000
v 0.02383955 -0.01216693 0.01082840
v 0.02383955 -0.01216693 0.04050000
v 0.02262355 -0.01413044 0.04050000
v 0.02262355 -0.01413044 0.01082840
v 0.02214031 0.01379934 0.00941420
v 0.02332781 0.01188183 0.00941420
v 0.01958799 0.01069753 0.00558580
v 0.01844015 0.01238934 0.00558580
v 0.01966532 0.01387348 0.00746190
v 0.01713017 0.01395896 0.00558580
v 0.02056235 0.00890021 0.00558580
v 0.02433330 0.00986293 0.00941420
v 0.02135363 0.00701510 0.00558580
v 0.02514818 0.00775985 0.00941420
v 0.02195402 0.00506080 0.00558580
v 0.02576551 0.00559054 0.00941420
v 0.02235760 0.00305658 0.00558580
v 0.02618001 0.00337352 0.00941420
v 0.02256039 0.00102222 0.00558580
v 0.02638815 0.00112771 0.00941420
v 0.02638815 -0.00112772 0.00941420
v 0.02256039 -0.00102222 0.00558580
v 0.02618001 -0.00337353 0.00941420
v 0.02235760 -0.00305659 0.00558580
v 0.02576551 -0.00559055 0.00941420
v 0.02195402 -0.00506080 0.00558580
v 0.02514818 -0.00775985 0.00941420
v 0.02135363 -0.00701510 0.00558580
v 0.02433330 -0.00986293 0.00941420
v 0.02056235 -0.00890021 0.00558580
v 0.02332781 -0.01188184 0.00941420
v 0.01958799 -0.01069753 0.00558580
v 0.02214031 -0.01379934 0.00941420
v 0.01844015 -0.01238935 0.00558580
v 0.01966532 -0.01387348 0.00746190
v 0.01713017 -0.01395896 0.00558580
v 0.01962031 0.01492368 0.00902390
v 0.02133749 0.01491654 0.01038740
v 0.01994808 0.01468826 0.00861370
v 0.02167095 0.01467312 0.00998320
v 0.02022043 0.01431311 0.00827290
v 0.02194621 0.01429006 0.00964950
v 0.01859937 0.01434605 0.00703750
v 0.01833613 0.01470354 0.00737930
v 0.01802272 0.01492734 0.00778630
v 0.01640403 0.01492877 0.00657380
v 0.01669500 0.01472016 0.00617790
v 0.01694294 0.01438903 0.00584050
v 0.02217883 0.01454078 0.01041180
v 0.02217883 0.01459611 0.01082840
v 0.02256733 0.01409191 0.01031080
v 0.02217883 0.01437861 0.01002400
v 0.02240250 0.01397898 0.00982840
v 0.02217883 0.01412085 0.00969210
v 0.02160919 0.01483059 0.01033340
v 0.02160919 0.01489634 0.01082840
v 0.01609074 0.01361803 0.00509790
v 0.01647120 0.01335100 0.00506810
v 0.01663048 0.01359510 0.00516850
v 0.01682573 0.01367809 0.00526790
v 0.01663048 0.01413195 0.00544200
v 0.01663048 0.01455800 0.00586800
v 0.01609074 0.01461803 0.00582440
v 0.01609074 0.01490211 0.00638200
v 0.01609074 0.01417557 0.00538200
v 0.02217883 0.01459611 0.04050000
v 0.02160919 0.01489634 0.04050000
v 0.02360547 0.01203652 0.00982840
v 0.02462405 0.00999133 0.00982840
v 0.02544954 0.00786087 0.00982840
v 0.02607490 0.00566332 0.00982840
v 0.02649480 0.00341744 0.00982840
v 0.02670565 0.00114239 0.00982840
v 0.02670565 -0.00114240 0.00982840
v 0.02649480 -0.00341745 0.00982840
v 0.02607490 -0.00566333 0.00982840
v 0.02544954 -0.00786087 0.00982840
v 0.02462405 -0.00999133 0.00982840
v 0.02360547 -0.01203652 0.00982840
v 0.02240250 -0.01397899 0.00982840
v 0.02256733 -0.01409192 0.01031080
v 0.02378001 -0.01213376 0.01031080
v 0.02378001 0.01213376 0.01031080
v 0.02480682 0.01007205 0.01031080
v 0.02563898 0.00792438 0.01031080
v 0.02626939 0.00570907 0.01031080
v 0.02669269 0.00344505 0.01031080
v 0.02690524 0.00115162 0.01031080
v 0.02690524 -0.00115163 0.01031080
v 0.02669269 -0.00344505 0.01031080
v 0.02626939 -0.00570908 0.01031080
v 0.02563898 -0.00792438 0.01031080
v 0.02480682 -0.01007205 0.01031080
v 0.01802272 -0.01492734 0.00778630
v 0.01640403 -0.01492877 0.00657380
v 0.01833613 -0.01470354 0.00737930
v 0.01669500 -0.01472016 0.00617790
v 0.01694294 -0.01438903 0.00584050
v 0.01859937 -0.01434606 0.00703750
v 0.02022043 -0.01431311 0.00827290
v 0.02194621 -0.01429007 0.00964950
v 0.01994808 -0.01468827 0.00861370
v 0.02167095 -0.01467312 0.00998320
v 0.02133749 -0.01491654 0.01038740
v 0.01962031 -0.01492368 0.00902390
v 0.01772413 0.01184975 0.00506810
v 0.01810936 0.01214005 0.00526790
v 0.01923409 0.01048228 0.00526790
v 0.02018885 0.00872112 0.00526790
v 0.02096421 0.00687394 0.00526790
v 0.02155251 0.00495897 0.00526790
v 0.02194798 0.00299508 0.00526790
v 0.02214669 0.00100165 0.00526790
v 0.02214669 -0.00100166 0.00526790
v 0.02194798 -0.00299508 0.00526790
v 0.02155251 -0.00495897 0.00526790
v 0.02096421 -0.00687395 0.00526790
v 0.02018885 -0.00872113 0.00526790
v 0.01923409 -0.01048229 0.00526790
v 0.01810936 -0.01214006 0.00526790
v 0.01682573 -0.01367809 0.00526790
v 0.01647120 -0.01335101 0.00506810
v 0.01772413 -0.01184975 0.00506810
v 0.01882198 -0.01023162 0.00506810
v 0.01975390 -0.00851258 0.00506810
v 0.02051072 -0.00670957 0.00506810
v 0.02108496 -0.00484039 0.00506810
v 0.02147096 -0.00292346 0.00506810
v 0.02166492 -0.00097770 0.00506810
v 0.02166492 0.00097770 0.00506810
v 0.02147096 0.00292346 0.00506810
v 0.02108496 0.00484038 0.00506810
v 0.02051072 0.00670957 0.00506810
v 0.01975390 0.00851257 0.00506810
v 0.01882198 0.01023162 0.00506810
v 0.00654537 0.01490211 0.00638200
v -0.00139018 0.01496157 0.00660980
v 0.00654537 0.01461803 0.00582440
v 0.00654537 0.01417557 0.00538200
v 0.00654537 0.01361803 0.00509790
v -0.00296157 0.01339018 0.00503840
v -0.00284776 0.01376536 0.00515230
v -0.00266294 0.01411114 0.00533710
v -0.00241422 0.01441421 0.00558580
v -0.00211114 0.01466294 0.00588890
v -0.00176537 0.01484776 0.00623460
v 0.02097366 0.01361803 0.04240210
v 0.02148351 0.01334932 0.04240210
v 0.02160919 0.01358600 0.04230350
v 0.02160919 0.01411464 0.04203420
v 0.02097366 0.01417557 0.04211800
v 0.02160919 0.01453417 0.04161470
v 0.02097366 0.01461803 0.04167560
v 0.02097366 0.01490211 0.04111800
v 0.02160919 0.01480353 0.04108600
v 0.02217883 0.01451799 0.04099320
v 0.02254280 0.01407510 0.04111800
v 0.02217883 0.01429128 0.04143820
v 0.02230845 0.01391454 0.04167560
v 0.02217883 0.01393817 0.04179130
v 0.02194344 0.01366445 0.04211800
v 0.02160919 -0.01489634 0.01082840
v 0.02160919 -0.01483060 0.01033340
v 0.02217883 -0.01454078 0.01041180
v 0.02217883 -0.01459611 0.01082840
v 0.02217883 -0.01437861 0.01002400
v 0.02217883 -0.01412085 0.00969210
v 0.01609074 -0.01361804 0.00509790
v 0.01663048 -0.01359510 0.00516850
v 0.01663048 -0.01413196 0.00544200
v 0.01609074 -0.01417557 0.00538200
v 0.01663048 -0.01455800 0.00586800
v 0.01609074 -0.01461804 0.00582440
v 0.01609074 -0.01490211 0.00638200
v -0.00139018 0.01496157 0.01160980
v -0.00176537 0.01484776 0.01123460
v -0.00211114 0.01466294 0.01088890
v -0.00241422 0.01441421 0.01058580
v -0.00266294 0.01411114 0.01033710
v -0.00284776 0.01376536 0.01015230
v -0.00296157 0.01339018 0.01003840
v -0.00200945 0.01361803 0.04240210
v -0.00200945 0.01417557 0.04211800
v -0.00200945 0.01461803 0.04167560
v -0.00200945 0.01490211 0.04111800
v 0.02375403 0.01211928 0.04111800
v 0.02477961 0.01006003 0.04111800
v 0.02561078 0.00791492 0.04111800
v 0.02624045 0.00570226 0.04111800
v 0.02666323 0.00344094 0.04111800
v 0.02687553 0.00115025 0.04111800
v 0.02687553 -0.00115026 0.04111800
v 0.02666323 -0.00344095 0.04111800
v 0.02624045 -0.00570227 0.04111800
v 0.02561078 -0.00791493 0.04111800
v 0.02477961 -0.01006004 0.04111800
v 0.02375403 -0.01211929 0.04111800
v 0.02254280 -0.01407511 0.04111800
v 0.02350587 -0.01198103 0.04167560
v 0.02230845 -0.01391454 0.04167560
v 0.02194344 -0.01366446 0.04211800
v 0.02311934 -0.01176570 0.04211800
v 0.02148351 -0.01334933 0.04240210
v 0.02263229 -0.01149436 0.04240210
v 0.02350587 0.01198103 0.04167560
v 0.02451975 0.00994527 0.04167560
v 0.02534144 0.00782463 0.04167560
v 0.02596392 0.00563721 0.04167560
v 0.02638188 0.00340169 0.04167560
v 0.02659176 0.00113713 0.04167560
v 0.02659176 -0.00113713 0.04167560
v 0.02638188 -0.00340169 0.04167560
v 0.02596392 -0.00563722 0.04167560
v 0.02534144 -0.00782464 0.04167560
v 0.02451975 -0.00994527 0.04167560
v 0.02311934 0.01176569 0.04211800
v 0.02411500 0.00976652 0.04211800
v 0.02492192 0.00768400 0.04211800
v 0.02553321 0.00553590 0.04211800
v 0.02594366 0.00334055 0.04211800
v 0.02614976 0.00111669 0.04211800
v 0.02614976 -0.00111670 0.04211800
v 0.02594366 -0.00334055 0.04211800
v 0.02553321 -0.00553590 0.04211800
v 0.02492192 -0.00768400 0.04211800
v 0.02411500 -0.00976653 0.04211800
v 0.02263229 0.01149435 0.04240210
v 0.02360498 0.00954128 0.04240210
v 0.02439329 0.00750679 0.04240210
v 0.02499049 0.00540823 0.04240210
v 0.02539147 0.00326351 0.04240210
v 0.02559282 0.00109094 0.04240210
v 0.02559282 -0.00109094 0.04240210
v 0.02539147 -0.00326351 0.04240210
v 0.02499049 -0.00540823 0.04240210
v 0.02439329 -0.00750679 0.04240210
v 0.02360498 -0.00954129 0.04240210
v 0.02160919 -0.01489634 0.04050000
v 0.02217883 -0.01459612 0.04050000
v 0.00654537 -0.01361804 0.00509790
v -0.00296157 -0.01339018 0.00503840
v 0.00654537 -0.01417557 0.00538200
v 0.00654537 -0.01461804 0.00582440
v 0.00654537 -0.01490211 0.00638200
v -0.00139018 -0.01496157 0.00660980
v -0.00176537 -0.01484776 0.00623460
v -0.00211114 -0.01466294 0.00588890
v -0.00241422 -0.01441422 0.00558580
v -0.00266294 -0.01411114 0.00533710
v -0.00284776 -0.01376537 0.00515230
v -0.02000000 0.01490211 0.01138200
v -0.01050000 0.01490211 0.01138200
v -0.01050000 0.01461803 0.01082440
v -0.01050000 0.01417557 0.01038200
v -0.01050000 0.01361803 0.01009790
v -0.02000000 0.01361803 0.01009790
v -0.02000000 0.01417557 0.01038200
v -0.02000000 0.01461803 0.01082440
v -0.00352245 0.01361803 0.04165280
v -0.00316034 0.01350545 0.04205560
v -0.00316034 0.01300000 0.04213570
v -0.00261304 0.01358921 0.04231340
v -0.00261304 0.01300000 0.04240670
v -0.00261304 0.01412075 0.04204260
v -0.00261304 0.01454259 0.04162080
v -0.00261304 0.01481342 0.04108920
v -0.00250106 0.01490211 0.04087450
v -0.00294454 0.01461803 0.04121240
v -0.00316034 0.01432329 0.04146140
v -0.00329649 0.01417557 0.04148060
v -0.00316034 0.01396143 0.04182330
v 0.02097366 -0.01490212 0.04111800
v 0.02160919 -0.01480353 0.04108600
v 0.02097366 -0.01461804 0.04167560
v 0.02160919 -0.01453418 0.04161470
v 0.02097366 -0.01417557 0.04211800
v 0.02160919 -0.01411464 0.04203420
v 0.02097366 -0.01361804 0.04240210
v 0.02160919 -0.01358600 0.04230350
v 0.02217883 -0.01393817 0.04179130
v 0.02217883 -0.01429129 0.04143820
v 0.02217883 -0.01451800 0.04099320
v -0.00296157 -0.01339018 0.01003840
v -0.00284776 -0.01376537 0.01015230
v -0.00266294 -0.01411114 0.01033710
v -0.00241422 -0.01441422 0.01058580
v -0.00211114 -0.01466294 0.01088890
v -0.00176537 -0.01484776 0.01123460
v -0.00139018 -0.01496157 0.01160980
v -0.02190212 0.01358778 0.01180900
v -0.02190212 0.01361803 0.01200000
v -0.02161804 0.01417557 0.01200000
v -0.02161804 0.01411803 0.01163670
v -0.02117557 0.01461803 0.01200000
v -0.02117557 0.01453884 0.01150000
v -0.02061804 0.01490211 0.01200000
v -0.02061804 0.01480901 0.01141220
v -0.02061804 0.01453884 0.01088200
v -0.02061804 0.01411803 0.01046120
v -0.02061804 0.01358778 0.01019100
v -0.02061804 0.01300000 0.01009790
v -0.02117557 0.01350000 0.01046120
v -0.02117557 0.01300000 0.01038200
v -0.02117557 0.01395105 0.01069100
v -0.02117557 0.01430901 0.01104900
v -0.02161804 0.01300000 0.01082440
v -0.02161804 0.01336327 0.01088200
v -0.02161804 0.01369098 0.01104900
v -0.02161804 0.01395105 0.01130900
v -0.02190212 0.01300000 0.01138200
v -0.02190212 0.01319098 0.01141220
v -0.02190212 0.01336327 0.01150000
v -0.02190212 0.01350000 0.01163670
v -0.00870188 0.01361803 0.03485480
v -0.00847591 0.01417557 0.03468260
v -0.00812396 0.01461803 0.03441450
v -0.00768048 0.01490211 0.03407660
v -0.00261304 -0.01300000 0.04240670
v -0.00316034 -0.01300000 0.04213570
v -0.00200945 -0.01490212 0.04111800
v -0.00200945 -0.01461804 0.04167560
v -0.00200945 -0.01417557 0.04211800
v -0.00200945 -0.01361804 0.04240210
v -0.01050000 -0.01361804 0.01009790
v -0.02000000 -0.01361804 0.01009790
v -0.01050000 -0.01417557 0.01038200
v -0.01050000 -0.01461804 0.01082440
v -0.01050000 -0.01490211 0.01138200
v -0.02000000 -0.01490211 0.01138200
v -0.02000000 -0.01461804 0.01082440
v -0.02000000 -0.01417557 0.01038200
v -0.02190212 -0.01300000 0.01138200
v -0.02161804 -0.01300000 0.01082440
v -0.02117557 -0.01300000 0.01038200
v -0.02061804 -0.01300000 0.01009790
v -0.02061804 0.01490211 0.03111820
v -0.02117557 0.01461803 0.03111820
v -0.02161804 0.01417557 0.03111820
v -0.02190212 0.01361803 0.03111820
v -0.02000000 0.01468571 0.03219440
v -0.01189192 0.01468571 0.03219440
v -0.02000000 0.01491982 0.03167880
v -0.01189192 0.01491982 0.03167880
v -0.00776068 0.01499263 0.03329110
v -0.00788871 0.01496969 0.03341090
v -0.00814706 0.01487323 0.03365270
v -0.00839668 0.01470675 0.03388640
v -0.00857154 0.01488678 0.03319010
v -0.00878541 0.01473899 0.03343420
v -0.00929088 0.01490649 0.03257460
v -0.00945133 0.01478544 0.03282430
v -0.01009359 0.01492497 0.03207250
v -0.01020113 0.01482858 0.03231740
v -0.01097163 0.01494180 0.03170870
v -0.01102582 0.01486752 0.03193940
v -0.01142643 0.01494920 0.03159500
v -0.01145384 0.01488454 0.03181520
v -0.01148032 0.01479405 0.03202790
v -0.01150532 0.01467929 0.03222870
v -0.01152835 0.01454282 0.03241370
v -0.01117078 0.01447622 0.03255620
v -0.01120968 0.01430060 0.03272170
v -0.01054600 0.01410369 0.03310280
v -0.01097877 0.01401495 0.03299780
v -0.01015963 0.01368476 0.03353690
v -0.00824165 0.01499336 0.03281370
v -0.00904465 0.01499445 0.03219130
v -0.00992933 0.01499550 0.03169850
v -0.01088921 0.01499647 0.03135800
v -0.01138481 0.01499691 0.03126080
v -0.01139866 0.01498751 0.03137200
v -0.01154903 0.01438797 0.03257970
v -0.01142110 0.01417105 0.03278220
v -0.00993223 0.01389036 0.03357280
v -0.00942507 0.01334384 0.03417980
v -0.00937709 0.01366656 0.03410940
v -0.00904650 0.01351486 0.03449450
v -0.00928297 0.01398107 0.03400200
v -0.00895413 0.01385910 0.03440810
v -0.00914989 0.01427498 0.03385020
v -0.00881157 0.01418542 0.03427460
v -0.00898156 0.01453215 0.03365810
v -0.00862265 0.01447373 0.03409780
v -0.01091662 0.01498572 0.03147460
v -0.00998392 0.01498170 0.03182280
v -0.00912640 0.01497735 0.03231860
v -0.00835105 0.01497278 0.03293850
v -0.01107788 0.01476355 0.03216090
v -0.01112656 0.01463200 0.03236810
v -0.01030309 0.01469367 0.03254960
v -0.01039622 0.01452384 0.03276170
v -0.01047783 0.01432477 0.03294750
v -0.00960111 0.01461602 0.03305740
v -0.00973410 0.01440400 0.03326440
v -0.00984546 0.01415840 0.03343770
v -0.00250106 -0.01490212 0.04087450
v -0.00261304 -0.01481343 0.04108920
v -0.00294454 -0.01461804 0.04121240
v -0.00261304 -0.01454259 0.04162080
v -0.00316034 -0.01432330 0.04146140
v -0.00261304 -0.01412076 0.04204260
v -0.00316034 -0.01396143 0.04182330
v -0.00329649 -0.01417557 0.04148060
v -0.00352245 -0.01361804 0.04165280
v -0.00316034 -0.01350546 0.04205560
v -0.00261304 -0.01358922 0.04231340
v -0.02190212 -0.01319098 0.01141220
v -0.02161804 -0.01336327 0.01088200
v -0.02117557 -0.01350000 0.01046120
v -0.02061804 -0.01358779 0.01019100
v -0.02061804 -0.01411804 0.01046120
v -0.02061804 -0.01453884 0.01088200
v -0.02061804 -0.01480902 0.01141220
v -0.02061804 -0.01490211 0.01200000
v -0.02117557 -0.01461804 0.01200000
v -0.02117557 -0.01453884 0.01150000
v -0.02117557 -0.01430902 0.01104900
v -0.02117557 -0.01395106 0.01069100
v -0.02161804 -0.01417557 0.01200000
v -0.02161804 -0.01411804 0.01163670
v -0.02161804 -0.01395106 0.01130900
v -0.02161804 -0.01369098 0.01104900
v -0.02190212 -0.01361804 0.01200000
v -0.02190212 -0.01358779 0.01180900
v -0.02190212 -0.01350000 0.01163670
v -0.02190212 -0.01336327 0.01150000
v -0.02061804 0.01460321 0.03214180
v -0.02061804 0.01425202 0.03255010
v -0.02061804 0.01482586 0.03165130
v -0.02117557 0.01455317 0.03157170
v -0.02117557 0.01436377 0.03198890
v -0.02117557 0.01406503 0.03233620
v -0.02161804 0.01377379 0.03200320
v -0.02161804 0.01399084 0.03175080
v -0.02190212 0.01340680 0.03158340
v -0.02190212 0.01352091 0.03145070
v -0.02161804 0.01412844 0.03144770
v -0.02190212 0.01359325 0.03129140
v -0.00868397 0.01188778 0.03514390
v -0.00828640 0.01098456 0.03566270
v -0.00792060 0.01005887 0.03614000
v -0.00758730 0.00911263 0.03657490
v -0.00797597 0.00889311 0.03635770
v -0.00767623 0.00795205 0.03674160
v -0.00811850 0.00778041 0.03662160
v -0.00785151 0.00684340 0.03695370
v -0.00761901 0.00589225 0.03724300
v -0.00742141 0.00492894 0.03748890
v -0.00717881 0.00602236 0.03737880
v -0.00698202 0.00503783 0.03763100
v -0.00678928 0.00616985 0.03761610
v -0.00659229 0.00516097 0.03787320
v -0.00643056 0.00414153 0.03808430
v -0.00630449 0.00311358 0.03824870
v -0.00601764 0.00342709 0.03853930
v -0.00621426 0.00207926 0.03836650
v -0.00616000 0.00104069 0.03843730
v -0.00614187 -0.00000000 0.03846100
v -0.00616000 -0.00104069 0.03843730
v -0.00655016 -0.00101597 0.03818430
v -0.00660437 -0.00202983 0.03811480
v -0.00704222 -0.00198592 0.03796080
v -0.00713273 -0.00297377 0.03784810
v -0.00995770 0.01328458 0.03382010
v -0.00907140 0.01159827 0.03495480
v -0.00867429 0.01071811 0.03546330
v -0.00830891 0.00981575 0.03593130
v -0.01040988 0.01299948 0.03377250
v -0.00951965 0.01134877 0.03487910
v -0.00912081 0.01048732 0.03537490
v -0.00875385 0.00960422 0.03583130
v -0.00841950 0.00870130 0.03624710
v -0.00725918 0.00395545 0.03769080
v -0.00682045 0.00404287 0.03783800
v -0.00713273 0.00297376 0.03784810
v -0.00704222 0.00198592 0.03796080
v -0.00698779 0.00099398 0.03802850
v -0.00660437 0.00202983 0.03811480
v -0.00655016 0.00101596 0.03818430
v -0.00696961 -0.00000000 0.03805120
v -0.00653204 -0.00000000 0.03820750
v -0.00698779 -0.00099399 0.03802850
v -0.00725918 -0.00395545 0.03769080
v -0.00742141 -0.00492894 0.03748890
v -0.00761901 -0.00589225 0.03724300
v -0.00698202 -0.00503784 0.03763100
v -0.00717881 -0.00602237 0.03737880
v -0.00659229 -0.00516097 0.03787320
v -0.00678928 -0.00616986 0.03761610
v -0.00702107 -0.00716614 0.03731370
v -0.00728723 -0.00814775 0.03696640
v -0.00758730 -0.00911264 0.03657490
v -0.00797597 -0.00889311 0.03635770
v -0.00830891 -0.00981576 0.03593130
v -0.00875385 -0.00960422 0.03583130
v -0.00912081 -0.01048733 0.03537490
v -0.00951965 -0.01134878 0.03487910
v -0.01040988 -0.01299949 0.03377250
v -0.01142055 -0.01417074 0.03278300
v -0.01097568 -0.01401381 0.03299940
v -0.00785151 -0.00684341 0.03695370
v -0.00741036 -0.00699446 0.03708220
v -0.00811850 -0.00778042 0.03662160
v -0.00841950 -0.00870131 0.03624710
v -0.00995770 -0.01328458 0.03382010
v -0.01015905 -0.01368458 0.03353730
v -0.00942388 -0.01334326 0.03418100
v -0.00868397 -0.01188778 0.03514390
v -0.00907140 -0.01159827 0.03495480
v -0.00828640 -0.01098457 0.03566270
v -0.00867429 -0.01071811 0.03546330
v -0.00792060 -0.01005888 0.03614000
v -0.00643056 -0.00414153 0.03808430
v -0.00601764 -0.00342709 0.03853930
v -0.00630449 -0.00311359 0.03824870
v -0.00621426 -0.00207926 0.03836650
v -0.00669451 -0.00303951 0.03799930
v -0.00702107 0.00716613 0.03731370
v -0.00741036 0.00699445 0.03708220
v -0.00728723 0.00814774 0.03696640
v -0.00669451 0.00303950 0.03799930
v -0.00682045 -0.00404287 0.03783800
v -0.00767623 -0.00795205 0.03674160
v -0.00768048 -0.01490212 0.03407660
v -0.00812396 -0.01461804 0.03441450
v -0.00847591 -0.01417557 0.03468260
v -0.00870188 -0.01361804 0.03485480
v -0.02190212 -0.01361804 0.03111820
v -0.02161804 -0.01417557 0.03111820
v -0.02117557 -0.01461804 0.03111820
v -0.02061804 -0.01490211 0.03111820
v -0.02061804 0.01250695 0.03392460
v -0.02061804 0.01063024 0.03511300
v -0.02061804 0.00864165 0.03610280
v -0.02061804 0.00656210 0.03688380
v -0.02061804 0.00441348 0.03744750
v -0.02061804 0.00221842 0.03778820
v -0.02061804 -0.00000000 0.03790210
v -0.02061804 -0.00221842 0.03778820
v -0.02061804 -0.00441349 0.03744750
v -0.02061804 -0.00656211 0.03688380
v -0.02061804 -0.00864165 0.03610280
v -0.02061804 -0.01063025 0.03511300
v -0.02061804 -0.01250696 0.03392460
v -0.02061804 -0.01425203 0.03255010
v -0.02117557 -0.01406504 0.03233620
v -0.02117557 -0.01234286 0.03369270
v -0.02161804 -0.01208728 0.03333150
v -0.02161804 -0.01377379 0.03200320
v -0.02190212 -0.01176523 0.03287640
v -0.02190212 -0.01340681 0.03158340
v -0.02117557 0.01234286 0.03369270
v -0.02117557 0.01049077 0.03486550
v -0.02117557 0.00852827 0.03584240
v -0.02117557 0.00647601 0.03661310
v -0.02117557 0.00435558 0.03716940
v -0.02117557 0.00218931 0.03750560
v -0.02117557 -0.00000000 0.03761800
v -0.02117557 -0.00218932 0.03750560
v -0.02117557 -0.00435558 0.03716940
v -0.02117557 -0.00647601 0.03661310
v -0.02117557 -0.00852828 0.03584240
v -0.02117557 -0.01049078 0.03486550
v -0.02161804 0.01208728 0.03333150
v -0.02161804 0.01027354 0.03448000
v -0.02161804 0.00835168 0.03543670
v -0.02161804 0.00634191 0.03619140
v -0.02161804 0.00426539 0.03673620
v -0.02161804 0.00214398 0.03706550
v -0.02161804 -0.00000000 0.03717560
v -0.02161804 -0.00214398 0.03706550
v -0.02161804 -0.00426539 0.03673620
v -0.02161804 -0.00634191 0.03619140
v -0.02161804 -0.00835168 0.03543670
v -0.02161804 -0.01027355 0.03448000
v -0.02190212 0.01176523 0.03287640
v -0.02190212 0.00999982 0.03399430
v -0.02190212 0.00812916 0.03492550
v -0.02190212 0.00617294 0.03566010
v -0.02190212 0.00415174 0.03619040
v -0.02190212 0.00208685 0.03651080
v -0.02190212 -0.00000000 0.03661800
v -0.02190212 -0.00208686 0.03651080
v -0.02190212 -0.00415175 0.03619040
v -0.02190212 -0.00617294 0.03566010
v -0.02190212 -0.00812916 0.03492550
v -0.02190212 -0.00999982 0.03399430
v -0.00811430 -0.01497125 0.03316870
v -0.00835365 -0.01488006 0.03341610
v -0.00858538 -0.01472301 0.03365570
v -0.00879655 -0.01450321 0.03387410
v -0.00938531 -0.01458875 0.03324800
v -0.00953057 -0.01436200 0.03345100
v -0.01005709 -0.01446538 0.03300050
v -0.01015449 -0.01424343 0.03318130
v -0.01070092 -0.01437680 0.03280550
v -0.01076058 -0.01417106 0.03296540
v -0.01132104 -0.01433019 0.03267150
v -0.00897549 -0.01423058 0.03405910
v -0.00965009 -0.01410047 0.03361820
v -0.01023329 -0.01399899 0.03332760
v -0.00911384 -0.01392049 0.03420210
v -0.00920778 -0.01359097 0.03429920
v -0.00974059 -0.01381682 0.03374470
v -0.01189192 -0.01468572 0.03219440
v -0.01128791 -0.01449882 0.03250550
v -0.01125051 -0.01464806 0.03231810
v -0.01063083 -0.01456109 0.03261770
v -0.01055187 -0.01471777 0.03240610
v -0.00994354 -0.01465583 0.03278970
v -0.00981754 -0.01480754 0.03255590
v -0.00921994 -0.01477032 0.03301670
v -0.00904179 -0.01490005 0.03276760
v -0.01120953 -0.01477392 0.03211270
v -0.01189192 -0.01491982 0.03167880
v -0.01116585 -0.01487330 0.03189390
v -0.01112046 -0.01494431 0.03166650
v -0.01037615 -0.01493076 0.03193510
v -0.01028452 -0.01498308 0.03168950
v -0.00954677 -0.01497957 0.03205330
v -0.01107442 -0.01498633 0.03143580
v -0.00885884 -0.01497586 0.03251180
v -0.00968366 -0.01491594 0.03230730
v -0.01046615 -0.01484199 0.03217630
v -0.02000000 -0.01468572 0.03219440
v -0.02061804 -0.01460321 0.03214180
v -0.02000000 -0.01491982 0.03167880
v -0.02061804 -0.01482586 0.03165130
v -0.02117557 -0.01455317 0.03157170
v -0.02161804 -0.01412844 0.03144770
v -0.02190212 -0.01359326 0.03129140
v -0.02117557 -0.01436378 0.03198890
v -0.02161804 -0.01399084 0.03175080
v -0.02190212 -0.01352092 0.03145070
v -0.00424264 -0.00424264 0.00500000
v 0.00424264 -0.00424264 0.00500000
v -0.00000000 -0.00600000 0.00500000
v 0.00600000 -0.00000000 0.00500000
v -0.00600000 -0.00000000 0.00500000
v -0.00424264 0.00424264 0.00500000
v 0.00424264 0.00424264 0.00500000
v -0.00000000 0.00600000 0.00500000
f 1 2 3
f 2 1 4
f 2 4 5
f 5 4 6
f 5 6 7
f 7 6 8
f 7 8 9
f 9 8 10
f 9 10 11
f 11 10 12
f 12 10 13
f 12 13 14
f 14 13 15
f 14 15 16
f 16 15 17
f 16 17 18
f 16 18 19
f 16 19 20
f 16 20 21
f 21 20 22
f 21 22 23
f 21 23 24
f 21 24 25
f 25 24 26
f 12 27 11
f 27 12 28
f 27 28 29
f 29 28 30
f 29 30 31
f 31 30 32
f 32 30 33
f 33 30 34
f 34 30 35
f 34 35 36
f 36 35 37
f 37 35 38
f 38 35 25
f 38 25 39
f 39 25 26
f 39 26 40
f 39 40 41
f 41 40 42
f 41 42 43
f 43 42 44
f 43 44 45
f 45 44 46
f 45 46 47
f 47 46 48
f 49 50 51
f 50 49 52
f 52 49 53
f 52 53 54
f 52 54 55
f 52 55 56
f 52 56 57
f 52 57 58
f 52 58 59
f 52 59 60
f 52 60 61
f 52 61 62
f 52 62 63
f 52 63 64
f 65 66 67
f 68 69 70
f 69 68 71
f 71 68 72
f 72 68 73
f 73 68 74
f 74 68 75
f 75 68 76
f 76 68 77
f 77 68 78
f 77 78 79
f 79 78 80
f 80 78 81
f 81 78 82
f 82 78 83
f 83 78 84
f 84 78 85
f 85 78 86
f 86 78 87
f 87 78 88
f 88 78 89
f 89 78 90
f 89 90 91
f 91 90 92
f 93 94 95
f 94 93 96
f 96 93 97
f 96 97 98
f 96 98 99
f 99 98 100
f 99 100 101
f 99 101 66
f 99 66 65
f 99 65 102
f 99 102 103
f 99 103 69
f 99 69 104
f 69 103 70
f 104 69 105
f 104 105 106
f 104 106 107
f 104 107 108
f 104 108 109
f 109 108 110
f 109 110 111
f 109 111 112
f 112 111 113
f 112 113 114
f 112 114 115
f 115 114 116
f 115 116 117
f 117 116 118
f 117 118 119
f 117 119 120
f 120 119 121
f 120 121 122
f 122 121 123
f 122 123 124
f 124 123 125
f 124 125 126
f 124 126 127
f 127 126 128
f 127 128 129
f 127 129 130
f 130 129 131
f 130 131 132
f 130 132 92
f 130 92 90
f 130 90 133
f 130 133 134
f 130 134 135
f 135 134 136
f 136 134 137
f 136 137 138
f 135 136 139
f 135 139 140
f 135 140 141
f 135 141 142
f 135 142 143
f 143 142 144
f 143 144 145
f 146 147 148
f 147 146 149
f 149 146 150
f 149 150 151
f 149 151 152
f 149 152 153
f 149 153 154
f 149 154 155
f 149 155 156
f 149 156 157
f 149 157 158
f 149 158 159
f 149 159 160
f 160 159 161
f 161 159 162
f 162 159 163
f 164 165 166
f 165 167 168
f 167 165 169
f 169 165 170
f 170 165 171
f 171 165 172
f 172 165 173
f 173 165 174
f 174 165 175
f 175 165 176
f 176 165 177
f 177 165 178
f 178 165 179
f 179 165 164
f 179 164 180
f 179 180 181
f 182 183 184
f 183 182 185
f 185 182 186
f 186 182 187
f 187 182 188
f 184 183 189
f 189 183 190
f 189 190 191
f 191 190 192
f 192 190 193
f 193 190 194
f 187 188 195
f 195 188 196
f 196 188 197
f 197 188 198
f 198 188 199
f 199 188 200
f 200 188 201
f 201 188 202
f 202 188 203
f 203 188 204
f 204 188 205
f 205 188 206
f 206 188 207
f 207 188 208
f 209 194 190
f 145 207 208
f 207 145 144
f 93 184 189
f 184 93 95
f 210 211 212
f 211 210 213
f 211 213 214
f 214 213 215
f 214 215 216
f 216 215 217
f 217 215 218
f 217 218 219
f 219 218 220
f 219 220 221
f 221 220 222
f 221 222 223
f 223 222 224
f 223 224 225
f 223 225 226
f 118 34 119
f 34 118 33
f 32 118 116
f 118 32 33
f 31 116 114
f 116 31 32
f 29 114 113
f 114 29 31
f 27 113 111
f 113 27 29
f 110 27 111
f 27 110 11
f 11 108 9
f 108 11 110
f 9 107 7
f 107 9 108
f 7 106 5
f 106 7 107
f 5 105 2
f 105 5 106
f 2 69 3
f 69 2 105
f 3 71 1
f 71 3 69
f 1 72 4
f 72 1 71
f 4 73 6
f 73 4 72
f 6 74 8
f 74 6 73
f 8 75 10
f 75 8 74
f 13 75 76
f 75 13 10
f 15 76 77
f 76 15 13
f 17 77 79
f 77 17 15
f 80 17 79
f 17 80 18
f 81 18 80
f 18 81 19
f 20 81 82
f 81 20 19
f 83 20 82
f 20 83 22
f 84 22 83
f 22 84 23
f 24 84 85
f 84 24 23
f 26 85 86
f 85 26 24
f 87 26 86
f 26 87 40
f 88 40 87
f 40 88 42
f 89 42 88
f 42 89 44
f 91 44 89
f 44 91 46
f 92 46 91
f 46 92 48
f 132 48 92
f 48 132 47
f 131 47 132
f 47 131 45
f 129 45 131
f 45 129 43
f 128 43 129
f 43 128 41
f 126 41 128
f 41 126 39
f 38 126 125
f 126 38 39
f 37 125 123
f 125 37 38
f 36 123 121
f 123 36 37
f 34 121 119
f 121 34 36
f 227 228 229
f 227 230 228
f 228 230 231
f 230 232 231
f 231 232 233
f 232 234 233
f 233 234 235
f 234 236 235
f 235 236 237
f 236 238 237
f 237 238 239
f 238 240 239
f 239 240 241
f 240 242 241
f 241 242 243
f 242 244 243
f 242 245 244
f 244 245 246
f 245 247 246
f 246 247 248
f 247 249 248
f 248 249 250
f 249 251 250
f 250 251 252
f 251 253 252
f 252 253 254
f 253 255 254
f 254 255 256
f 255 257 256
f 256 257 258
f 259 260 261
f 260 259 262
f 262 259 263
f 259 264 265
f 264 259 261
f 266 267 259
f 267 266 268
f 269 267 268
f 267 270 271
f 270 267 272
f 272 267 273
f 273 267 274
f 275 267 271
f 202 138 201
f 138 202 136
f 66 190 67
f 190 66 209
f 78 195 196
f 195 78 68
f 276 277 278
f 277 276 279
f 280 276 281
f 276 280 279
f 282 280 281
f 280 282 283
f 284 282 285
f 282 284 283
f 286 284 285
f 284 286 287
f 288 287 286
f 287 288 289
f 290 288 291
f 288 290 289
f 292 291 293
f 291 292 290
f 294 293 295
f 293 294 292
f 296 294 295
f 294 296 297
f 298 296 299
f 296 298 297
f 300 299 301
f 299 300 298
f 302 300 301
f 300 302 303
f 304 305 306
f 304 306 307
f 308 304 307
f 309 308 307
f 305 310 306
f 305 311 310
f 311 312 310
f 311 313 312
f 313 314 312
f 313 315 314
f 315 316 314
f 315 317 316
f 317 318 316
f 317 319 318
f 320 318 319
f 318 320 321
f 321 320 322
f 321 322 323
f 323 322 324
f 323 324 325
f 325 324 326
f 325 326 327
f 327 326 328
f 327 328 329
f 329 328 330
f 329 330 331
f 331 330 332
f 331 332 333
f 333 332 334
f 333 334 335
f 163 336 162
f 337 336 163
f 337 338 336
f 339 338 337
f 339 340 338
f 341 340 339
f 340 341 304
f 340 304 308
f 342 340 308
f 340 342 338
f 338 342 343
f 338 343 336
f 336 343 344
f 336 344 162
f 162 344 161
f 344 345 161
f 343 345 344
f 343 346 345
f 343 347 346
f 342 347 343
f 347 342 309
f 342 308 309
f 348 349 277
f 350 348 277
f 351 348 350
f 352 351 350
f 353 351 352
f 304 353 352
f 341 353 304
f 353 341 351
f 351 341 339
f 351 339 348
f 348 339 354
f 349 354 355
f 354 349 348
f 354 337 355
f 355 337 163
f 339 337 354
f 356 357 143
f 356 358 357
f 359 357 358
f 360 359 358
f 360 309 359
f 347 309 360
f 361 347 360
f 347 361 346
f 346 361 362
f 346 362 363
f 356 360 358
f 360 356 364
f 364 361 360
f 361 364 362
f 345 363 161
f 346 363 345
f 277 365 278
f 365 277 349
f 365 355 366
f 355 365 349
f 366 163 159
f 163 366 355
f 305 352 367
f 352 305 304
f 368 305 367
f 305 368 311
f 313 368 369
f 368 313 311
f 315 369 370
f 369 315 313
f 371 315 370
f 315 371 317
f 372 317 371
f 317 372 319
f 320 372 373
f 372 320 319
f 322 373 374
f 373 322 320
f 324 374 375
f 374 324 322
f 326 375 376
f 375 326 324
f 377 326 376
f 326 377 328
f 330 377 378
f 377 330 328
f 332 378 379
f 378 332 330
f 380 378 381
f 378 380 379
f 380 300 303
f 300 380 381
f 367 350 382
f 350 367 352
f 368 382 383
f 382 368 367
f 384 368 383
f 368 384 369
f 370 384 385
f 384 370 369
f 371 385 386
f 385 371 370
f 372 386 387
f 386 372 371
f 373 387 388
f 387 373 372
f 389 373 388
f 373 389 374
f 375 389 390
f 389 375 374
f 376 390 391
f 390 376 375
f 392 376 391
f 376 392 377
f 378 392 381
f 392 378 377
f 279 350 277
f 350 279 382
f 383 279 280
f 279 383 382
f 283 383 280
f 383 283 384
f 385 283 284
f 283 385 384
f 287 385 284
f 385 287 386
f 387 287 289
f 287 387 386
f 290 387 289
f 387 290 388
f 389 290 292
f 290 389 388
f 390 292 294
f 292 390 389
f 297 390 294
f 390 297 391
f 392 297 298
f 297 392 391
f 300 392 298
f 392 300 381
f 180 164 393
f 393 164 394
f 395 393 394
f 395 394 396
f 395 396 397
f 398 395 397
f 335 398 397
f 334 398 335
f 334 399 398
f 332 399 334
f 332 400 399
f 400 401 399
f 400 402 401
f 402 403 401
f 403 404 401
f 403 181 404
f 181 180 404
f 404 180 393
f 401 404 393
f 399 401 395
f 401 393 395
f 399 395 398
f 143 405 135
f 357 405 143
f 357 406 405
f 406 357 359
f 359 307 406
f 307 359 309
f 406 306 407
f 306 406 307
f 407 310 408
f 310 407 306
f 408 312 409
f 312 408 310
f 409 314 410
f 314 409 312
f 410 316 411
f 316 410 314
f 411 318 412
f 318 411 316
f 413 318 321
f 318 413 412
f 414 321 323
f 321 414 413
f 415 323 325
f 323 415 414
f 416 325 327
f 325 416 415
f 417 327 329
f 327 417 416
f 418 329 331
f 329 418 417
f 419 331 333
f 331 419 418
f 420 333 335
f 333 420 419
f 421 419 420
f 419 421 422
f 422 418 419
f 418 422 423
f 423 417 418
f 417 423 424
f 424 416 417
f 416 424 425
f 425 415 416
f 415 425 426
f 426 414 415
f 414 426 427
f 427 413 414
f 413 427 428
f 428 412 413
f 412 428 429
f 430 412 429
f 412 430 411
f 431 411 430
f 411 431 410
f 432 410 431
f 410 432 409
f 433 409 432
f 409 433 408
f 434 408 433
f 408 434 407
f 405 407 434
f 407 405 406
f 422 421 94
f 96 422 94
f 423 422 96
f 99 423 96
f 424 423 99
f 104 424 99
f 425 424 104
f 109 425 104
f 426 425 109
f 112 426 109
f 427 426 112
f 115 427 112
f 428 427 115
f 117 428 115
f 429 428 117
f 120 429 117
f 430 429 120
f 122 430 120
f 431 430 122
f 124 431 122
f 432 431 124
f 127 432 124
f 433 432 127
f 130 433 127
f 434 433 130
f 135 434 130
f 405 434 135
f 363 435 161
f 161 435 436
f 161 436 160
f 363 437 435
f 437 363 362
f 437 364 438
f 364 437 362
f 438 356 439
f 356 438 364
f 439 143 145
f 143 439 356
f 439 145 440
f 441 439 440
f 438 439 441
f 438 441 442
f 443 438 442
f 437 438 443
f 437 443 444
f 437 444 445
f 437 445 435
f 435 445 436
f 446 64 447
f 446 447 448
f 449 446 448
f 446 449 450
f 451 450 449
f 450 451 452
f 451 453 452
f 453 451 454
f 454 159 453
f 159 454 366
f 455 366 454
f 366 455 365
f 365 455 278
f 278 455 456
f 455 457 456
f 456 457 458
f 457 459 458
f 459 460 458
f 449 460 459
f 449 448 460
f 460 448 447
f 457 449 459
f 449 457 451
f 457 454 451
f 454 457 455
f 461 181 403
f 461 403 462
f 463 461 462
f 461 463 464
f 463 462 402
f 463 402 465
f 465 402 400
f 465 400 466
f 332 466 400
f 332 379 466
f 402 462 403
f 466 379 465
f 379 380 465
f 465 380 463
f 380 303 463
f 463 303 464
f 94 421 467
f 421 468 467
f 467 469 470
f 469 467 468
f 470 471 472
f 471 470 469
f 396 472 471
f 397 396 471
f 469 397 471
f 335 397 469
f 420 335 469
f 468 420 469
f 421 420 468
f 396 473 472
f 396 394 473
f 394 164 473
f 149 436 474
f 436 149 160
f 474 445 475
f 445 474 436
f 475 444 476
f 444 475 445
f 476 443 477
f 443 476 444
f 443 478 477
f 478 443 442
f 442 479 478
f 479 442 441
f 441 480 479
f 480 441 440
f 440 208 480
f 208 440 145
f 446 52 64
f 52 446 481
f 450 481 446
f 481 450 482
f 452 482 450
f 482 452 483
f 452 484 483
f 484 452 453
f 453 158 484
f 158 453 159
f 276 456 485
f 456 276 278
f 486 276 485
f 276 486 281
f 282 486 487
f 486 282 281
f 285 487 488
f 487 285 282
f 286 488 489
f 488 286 285
f 490 286 489
f 286 490 288
f 291 490 491
f 490 291 288
f 293 491 492
f 491 293 291
f 295 492 493
f 492 295 293
f 494 295 493
f 295 494 296
f 299 494 495
f 494 299 296
f 496 299 495
f 299 496 301
f 302 496 497
f 496 302 301
f 497 498 499
f 498 497 496
f 498 500 499
f 500 498 501
f 501 502 500
f 502 501 503
f 503 51 502
f 51 503 49
f 504 456 458
f 456 504 485
f 486 504 505
f 504 486 485
f 487 505 506
f 505 487 486
f 488 506 507
f 506 488 487
f 489 507 508
f 507 489 488
f 490 508 509
f 508 490 489
f 491 509 510
f 509 491 490
f 492 510 511
f 510 492 491
f 512 492 511
f 492 512 493
f 513 493 512
f 493 513 494
f 495 513 514
f 513 495 494
f 496 514 498
f 514 496 495
f 504 460 515
f 460 504 458
f 505 515 516
f 515 505 504
f 506 516 517
f 516 506 505
f 507 517 518
f 517 507 506
f 508 518 519
f 518 508 507
f 509 519 520
f 519 509 508
f 510 520 521
f 520 510 509
f 510 522 511
f 522 510 521
f 511 523 512
f 523 511 522
f 512 524 513
f 524 512 523
f 513 525 514
f 525 513 524
f 514 501 498
f 501 514 525
f 515 447 526
f 447 515 460
f 516 526 527
f 526 516 515
f 517 527 528
f 527 517 516
f 518 528 529
f 528 518 517
f 519 529 530
f 529 519 518
f 520 530 531
f 530 520 519
f 520 532 521
f 532 520 531
f 521 533 522
f 533 521 532
f 522 534 523
f 534 522 533
f 523 535 524
f 535 523 534
f 524 536 525
f 536 524 535
f 525 503 501
f 503 525 536
f 526 64 63
f 64 526 447
f 527 63 62
f 63 527 526
f 528 62 61
f 62 528 527
f 529 61 60
f 61 529 528
f 530 60 59
f 60 530 529
f 531 59 58
f 59 531 530
f 531 57 532
f 57 531 58
f 532 56 533
f 56 532 57
f 533 55 534
f 55 533 56
f 534 54 535
f 54 534 55
f 535 53 536
f 53 535 54
f 536 49 503
f 49 536 53
f 461 179 181
f 179 461 537
f 464 537 461
f 537 464 538
f 464 302 538
f 302 464 303
f 94 467 539
f 94 539 540
f 94 540 95
f 539 470 541
f 470 539 467
f 541 472 542
f 472 541 470
f 472 543 542
f 543 472 473
f 543 164 166
f 164 543 473
f 543 166 544
f 543 544 545
f 543 545 542
f 542 545 546
f 542 546 547
f 541 542 547
f 548 541 547
f 549 541 548
f 539 541 549
f 540 539 549
f 149 550 147
f 550 149 551
f 149 474 551
f 474 475 551
f 475 552 551
f 475 476 552
f 476 477 552
f 552 477 553
f 477 478 553
f 553 478 479
f 553 479 554
f 479 480 554
f 554 480 188
f 480 208 188
f 554 188 555
f 556 554 555
f 554 556 553
f 557 553 556
f 553 557 552
f 551 557 550
f 557 551 552
f 558 259 559
f 559 259 560
f 561 560 562
f 560 561 559
f 52 561 562
f 561 52 481
f 481 563 561
f 563 481 482
f 482 564 563
f 564 482 483
f 483 565 564
f 565 483 484
f 484 566 565
f 158 566 484
f 566 567 565
f 565 567 564
f 564 567 568
f 567 569 568
f 568 569 570
f 569 558 570
f 570 558 559
f 561 570 559
f 570 561 563
f 563 568 570
f 568 563 564
f 537 571 179
f 571 537 572
f 572 573 571
f 573 572 574
f 574 575 573
f 575 574 576
f 576 577 575
f 577 576 578
f 502 577 578
f 502 578 500
f 578 576 500
f 500 576 579
f 580 576 574
f 576 580 579
f 580 499 579
f 497 499 580
f 581 497 580
f 302 497 581
f 302 581 538
f 538 572 537
f 572 538 581
f 500 579 499
f 51 577 502
f 581 574 572
f 574 581 580
f 184 540 582
f 540 184 95
f 582 549 583
f 549 582 540
f 583 548 584
f 548 583 549
f 584 547 585
f 547 584 548
f 546 585 547
f 585 546 586
f 545 586 546
f 586 545 587
f 544 587 545
f 587 544 588
f 166 588 544
f 588 166 165
f 589 225 590
f 591 589 590
f 589 591 592
f 593 592 591
f 592 593 594
f 595 594 593
f 594 595 596
f 147 596 595
f 596 147 550
f 550 597 596
f 597 550 557
f 597 556 598
f 556 597 557
f 598 555 599
f 555 598 556
f 600 555 188
f 555 600 599
f 601 600 602
f 600 601 599
f 603 599 601
f 599 603 598
f 597 603 604
f 603 597 598
f 596 604 594
f 604 596 597
f 605 601 602
f 601 605 606
f 603 606 607
f 606 603 601
f 604 607 608
f 607 604 603
f 594 608 592
f 608 594 604
f 606 609 610
f 609 606 605
f 607 610 611
f 610 607 606
f 608 611 612
f 611 608 607
f 592 612 589
f 612 592 608
f 609 225 610
f 610 225 611
f 611 225 612
f 612 225 589
f 558 263 259
f 263 558 613
f 569 613 558
f 613 569 614
f 569 615 614
f 615 569 567
f 567 616 615
f 616 567 566
f 566 157 616
f 157 566 158
f 50 562 617
f 562 50 52
f 562 618 617
f 618 562 560
f 618 259 267
f 259 618 560
f 179 619 178
f 619 179 571
f 571 620 619
f 620 571 573
f 575 620 573
f 620 575 621
f 577 621 575
f 621 577 622
f 51 622 577
f 622 51 50
f 182 623 624
f 623 182 184
f 184 582 623
f 582 583 623
f 623 583 625
f 583 584 625
f 584 585 625
f 625 585 626
f 586 626 585
f 587 626 586
f 587 627 626
f 588 627 587
f 588 168 627
f 165 168 588
f 627 168 628
f 626 628 629
f 628 626 627
f 630 626 629
f 626 630 625
f 624 625 630
f 625 624 623
f 609 226 225
f 226 609 631
f 605 631 609
f 631 605 632
f 632 602 633
f 602 632 605
f 602 634 633
f 634 602 600
f 600 182 634
f 182 600 188
f 148 595 635
f 595 148 147
f 635 593 636
f 593 635 595
f 636 591 637
f 591 636 593
f 637 590 638
f 590 637 591
f 590 224 638
f 224 590 225
f 229 639 227
f 639 229 640
f 640 641 639
f 641 640 642
f 642 148 641
f 148 642 146
f 157 156 643
f 157 643 644
f 157 644 616
f 616 644 645
f 616 645 646
f 645 647 646
f 646 647 648
f 647 649 648
f 648 649 650
f 649 651 650
f 650 651 652
f 651 653 652
f 652 653 654
f 653 655 654
f 654 655 656
f 655 642 656
f 656 642 657
f 657 642 640
f 657 640 658
f 658 640 659
f 660 658 659
f 659 661 660
f 662 660 661
f 661 663 662
f 662 663 664
f 156 665 643
f 156 155 665
f 155 154 665
f 665 154 666
f 154 153 666
f 666 153 667
f 153 152 667
f 152 151 667
f 667 151 668
f 151 150 668
f 668 150 669
f 150 146 669
f 669 146 670
f 670 146 642
f 670 642 655
f 659 640 229
f 659 229 671
f 661 659 671
f 671 672 661
f 661 672 663
f 671 229 672
f 662 664 673
f 673 664 674
f 673 674 675
f 675 674 676
f 677 675 676
f 677 676 678
f 679 677 678
f 679 678 680
f 680 681 679
f 682 681 680
f 682 648 681
f 646 648 682
f 676 674 263
f 676 263 613
f 678 676 613
f 678 613 614
f 680 678 614
f 614 682 680
f 615 682 614
f 615 646 682
f 616 646 615
f 668 669 683
f 683 669 670
f 683 670 653
f 653 670 655
f 667 668 684
f 684 668 683
f 684 683 651
f 651 683 653
f 666 667 685
f 685 667 684
f 685 684 649
f 649 684 651
f 643 665 644
f 665 666 686
f 686 666 685
f 686 685 647
f 647 685 649
f 654 656 687
f 687 656 657
f 687 657 688
f 688 657 658
f 688 658 660
f 652 654 689
f 689 654 687
f 689 687 690
f 690 687 688
f 690 688 691
f 691 688 660
f 660 662 691
f 648 650 681
f 650 652 692
f 692 652 689
f 692 689 693
f 693 689 690
f 690 694 693
f 694 690 691
f 691 673 694
f 691 662 673
f 645 686 647
f 677 693 694
f 693 677 679
f 679 692 693
f 681 692 679
f 681 650 692
f 694 673 675
f 694 675 677
f 644 665 686
f 644 686 645
f 619 695 178
f 619 696 695
f 695 696 697
f 698 697 696
f 698 699 697
f 700 699 698
f 699 700 701
f 701 702 699
f 702 701 703
f 704 703 701
f 703 704 267
f 618 267 704
f 617 704 705
f 704 617 618
f 50 705 622
f 705 50 617
f 619 698 696
f 698 619 620
f 621 698 620
f 698 621 700
f 622 700 621
f 700 622 705
f 697 699 702
f 705 701 700
f 701 705 704
f 631 706 226
f 631 707 706
f 707 631 632
f 707 633 708
f 633 707 632
f 708 634 709
f 634 708 633
f 709 182 624
f 182 709 634
f 710 624 630
f 624 710 709
f 711 630 629
f 630 711 710
f 629 712 711
f 712 629 628
f 628 713 712
f 713 628 168
f 712 714 715
f 714 712 713
f 711 715 716
f 715 711 712
f 710 716 717
f 716 710 711
f 717 709 710
f 709 717 708
f 715 718 719
f 718 715 714
f 720 715 719
f 715 720 716
f 721 716 720
f 716 721 717
f 707 717 721
f 717 707 708
f 722 719 718
f 719 722 723
f 724 719 723
f 719 724 720
f 725 720 724
f 720 725 721
f 706 721 725
f 721 706 707
f 723 722 226
f 724 723 226
f 725 724 226
f 706 725 226
f 227 726 727
f 726 227 639
f 639 728 726
f 728 639 641
f 641 635 728
f 635 641 148
f 728 636 729
f 636 728 635
f 726 729 730
f 729 726 728
f 727 730 731
f 730 727 726
f 730 732 731
f 732 730 733
f 733 734 732
f 734 733 735
f 224 734 735
f 729 637 736
f 637 729 636
f 729 733 730
f 733 729 736
f 637 737 736
f 737 637 638
f 736 735 733
f 735 736 737
f 224 737 638
f 224 735 737
f 674 738 263
f 263 738 739
f 263 739 262
f 739 740 262
f 262 740 741
f 740 742 741
f 741 742 743
f 742 744 743
f 743 744 745
f 744 237 745
f 745 237 746
f 746 237 747
f 748 746 747
f 748 747 749
f 750 748 749
f 750 749 751
f 750 751 264
f 264 751 752
f 264 752 265
f 752 753 265
f 265 753 754
f 753 755 754
f 755 266 754
f 755 756 266
f 756 268 266
f 756 757 268
f 758 268 757
f 757 759 758
f 759 760 758
f 759 761 760
f 761 762 760
f 244 762 761
f 244 246 762
f 664 763 674
f 674 763 764
f 674 764 738
f 738 764 765
f 738 765 739
f 739 765 766
f 739 766 740
f 740 766 742
f 663 763 664
f 663 767 763
f 763 767 768
f 767 228 768
f 228 231 768
f 672 767 663
f 672 228 767
f 229 228 672
f 768 231 233
f 768 233 769
f 764 768 769
f 764 769 765
f 769 233 770
f 770 233 235
f 770 235 771
f 771 235 744
f 742 771 744
f 744 235 237
f 237 239 747
f 747 239 772
f 749 747 772
f 749 772 773
f 751 749 773
f 751 773 752
f 772 239 774
f 239 241 774
f 774 241 775
f 775 241 776
f 777 775 776
f 777 776 778
f 755 777 778
f 755 778 756
f 241 243 776
f 776 243 779
f 778 776 779
f 778 779 780
f 756 778 780
f 756 780 757
f 779 243 781
f 243 244 781
f 781 244 761
f 762 246 782
f 246 248 782
f 782 248 783
f 783 248 784
f 783 784 785
f 785 784 786
f 785 786 787
f 787 786 788
f 788 274 787
f 788 273 274
f 789 273 788
f 272 273 789
f 790 272 789
f 791 272 790
f 790 792 791
f 792 793 791
f 792 794 793
f 794 795 793
f 794 254 795
f 795 254 796
f 254 256 796
f 796 256 797
f 256 798 797
f 797 798 799
f 248 250 784
f 784 250 800
f 784 800 786
f 786 800 801
f 786 801 788
f 788 801 789
f 800 250 802
f 250 252 802
f 802 252 803
f 803 252 794
f 803 794 792
f 252 254 794
f 256 258 798
f 797 799 804
f 804 799 805
f 804 805 806
f 806 275 807
f 808 806 807
f 808 804 806
f 808 797 804
f 275 271 807
f 807 271 809
f 809 808 807
f 810 808 809
f 810 796 808
f 795 796 810
f 809 271 811
f 271 270 811
f 811 270 791
f 791 270 272
f 787 274 812
f 812 274 813
f 812 813 814
f 814 813 815
f 815 816 814
f 760 816 815
f 760 762 816
f 815 813 269
f 815 269 758
f 758 760 815
f 758 269 268
f 261 750 264
f 261 817 750
f 817 748 750
f 817 818 748
f 818 746 748
f 818 745 746
f 819 817 261
f 260 819 261
f 741 819 260
f 262 741 260
f 819 818 817
f 819 743 818
f 741 743 819
f 753 777 755
f 752 820 753
f 752 773 820
f 773 774 820
f 773 772 774
f 757 780 759
f 812 785 787
f 814 821 812
f 816 821 814
f 816 782 821
f 762 782 816
f 789 822 790
f 801 822 789
f 801 802 822
f 800 802 801
f 811 810 809
f 793 810 811
f 791 793 811
f 763 768 764
f 766 771 742
f 765 769 770
f 765 770 766
f 766 770 771
f 743 745 818
f 820 775 777
f 753 820 777
f 820 774 775
f 779 781 780
f 780 781 759
f 781 761 759
f 821 783 785
f 821 785 812
f 782 783 821
f 822 803 792
f 822 792 790
f 802 803 822
f 793 795 810
f 796 797 808
f 177 695 823
f 695 177 178
f 823 697 824
f 697 823 695
f 824 702 825
f 702 824 697
f 826 702 703
f 702 826 825
f 275 703 267
f 703 275 826
f 226 827 223
f 827 226 722
f 827 718 828
f 718 827 722
f 714 828 718
f 828 714 829
f 713 829 714
f 829 713 830
f 168 830 713
f 830 168 167
f 230 727 831
f 727 230 227
f 232 831 832
f 831 232 230
f 232 832 234
f 832 833 234
f 236 833 834
f 833 236 234
f 238 834 835
f 834 238 236
f 238 835 240
f 835 836 240
f 240 836 242
f 836 837 242
f 837 245 242
f 837 838 245
f 838 247 245
f 838 839 247
f 247 840 249
f 840 247 839
f 249 841 251
f 841 249 840
f 841 253 251
f 841 842 253
f 253 843 255
f 843 253 842
f 255 844 257
f 844 255 843
f 843 845 844
f 845 843 846
f 847 845 846
f 845 847 848
f 849 848 847
f 848 849 850
f 221 850 849
f 850 221 223
f 831 731 851
f 731 831 727
f 832 851 852
f 851 832 831
f 833 852 853
f 852 833 832
f 834 853 854
f 853 834 833
f 835 854 855
f 854 835 834
f 836 855 856
f 855 836 835
f 837 856 857
f 856 837 836
f 837 858 838
f 858 837 857
f 838 859 839
f 859 838 858
f 839 860 840
f 860 839 859
f 840 861 841
f 861 840 860
f 841 862 842
f 862 841 861
f 842 846 843
f 846 842 862
f 731 863 851
f 863 731 732
f 851 864 852
f 864 851 863
f 852 865 853
f 865 852 864
f 853 866 854
f 866 853 865
f 854 867 855
f 867 854 866
f 855 868 856
f 868 855 867
f 856 869 857
f 869 856 868
f 857 870 858
f 870 857 869
f 870 859 858
f 859 870 871
f 871 860 859
f 860 871 872
f 872 861 860
f 861 872 873
f 873 862 861
f 862 873 874
f 874 846 862
f 846 874 847
f 732 875 863
f 875 732 734
f 863 876 864
f 876 863 875
f 864 877 865
f 877 864 876
f 865 878 866
f 878 865 877
f 866 879 867
f 879 866 878
f 867 880 868
f 880 867 879
f 868 881 869
f 881 868 880
f 881 870 869
f 870 881 882
f 882 871 870
f 871 882 883
f 883 872 871
f 872 883 884
f 884 873 872
f 873 884 885
f 885 874 873
f 874 885 886
f 886 847 874
f 847 886 849
f 734 222 875
f 222 734 224
f 875 220 876
f 220 875 222
f 876 218 877
f 218 876 220
f 877 215 878
f 215 877 218
f 878 213 879
f 213 878 215
f 879 210 880
f 210 879 213
f 880 212 881
f 212 880 210
f 212 882 881
f 882 212 211
f 211 883 882
f 883 211 214
f 214 884 883
f 884 214 216
f 216 885 884
f 885 216 217
f 217 886 885
f 886 217 219
f 219 849 886
f 849 219 221
f 177 887 176
f 177 823 887
f 823 888 887
f 823 824 888
f 824 889 888
f 824 890 889
f 889 890 891
f 890 892 891
f 891 892 893
f 892 894 893
f 893 894 895
f 896 895 894
f 896 897 895
f 799 897 896
f 799 798 897
f 824 825 890
f 825 898 890
f 890 898 892
f 898 899 892
f 899 894 892
f 900 894 899
f 900 896 894
f 805 896 900
f 805 799 896
f 898 825 901
f 901 825 826
f 901 826 902
f 902 826 275
f 275 806 902
f 806 903 902
f 806 805 903
f 805 900 903
f 798 258 897
f 897 258 904
f 905 897 904
f 906 905 904
f 907 905 906
f 908 907 906
f 909 907 908
f 910 909 908
f 911 909 910
f 912 911 910
f 888 911 912
f 887 888 912
f 913 906 904
f 913 904 914
f 915 913 914
f 916 915 914
f 917 915 916
f 918 917 916
f 919 917 918
f 919 918 172
f 173 919 172
f 920 916 914
f 920 914 169
f 920 169 170
f 171 920 170
f 918 920 171
f 918 916 920
f 172 918 171
f 921 919 173
f 174 921 173
f 175 921 174
f 176 921 175
f 176 887 921
f 887 912 921
f 895 897 905
f 888 889 911
f 921 922 919
f 921 912 922
f 912 910 922
f 919 922 917
f 922 923 917
f 917 923 915
f 923 913 915
f 922 910 923
f 889 891 911
f 911 891 909
f 891 893 909
f 909 893 907
f 893 895 907
f 907 895 905
f 910 908 923
f 908 906 913
f 923 908 913
f 902 903 901
f 903 899 901
f 901 899 898
f 903 900 899
f 924 844 925
f 844 924 257
f 926 925 927
f 925 926 924
f 167 927 830
f 927 167 926
f 830 928 829
f 928 830 927
f 829 929 828
f 929 829 928
f 930 828 929
f 828 930 827
f 827 930 223
f 925 845 931
f 845 925 844
f 927 931 928
f 931 927 925
f 848 931 845
f 931 848 932
f 932 928 931
f 928 932 929
f 850 932 848
f 932 850 933
f 933 929 932
f 929 933 930
f 223 933 850
f 223 930 933
f 169 926 167
f 926 169 914
f 914 924 926
f 924 914 904
f 904 257 924
f 257 904 258
f 68 187 195
f 187 68 70
f 70 186 187
f 186 70 103
f 102 186 103
f 186 102 185
f 65 185 102
f 185 65 183
f 67 183 65
f 183 67 190
f 90 196 197
f 196 90 78
f 198 90 197
f 90 198 133
f 199 133 198
f 133 199 134
f 200 134 199
f 134 200 137
f 201 137 200
f 137 201 138
f 101 209 66
f 209 101 194
f 100 194 101
f 194 100 193
f 100 192 193
f 192 100 98
f 98 191 192
f 191 98 97
f 97 189 191
f 189 97 93
f 203 136 202
f 136 203 139
f 204 139 203
f 139 204 140
f 141 204 205
f 204 141 140
f 206 141 205
f 141 206 142
f 207 142 206
f 142 207 144
f 754 266 259
f 265 754 259
f 274 267 813
f 813 267 269
f 934 935 936
f 935 934 937
f 937 934 938
f 937 938 939
f 937 939 940
f 940 939 941
f 16 939 938
f 939 16 21
f 25 939 21
f 939 25 941
f 35 941 25
f 941 35 940
f 35 937 940
f 937 35 30
f 30 935 937
f 935 30 28
f 935 12 936
f 12 935 28
f 936 14 934
f 14 936 12
f 14 938 934
f 938 14 16

