# https://github.com/mikedh/trimesh

o l_foot_middl_collider
v -0.04629900 0.04212913 -0.02593310
v -0.04642225 0.04192093 -0.02593310
v -0.04653253 0.04205941 -0.02591993
v 0.04998079 -0.00021956 -0.02271398
v 0.04993466 -0.00057794 -0.02283819
v 0.04992388 -0.00021956 -0.02290157
v -0.04658579 0.04121956 -0.02593310
v -0.04678088 0.04121956 -0.02591389
v -0.04673879 0.04139448 -0.02591993
v -0.04696847 0.04121956 -0.02585698
v -0.04694610 0.04141534 -0.02586208
v 0.04755791 0.04551573 -0.01593310
v 0.04794978 0.04525674 -0.02251889
v 0.04755791 0.04551573 -0.02251889
v 0.04794978 0.04525674 -0.01593310
v -0.02955414 -0.01098097 -0.02251889
v -0.02983996 -0.01094173 -0.02262701
v -0.02935965 -0.01098831 -0.02262701
v 0.04952126 0.04252916 -0.02322600
v 0.04720891 0.04183445 -0.02564021
v 0.04937842 0.04294766 -0.02322600
v -0.02983325 -0.01089573 -0.02283819
v -0.04608306 0.04259105 -0.02591993
v -0.04625619 0.04243445 -0.02591993
v -0.04621218 0.04275457 -0.02586208
v -0.04671525 0.04215954 -0.02586208
v -0.04682523 0.04192253 -0.02586208
v -0.04688279 0.04225135 -0.02576079
v 0.02979162 0.04884976 -0.02585698
v 0.02963511 0.04888643 -0.02586208
v 0.02968559 0.04907069 -0.02576079
v 0.02972746 0.04867348 -0.02591389
v 0.02958006 0.04868548 -0.02591993
v 0.04633059 0.04290450 -0.02576079
v 0.04621218 0.04275457 -0.02586208
v 0.04599677 0.04290244 -0.02586208
v 0.04694610 0.04141534 -0.02586208
v 0.04678088 0.04121956 -0.02591389
v 0.04673879 0.04139448 -0.02591993
v 0.04708849 0.04171727 -0.02576079
v 0.04690264 0.04167298 -0.02586208
v 0.04682523 0.04192253 -0.02586208
v 0.04713619 0.04143446 -0.02576079
v 0.02937906 0.04893847 -0.02586208
v 0.02911837 0.04878088 -0.02591389
v 0.02911837 0.04896847 -0.02585698
v 0.04657348 0.04288735 -0.02564021
v 0.04654330 0.04271212 -0.02576079
v 0.04633330 0.04308495 -0.02564021
v 0.04609413 0.04306682 -0.02576079
v 0.04606859 0.04324822 -0.02564021
v 0.02938455 0.04927739 -0.02564021
v 0.02911837 0.04914136 -0.02576457
v 0.02911837 0.04929289 -0.02564021
v 0.02964714 0.04923109 -0.02564021
v 0.02940453 0.04912782 -0.02576079
v 0.04671525 0.04215954 -0.02586208
v 0.04653253 0.04205941 -0.02591993
v 0.04640692 0.04225618 -0.02591993
v 0.02935129 0.04873198 -0.02591993
v 0.02948407 0.04854304 -0.02593310
v 0.04740807 0.04526407 -0.02322600
v 0.04663080 0.04184765 -0.02591993
v 0.04651239 0.04169641 -0.02593310
v 0.04642225 0.04192093 -0.02593310
v 0.04629900 0.04212913 -0.02593310
v -0.02938455 0.04927739 -0.02564021
v -0.02940453 0.04912782 -0.02576079
v -0.02964714 0.04923109 -0.02564021
v -0.02968559 0.04907069 -0.02576079
v -0.02979162 0.04884976 -0.02585698
v -0.02985075 0.04901222 -0.02576457
v -0.04656733 0.04146079 -0.02593310
v -0.04658579 0.02050000 -0.02592349
v -0.04658579 -0.00021956 -0.02593310
v -0.04656733 -0.00046079 -0.02593310
v -0.04651239 0.04169641 -0.02593310
v -0.04651239 -0.00069641 -0.02593310
v -0.04642225 -0.00092093 -0.02593310
v -0.04629900 -0.00112913 -0.02593310
v -0.04614551 0.04231615 -0.02593310
v -0.04614551 -0.00131615 -0.02593310
v -0.04596537 0.04247765 -0.02593310
v -0.04596537 -0.00147765 -0.02593310
v -0.04576275 0.04260986 -0.02593310
v -0.04576275 -0.00160986 -0.02593310
v -0.04554237 0.04270971 -0.02593310
v -0.04554237 -0.00170971 -0.02593310
v -0.02966074 0.04849015 -0.02593310
v -0.02966074 -0.00749015 -0.02593310
v -0.02948407 0.04854304 -0.02593310
v -0.02948407 -0.00754304 -0.02593310
v -0.02930246 0.04857506 -0.02593310
v -0.02930246 -0.00757506 -0.02593310
v -0.02911837 0.04858579 -0.02593310
v -0.02911837 -0.00758579 -0.02593310
v 0.02911837 0.04858579 -0.02593310
v 0.02911837 -0.00758579 -0.02593310
v 0.02930246 0.04857506 -0.02593310
v 0.02930246 -0.00757506 -0.02593310
v 0.02948407 -0.00754304 -0.02593310
v 0.02966074 0.04849015 -0.02593310
v 0.02966074 -0.00749015 -0.02593310
v 0.04554237 0.04270971 -0.02593310
v 0.04554237 -0.00170971 -0.02593310
v 0.04576275 0.04260986 -0.02593310
v 0.04576275 -0.00160986 -0.02593310
v 0.04596537 0.04247765 -0.02593310
v 0.04596537 -0.00147765 -0.02593310
v 0.04614551 0.04231615 -0.02593310
v 0.04614551 -0.00131615 -0.02593310
v 0.04629900 -0.00112913 -0.02593310
v 0.04642225 -0.00092093 -0.02593310
v 0.04651239 -0.00069641 -0.02593310
v 0.04656733 0.04146079 -0.02593310
v 0.04656733 -0.00046079 -0.02593310
v 0.04658579 0.04121956 -0.02593310
v 0.04658579 0.02050000 -0.02592349
v 0.04658579 -0.00021956 -0.02593310
v -0.04755791 0.04551573 -0.02251889
v -0.04753183 0.04552435 -0.02262701
v -0.04793548 0.04525990 -0.02262701
v -0.02911837 0.04896847 -0.02585698
v -0.02911837 0.04914136 -0.02576457
v 0.04746223 0.04540602 -0.02303444
v 0.04699154 0.04550544 -0.02320659
v 0.04704668 0.04562412 -0.02303444
v -0.04573239 0.04323177 -0.02576457
v -0.04583816 0.04319617 -0.02576079
v -0.04578422 0.04337417 -0.02564021
v 0.04862301 0.04458899 -0.02283819
v 0.04822069 0.04485497 -0.02303444
v 0.04828090 0.04492293 -0.02283819
v 0.04665246 0.04575965 -0.02307446
v -0.04640596 0.04257930 -0.02586208
v -0.04633059 0.04290450 -0.02576079
v -0.02911837 0.04878088 -0.02591389
v -0.02935129 0.04873198 -0.02591993
v -0.02937906 0.04893847 -0.02586208
v -0.04657466 0.04237977 -0.02586208
v -0.04654330 0.04271212 -0.02576079
v -0.04567326 0.04306931 -0.02585698
v -0.04560910 0.04289303 -0.02591389
v -0.02972746 0.04867348 -0.02591389
v 0.04885915 0.04416846 -0.02303444
v 0.04912574 0.04378223 -0.02303444
v 0.04875517 0.04408900 -0.02320659
v 0.04977387 0.04251934 -0.02283819
v 0.04987703 0.04205253 -0.02283819
v 0.04968626 0.04249549 -0.02303444
v -0.04663080 0.04184765 -0.02591993
v -0.04669996 0.04162468 -0.02591993
v 0.04793548 0.04525990 -0.02262701
v 0.04750826 0.04548428 -0.02283819
v 0.04753183 0.04552435 -0.02262701
v 0.04855652 0.04452715 -0.02303444
v 0.04846070 0.04443804 -0.02320659
v 0.02911837 0.05170711 -0.02322600
v -0.02911837 0.04929289 -0.02564021
v -0.02911837 0.05170711 -0.02322600
v 0.04865705 0.04462064 -0.02262701
v 0.04896823 0.04425181 -0.02262701
v 0.04992285 0.04206036 -0.02262701
v 0.04998102 0.04158131 -0.02262701
v -0.04678088 0.02050000 -0.02591389
v 0.04678088 0.02050000 -0.02591389
v -0.04984410 -0.00057136 -0.02303444
v -0.04978753 -0.00103724 -0.02303444
v -0.04987703 -0.00105253 -0.02283819
v 0.04968634 0.04166128 -0.02322600
v 0.04962420 0.04209910 -0.02322600
v 0.04965854 0.04201521 -0.02320659
v 0.04872476 0.04409758 -0.02322600
v 0.04843825 0.04443442 -0.02322600
v 0.04897840 -0.00273535 -0.02322600
v 0.04875517 -0.00308900 -0.02320659
v 0.04872476 -0.00309758 -0.02322600
v 0.04971358 0.04156188 -0.02320659
v 0.04970711 0.04121956 -0.02322600
v 0.04952126 -0.00152916 -0.02322600
v 0.04941888 -0.00189542 -0.02320659
v 0.04937842 -0.00194766 -0.02322600
v -0.04753183 -0.00452435 -0.02262701
v -0.04750826 -0.00448428 -0.02283819
v -0.04710454 -0.00474861 -0.02262701
v 0.04740807 -0.00426407 -0.02322600
v 0.04739589 -0.00429322 -0.02320659
v 0.04701790 -0.00447220 -0.02322600
v -0.04977387 -0.00151934 -0.02283819
v -0.04962614 -0.00197402 -0.02283819
v -0.04966960 -0.00199050 -0.02262701
v -0.04790816 -0.00422229 -0.02283819
v -0.04785479 -0.00414884 -0.02303444
v 0.04901458 0.04371318 -0.02320659
v 0.04923651 0.04331408 -0.02320659
v 0.04919693 0.04335091 -0.02322600
v 0.04923651 -0.00231408 -0.02320659
v 0.04901458 -0.00271318 -0.02320659
v 0.04919693 -0.00235091 -0.02322600
v 0.04699154 -0.00450544 -0.02320659
v 0.04660993 -0.00464279 -0.02322600
v 0.04962420 -0.00109910 -0.02322600
v 0.04956000 -0.00146111 -0.02320659
v -0.03077083 0.05154010 -0.02307446
v -0.03068696 0.05145809 -0.02320659
v -0.03072829 0.05142323 -0.02322600
v -0.02911837 0.05200000 -0.02251889
v 0.02911837 0.05198079 -0.02271398
v -0.02911837 0.05198079 -0.02271398
v 0.02911837 0.05200000 -0.02251889
v 0.04813391 -0.00375702 -0.02320659
v 0.04777698 -0.00402024 -0.02322600
v 0.04812139 -0.00374288 -0.02322600
v 0.04777787 -0.00404297 -0.02320659
v -0.03033665 0.05154672 -0.02322600
v 0.04941888 0.04289542 -0.02320659
v 0.04739589 0.04529322 -0.02320659
v 0.04701790 0.04547220 -0.02322600
v 0.04956000 0.04246111 -0.02320659
v -0.02993575 0.05163560 -0.02322600
v 0.05000000 0.04121956 -0.02251889
v 0.05000000 -0.00021956 -0.01593310
v 0.05000000 -0.00021956 -0.02251889
v 0.05000000 0.04121956 -0.01593310
v -0.04640692 0.04225618 -0.02591993
v -0.02958006 0.04868548 -0.02591993
v -0.02963511 0.04888643 -0.02586208
v -0.02952862 0.05168919 -0.02322600
v 0.04813391 0.04475702 -0.02320659
v 0.04777787 0.04504297 -0.02320659
v 0.04777698 0.04502024 -0.02322600
v -0.04794978 0.04525674 -0.02251889
v 0.03077083 0.05154010 -0.02307446
v 0.04660993 0.04564279 -0.02322600
v 0.03072829 0.05142323 -0.02322600
v 0.03082189 0.05168041 -0.02271398
v 0.03080243 0.05162693 -0.02290157
v 0.03076053 0.05166718 -0.02283819
v 0.03073039 0.05158153 -0.02303444
v 0.03068696 0.05145809 -0.02320659
v 0.04668407 0.04584649 -0.02290157
v 0.04670353 0.04589996 -0.02271398
v -0.03076053 0.05166718 -0.02283819
v -0.03073039 0.05158153 -0.02303444
v -0.03080243 0.05162693 -0.02290157
v -0.04843825 0.04443442 -0.02322600
v -0.04872476 0.04409758 -0.02322600
v -0.04846070 0.04443804 -0.02320659
v 0.03082847 0.05169846 -0.02251889
v 0.03077596 0.05171103 -0.02262701
v -0.04740807 0.04526407 -0.02322600
v -0.04777698 0.04502024 -0.02322600
v -0.04777787 0.04504297 -0.02320659
v 0.04897840 0.04373535 -0.02322600
v -0.03024937 0.05158867 -0.02320659
v -0.02990258 0.04915461 -0.02564021
v -0.04609413 0.04306682 -0.02576079
v 0.04984410 0.04157136 -0.02303444
v 0.04983147 0.04121956 -0.02307446
v -0.04576357 0.04302028 -0.02586208
v -0.04599677 0.04290244 -0.02586208
v 0.04831173 0.04495772 -0.02262701
v -0.04831173 0.04495772 -0.02262701
v 0.04983147 -0.00021956 -0.02307446
v 0.04992388 0.04121956 -0.02290157
v 0.04812139 0.04474288 -0.02322600
v 0.04998079 0.04121956 -0.02271398
v -0.04660993 0.04564279 -0.02322600
v -0.04701790 0.04547220 -0.02322600
v -0.04699154 0.04550544 -0.02320659
v 0.04968634 -0.00066128 -0.02322600
v 0.04965854 -0.00101521 -0.02320659
v -0.02911837 0.05183147 -0.02307446
v 0.02911837 0.05183147 -0.02307446
v 0.04846070 -0.00343804 -0.02320659
v 0.04843825 -0.00343442 -0.02322600
v -0.04813391 -0.00375702 -0.02320659
v -0.04822069 -0.00385497 -0.02303444
v -0.04846070 -0.00343804 -0.02320659
v -0.04981872 -0.00153155 -0.02262701
v -0.04935382 -0.00237208 -0.02303444
v -0.04920287 -0.00283014 -0.02283819
v -0.04943521 -0.00241232 -0.02283819
v 0.02935302 -0.01085119 -0.02303444
v 0.02934669 -0.01072048 -0.02320659
v 0.02982013 -0.01080589 -0.02303444
v -0.04983147 -0.00021956 -0.02307446
v -0.04992388 -0.00021956 -0.02290157
v 0.02911837 -0.01083147 -0.02307446
v 0.02911837 -0.01070711 -0.02322600
v -0.04682523 -0.00092253 -0.02586208
v -0.04688279 -0.00125135 -0.02576079
v -0.04700351 -0.00099120 -0.02576079
v -0.04956000 -0.00146111 -0.02320659
v -0.04941888 -0.00189542 -0.02320659
v -0.04954124 -0.00194182 -0.02303444
v -0.04952126 -0.00152916 -0.02322600
v -0.04669996 -0.00062468 -0.02591993
v -0.04673879 -0.00039448 -0.02591993
v -0.04746223 -0.00440602 -0.02303444
v -0.04777787 -0.00404297 -0.02320659
v -0.04739589 -0.00429322 -0.02320659
v -0.04896823 -0.00325181 -0.02262701
v -0.04865705 -0.00362064 -0.02262701
v -0.04895653 -0.00327666 -0.02251889
v -0.04992285 -0.00106036 -0.02262701
v -0.04991194 -0.00115383 -0.02251889
v -0.04694610 -0.00041534 -0.02586208
v -0.04713619 -0.00043446 -0.02576079
v -0.04696847 -0.00021956 -0.02585698
v -0.04576357 -0.00202028 -0.02586208
v -0.04599677 -0.00190244 -0.02586208
v -0.04589059 -0.00172317 -0.02591993
v -0.04714136 -0.00021956 -0.02576457
v -0.04947688 -0.00243292 -0.02262701
v 0.04713619 -0.00043446 -0.02576079
v 0.04708849 -0.00071727 -0.02576079
v 0.04690264 -0.00067298 -0.02586208
v 0.02940453 -0.00812782 -0.02576079
v 0.02911837 -0.00814136 -0.02576457
v 0.02911837 -0.00796847 -0.02585698
v -0.02958006 -0.00768548 -0.02591993
v -0.02963511 -0.00788643 -0.02586208
v -0.02972746 -0.00767348 -0.02591389
v 0.04663080 -0.00084765 -0.02591993
v -0.02968559 -0.00807069 -0.02576079
v -0.02979162 -0.00784976 -0.02585698
v -0.04998079 -0.00021956 -0.02271398
v -0.04993466 -0.00057794 -0.02283819
v -0.04998102 -0.00058131 -0.02262701
v 0.04998102 -0.00058131 -0.02262701
v 0.04997794 -0.00068876 -0.02251889
v 0.04992285 -0.00106036 -0.02262701
v 0.04657348 -0.00188735 -0.02564021
v 0.04633059 -0.00190450 -0.02576079
v 0.04654330 -0.00171212 -0.02576079
v 0.04669996 -0.00062468 -0.02591993
v -0.04912574 -0.00278223 -0.02303444
v -0.04885915 -0.00316846 -0.02303444
v -0.04893129 -0.00322359 -0.02283819
v 0.02935129 -0.00773198 -0.02591993
v 0.03082847 -0.01069846 -0.02251889
v 0.03077596 -0.01071103 -0.02262701
v 0.03082189 -0.01068041 -0.02271398
v -0.04560910 -0.00189303 -0.02591389
v -0.04568223 -0.00182846 -0.02591993
v -0.04714346 -0.00473681 -0.02251889
v -0.04671010 -0.00491802 -0.02251889
v -0.02911837 -0.00796847 -0.02585698
v -0.02937906 -0.00793847 -0.02586208
v -0.02911837 -0.00778088 -0.02591389
v -0.04654330 -0.00171212 -0.02576079
v -0.04657348 -0.00188735 -0.02564021
v -0.04678471 -0.00165906 -0.02564021
v 0.04935382 -0.00237208 -0.02303444
v 0.04912574 -0.00278223 -0.02303444
v -0.04568223 0.04282846 -0.02591993
v -0.04589059 0.04272317 -0.02591993
v 0.02952862 0.05168919 -0.02322600
v -0.04713619 0.04143446 -0.02576079
v -0.04708849 0.04171727 -0.02576079
v 0.04943521 -0.00241232 -0.02283819
v -0.04727180 0.04152986 -0.02564021
v -0.04720891 0.04183445 -0.02564021
v -0.04700351 0.04199120 -0.02576079
v -0.04678471 0.04265906 -0.02564021
v -0.04657348 0.04288735 -0.02564021
v -0.02935740 0.05194188 -0.02283819
v -0.02911837 0.05192388 -0.02290157
v -0.02935302 0.05185119 -0.02303444
v 0.04943521 0.04341232 -0.02283819
v 0.04935382 0.04337208 -0.02303444
v 0.02983996 -0.01094173 -0.02262701
v 0.02935740 -0.01094188 -0.02283819
v 0.02983325 -0.01089573 -0.02283819
v 0.04993466 0.04157794 -0.02283819
v -0.03030242 0.05180388 -0.02283819
v 0.04924236 0.04385467 -0.02262701
v 0.04893129 0.04422359 -0.02283819
v -0.02934669 0.05172048 -0.02320659
v -0.04609413 -0.00206682 -0.02576079
v -0.04633330 -0.00208495 -0.02564021
v -0.04633059 -0.00190450 -0.02576079
v 0.04966960 0.04299050 -0.02262701
v 0.04962614 0.04297402 -0.02283819
v 0.04920287 0.04383014 -0.02283819
v 0.04828090 -0.00392293 -0.02283819
v 0.04785479 -0.00414884 -0.02303444
v 0.04822069 -0.00385497 -0.02303444
v 0.04980259 0.04261064 -0.02251889
v 0.04991194 0.04215383 -0.02251889
v 0.04981872 0.04253155 -0.02262701
v 0.02911837 -0.01100000 -0.02251889
v 0.02911837 -0.01098079 -0.02271398
v 0.02935965 -0.01098831 -0.02262701
v 0.04947688 0.04343292 -0.02262701
v 0.04710454 0.04574861 -0.02262701
v 0.04708495 0.04570646 -0.02283819
v 0.04790816 0.04522229 -0.02283819
v 0.02937906 -0.00793847 -0.02586208
v 0.02911837 -0.00778088 -0.02591389
v 0.04865219 -0.00363446 -0.02251889
v 0.04831173 -0.00395772 -0.02262701
v 0.04865705 -0.00362064 -0.02262701
v -0.02911837 -0.00829289 -0.02564021
v -0.02938455 -0.00827739 -0.02564021
v -0.02911837 -0.00814136 -0.02576457
v -0.04567326 -0.00206931 -0.02585698
v -0.04583816 -0.00219617 -0.02576079
v 0.02972746 -0.00767348 -0.02591389
v 0.02958006 -0.00768548 -0.02591993
v 0.04865219 0.04463446 -0.02251889
v 0.04831561 0.04496211 -0.02251889
v -0.03028069 0.05171573 -0.02303444
v 0.04965086 0.04305519 -0.02251889
v -0.02940453 -0.00812782 -0.02576079
v 0.04671010 0.04591802 -0.02251889
v 0.04954124 0.04294182 -0.02303444
v -0.04573239 -0.00223177 -0.02576457
v 0.02963511 -0.00788643 -0.02586208
v -0.04790816 0.04522229 -0.02283819
v -0.04828090 0.04492293 -0.02283819
v 0.04785479 0.04514884 -0.02303444
v 0.02964714 -0.00823109 -0.02564021
v 0.02938455 -0.00827739 -0.02564021
v 0.04714346 0.04573681 -0.02251889
v 0.04922595 0.04389189 -0.02251889
v 0.04945808 0.04348353 -0.02251889
v 0.04885915 -0.00316846 -0.02303444
v 0.04855652 -0.00352715 -0.02303444
v 0.04895653 0.04427666 -0.02251889
v -0.02935129 -0.00773198 -0.02591993
v 0.03028069 0.05171573 -0.02303444
v 0.03030242 0.05180388 -0.02283819
v 0.02955414 0.05198097 -0.02251889
v 0.02983996 0.05194173 -0.02262701
v 0.02935965 0.05198831 -0.02262701
v 0.02998661 0.05192404 -0.02251889
v 0.03024937 0.05158867 -0.02320659
v -0.04696310 0.04240429 -0.02564021
v -0.04919693 0.04335091 -0.02322600
v -0.04897840 0.04373535 -0.02322600
v 0.02980122 0.05167640 -0.02320659
v 0.02982013 0.05180589 -0.02303444
v 0.03031354 0.05184902 -0.02262701
v 0.02983325 0.05189573 -0.02283819
v 0.03033665 0.05154672 -0.02322600
v -0.04710537 0.04212773 -0.02564021
v -0.04937842 0.04294766 -0.02322600
v 0.02935740 0.05194188 -0.02283819
v 0.02935302 0.05185119 -0.02303444
v 0.02911837 0.05192388 -0.02290157
v -0.04965854 -0.00101521 -0.02320659
v -0.04968626 -0.00149549 -0.02303444
v -0.04924236 -0.00285467 -0.02262701
v 0.03076053 -0.01066718 -0.02283819
v -0.04621218 -0.00175457 -0.02586208
v -0.04608306 -0.00159105 -0.02591993
v -0.04865219 -0.00363446 -0.02251889
v 0.04670353 -0.00489996 -0.02271398
v 0.03080243 -0.01062693 -0.02290157
v 0.04668407 -0.00484649 -0.02290157
v -0.04971358 -0.00056188 -0.02320659
v -0.04968634 -0.00066128 -0.02322600
v -0.04862301 -0.00358899 -0.02283819
v -0.04831173 -0.00395772 -0.02262701
v 0.04971358 -0.00056188 -0.02320659
v 0.04970711 -0.00021956 -0.02322600
v 0.03077083 -0.01054010 -0.02307446
v 0.04665246 -0.00475965 -0.02307446
v -0.04672846 -0.00149310 -0.02576079
v -0.04696310 -0.00140429 -0.02564021
v -0.04923651 -0.00231408 -0.02320659
v -0.04901458 -0.00271318 -0.02320659
v -0.04855652 -0.00352715 -0.02303444
v -0.04828090 -0.00392293 -0.02283819
v 0.04729289 -0.00021956 -0.02564021
v 0.04729289 0.04121956 -0.02564021
v 0.02955414 -0.01098097 -0.02251889
v 0.02998661 -0.01092404 -0.02251889
v 0.04671010 -0.00491802 -0.02251889
v -0.04665246 -0.00475965 -0.02307446
v -0.04699154 -0.00450544 -0.02320659
v -0.04660993 -0.00464279 -0.02322600
v -0.04875517 -0.00308900 -0.02320659
v 0.03072829 -0.01042323 -0.02322600
v 0.04672846 0.04249310 -0.02576079
v 0.04657466 0.04237977 -0.02586208
v 0.04640596 0.04257930 -0.02586208
v 0.04583816 0.04319617 -0.02576079
v 0.04573239 0.04323177 -0.02576457
v 0.04578422 0.04337417 -0.02564021
v 0.04669996 0.04162468 -0.02591993
v 0.04710537 0.04212773 -0.02564021
v 0.04700351 0.04199120 -0.02576079
v 0.04688279 0.04225135 -0.02576079
v 0.04625619 0.04243445 -0.02591993
v 0.04608306 0.04259105 -0.02591993
v -0.04606859 0.04324822 -0.02564021
v -0.04729289 0.04121956 -0.02564021
v -0.04970711 -0.00021956 -0.02322600
v -0.04970711 0.04121956 -0.02322600
v -0.04729289 -0.00021956 -0.02564021
v 0.04714136 0.04121956 -0.02576457
v 0.04696847 0.04121956 -0.02585698
v 0.04696310 0.04240429 -0.02564021
v 0.04678471 0.04265906 -0.02564021
v 0.04714136 -0.00021956 -0.02576457
v 0.02985075 0.04901222 -0.02576457
v 0.04567326 0.04306931 -0.02585698
v 0.04576357 0.04302028 -0.02586208
v 0.04560910 0.04289303 -0.02591389
v -0.04997794 -0.00068876 -0.02251889
v -0.05000000 -0.00021956 -0.02251889
v 0.02980122 -0.01067640 -0.02320659
v 0.02952862 -0.01068919 -0.02322600
v -0.04710454 0.04574861 -0.02262701
v -0.04750826 0.04548428 -0.02283819
v -0.04922595 -0.00289189 -0.02251889
v -0.04822069 0.04485497 -0.02303444
v 0.04573239 -0.00223177 -0.02576457
v 0.02990258 -0.00815461 -0.02564021
v 0.02985075 -0.00801222 -0.02576457
v 0.04578422 -0.00237417 -0.02564021
v -0.04714346 0.04573681 -0.02251889
v -0.04965086 -0.00205519 -0.02251889
v -0.04678088 -0.00021956 -0.02591389
v -0.04855652 0.04452715 -0.02303444
v -0.02998661 0.05192404 -0.02251889
v -0.03031354 0.05184902 -0.02262701
v -0.03041246 0.05182963 -0.02251889
v -0.04633330 0.04308495 -0.02564021
v 0.04589059 0.04272317 -0.02591993
v 0.04568223 0.04282846 -0.02591993
v -0.04962420 0.04209910 -0.02322600
v -0.04968634 0.04166128 -0.02322600
v 0.04696847 -0.00021956 -0.02585698
v 0.02990258 0.04915461 -0.02564021
v -0.04746223 0.04540602 -0.02303444
v -0.04785479 0.04514884 -0.02303444
v -0.04896823 0.04425181 -0.02262701
v -0.04924236 0.04385467 -0.02262701
v -0.04922595 0.04389189 -0.02251889
v -0.04954124 0.04294182 -0.02303444
v -0.04952126 0.04252916 -0.02322600
v -0.04956000 0.04246111 -0.02320659
v -0.04941888 0.04289542 -0.02320659
v 0.03041246 0.05182963 -0.02251889
v -0.04708495 0.04570646 -0.02283819
v -0.04998102 0.04158131 -0.02262701
v -0.04998079 0.04121956 -0.02271398
v -0.05000000 0.04121956 -0.02251889
v -0.04690264 0.04167298 -0.02586208
v 0.02934669 0.05172048 -0.02320659
v -0.04992285 0.04206036 -0.02262701
v -0.04987703 0.04205253 -0.02283819
v -0.04993466 0.04157794 -0.02283819
v -0.04672846 0.04249310 -0.02576079
v -0.04981872 0.04253155 -0.02262701
v -0.04991194 0.04215383 -0.02251889
v -0.03031354 -0.01084902 -0.02262701
v -0.03076053 -0.01066718 -0.02283819
v -0.03030242 -0.01080388 -0.02283819
v -0.04704668 0.04562412 -0.02303444
v 0.04896823 -0.00325181 -0.02262701
v 0.04895653 -0.00327666 -0.02251889
v -0.03073039 -0.01058153 -0.02303444
v -0.03028069 -0.01071573 -0.02303444
v -0.04714136 0.04121956 -0.02576457
v 0.04704668 -0.00462412 -0.02303444
v -0.02955414 0.05198097 -0.02251889
v -0.02983996 0.05194173 -0.02262701
v -0.02982013 0.05180589 -0.02303444
v -0.03077596 0.05171103 -0.02262701
v -0.02980122 0.05167640 -0.02320659
v -0.04812139 0.04474288 -0.02322600
v 0.04978753 0.04203724 -0.02303444
v 0.03028069 -0.01071573 -0.02303444
v 0.03024937 -0.01058867 -0.02320659
v 0.03073039 -0.01058153 -0.02303444
v -0.02983325 0.05189573 -0.02283819
v -0.04739589 0.04529322 -0.02320659
v -0.04665246 0.04575965 -0.02307446
v 0.02911837 -0.01092388 -0.02290157
v -0.04813391 0.04475702 -0.02320659
v 0.02993575 0.05163560 -0.02322600
v -0.04997794 0.04168876 -0.02251889
v -0.04962420 -0.00109910 -0.02322600
v -0.04897840 -0.00273535 -0.02322600
v -0.04901458 0.04371318 -0.02320659
v -0.04923651 0.04331408 -0.02320659
v -0.04875517 0.04408900 -0.02320659
v -0.03082847 -0.01069846 -0.02251889
v -0.03082189 -0.01068041 -0.02271398
v -0.03077596 -0.01071103 -0.02262701
v -0.03082189 0.05168041 -0.02271398
v -0.04843825 -0.00343442 -0.02322600
v -0.04740807 -0.00426407 -0.02322600
v -0.04670353 0.04589996 -0.02271398
v -0.04668407 0.04584649 -0.02290157
v -0.04971358 0.04156188 -0.02320659
v -0.04872476 -0.00309758 -0.02322600
v -0.03080243 -0.01062693 -0.02290157
v -0.04937842 -0.00194766 -0.02322600
v -0.04701790 -0.00447220 -0.02322600
v -0.03082847 0.05169846 -0.02251889
v -0.04983147 0.04121956 -0.02307446
v -0.04777698 -0.00402024 -0.02322600
v 0.04672846 -0.00149310 -0.02576079
v 0.04640596 -0.00157930 -0.02586208
v 0.04657466 -0.00137977 -0.02586208
v 0.04625619 -0.00143445 -0.02591993
v 0.04640692 -0.00125618 -0.02591993
v 0.04710454 -0.00474861 -0.02262701
v 0.04708495 -0.00470646 -0.02283819
v -0.03077083 -0.01054010 -0.02307446
v -0.04671010 0.04591802 -0.02251889
v -0.04812139 -0.00374288 -0.02322600
v -0.03072829 -0.01042323 -0.02322600
v 0.03068696 -0.01045809 -0.02320659
v -0.04919693 -0.00235091 -0.02322600
v -0.04992388 0.04121956 -0.02290157
v -0.03033665 -0.01054672 -0.02322600
v -0.03068696 -0.01045809 -0.02320659
v -0.04668407 -0.00484649 -0.02290157
v -0.04670353 -0.00489996 -0.02271398
v 0.03033665 -0.01054672 -0.02322600
v 0.02993575 -0.01063560 -0.02322600
v -0.04640596 -0.00157930 -0.02586208
v -0.04625619 -0.00143445 -0.02591993
v -0.02993575 -0.01063560 -0.02322600
v -0.03024937 -0.01058867 -0.02320659
v -0.02911837 -0.01083147 -0.02307446
v -0.02911837 -0.01092388 -0.02290157
v -0.02934669 -0.01072048 -0.02320659
v -0.02952862 -0.01068919 -0.02322600
v -0.02911837 -0.01070711 -0.02322600
v -0.02911837 -0.01098079 -0.02271398
v -0.02911837 -0.01100000 -0.02251889
v -0.04578422 -0.00237417 -0.02564021
v -0.02980122 -0.01067640 -0.02320659
v -0.04965854 0.04201521 -0.02320659
v 0.04694610 -0.00041534 -0.02586208
v 0.04673879 -0.00039448 -0.02591993
v 0.04678088 -0.00021956 -0.02591389
v -0.04710537 -0.00112773 -0.02564021
v -0.04720891 -0.00083445 -0.02564021
v 0.04653253 -0.00105941 -0.02591993
v -0.04606859 -0.00224822 -0.02564021
v 0.04682523 -0.00092253 -0.02586208
v -0.02935740 -0.01094188 -0.02283819
v -0.02935302 -0.01085119 -0.02303444
v 0.02968559 -0.00807069 -0.02576079
v 0.04621218 -0.00175457 -0.02586208
v 0.04978753 -0.00103724 -0.02303444
v 0.04968626 -0.00149549 -0.02303444
v 0.04710537 -0.00112773 -0.02564021
v 0.04696310 -0.00140429 -0.02564021
v 0.04688279 -0.00125135 -0.02576079
v -0.02982013 -0.01080589 -0.02303444
v 0.04671525 -0.00115954 -0.02586208
v 0.04727180 -0.00052986 -0.02564021
v 0.04599677 -0.00190244 -0.02586208
v 0.04576357 -0.00202028 -0.02586208
v 0.04568223 -0.00182846 -0.02591993
v 0.04609413 -0.00206682 -0.02576079
v -0.04885915 0.04416846 -0.02303444
v 0.04633330 -0.00208495 -0.02564021
v 0.04755791 -0.00451573 -0.02251889
v 0.04793548 -0.00425990 -0.02262701
v 0.04794978 -0.00425674 -0.02251889
v 0.04720891 -0.00083445 -0.02564021
v 0.02979162 -0.00784976 -0.02585698
v 0.04727180 0.04152986 -0.02564021
v 0.04924236 -0.00285467 -0.02262701
v 0.04893129 -0.00322359 -0.02283819
v 0.04981872 -0.00153155 -0.02262701
v 0.04966960 -0.00199050 -0.02262701
v 0.04962614 -0.00197402 -0.02283819
v -0.03041246 -0.01082963 -0.02251889
v 0.04991194 -0.00115383 -0.02251889
v 0.04945808 -0.00248353 -0.02251889
v 0.04922595 -0.00289189 -0.02251889
v 0.04987703 -0.00105253 -0.02283819
v -0.02998661 -0.01092404 -0.02251889
v 0.04980259 -0.00161064 -0.02251889
v 0.04965086 -0.00205519 -0.02251889
v 0.04947688 -0.00243292 -0.02262701
v -0.04708849 -0.00071727 -0.02576079
v -0.04727180 -0.00052986 -0.02564021
v 0.02911837 -0.00829289 -0.02564021
v 0.04984410 -0.00057136 -0.02303444
v 0.04750826 -0.00448428 -0.02283819
v 0.04746223 -0.00440602 -0.02303444
v 0.04790816 -0.00422229 -0.02283819
v -0.04640692 -0.00125618 -0.02591993
v -0.04708495 -0.00470646 -0.02283819
v -0.04704668 -0.00462412 -0.02303444
v 0.04831561 -0.00396211 -0.02251889
v 0.04700351 -0.00099120 -0.02576079
v 0.04589059 -0.00172317 -0.02591993
v 0.04608306 -0.00159105 -0.02591993
v -0.04671525 -0.00115954 -0.02586208
v -0.04690264 -0.00067298 -0.02586208
v -0.04862301 0.04458899 -0.02283819
v -0.02990258 -0.00815461 -0.02564021
v -0.02985075 -0.00801222 -0.02576457
v 0.04678471 -0.00165906 -0.02564021
v -0.04657466 -0.00137977 -0.02586208
v -0.02964714 -0.00823109 -0.02564021
v 0.04606859 -0.00224822 -0.02564021
v -0.04663080 -0.00084765 -0.02591993
v 0.04560910 -0.00189303 -0.02591389
v -0.04653253 -0.00105941 -0.02591993
v -0.04945808 -0.00248353 -0.02251889
v 0.04567326 -0.00206931 -0.02585698
v -0.04980259 -0.00161064 -0.02251889
v -0.04831561 -0.00396211 -0.02251889
v -0.04794978 -0.00425674 -0.02251889
v -0.04793548 -0.00425990 -0.02262701
v 0.04865219 -0.00363446 -0.01593310
v 0.04895653 -0.00327666 -0.01593310
v 0.04895653 0.04427666 -0.01593310
v 0.04865219 0.04463446 -0.01593310
v 0.04714346 0.04573681 -0.01593310
v 0.04965086 -0.00205519 -0.01593310
v 0.04980259 -0.00161064 -0.01593310
v 0.03041246 -0.01082963 -0.01593310
v 0.03041246 -0.01082963 -0.02251889
v 0.02998661 -0.01092404 -0.01593310
v -0.04755791 -0.00451573 -0.02251889
v 0.04977387 -0.00151934 -0.02283819
v 0.04920287 -0.00283014 -0.02283819
v -0.05000000 -0.00021956 -0.01593310
v -0.04997794 -0.00068876 -0.01593310
v -0.02911837 -0.01100000 -0.01593310
v -0.02955414 -0.01098097 -0.01593310
v -0.04997794 0.04168876 -0.01593310
v -0.05000000 0.04121956 -0.01593310
v 0.04922595 -0.00289189 -0.01593310
v 0.04945808 -0.00248353 -0.01593310
v -0.03041246 -0.01082963 -0.01593310
v -0.03082847 -0.01069846 -0.01593310
v -0.04991194 -0.00115383 -0.01593310
v 0.02911837 0.05200000 -0.01593310
v 0.02955414 0.05198097 -0.01593310
v 0.02998661 0.05192404 -0.01593310
v 0.03041246 0.05182963 -0.01593310
v 0.03082847 0.05169846 -0.01593310
v -0.02911837 0.05200000 -0.01593310
v -0.04980259 -0.00161064 -0.01593310
v -0.04965086 -0.00205519 -0.01593310
v -0.03082847 0.05169846 -0.01593310
v -0.03041246 0.05182963 -0.01593310
v 0.04671010 0.04591802 -0.01593310
v -0.04671010 0.04591802 -0.01593310
v -0.04714346 0.04573681 -0.01593310
v -0.04945808 0.04348353 -0.01593310
v -0.04965086 0.04305519 -0.02251889
v -0.04965086 0.04305519 -0.01593310
v -0.04945808 0.04348353 -0.02251889
v -0.04945808 -0.00248353 -0.01593310
v -0.04922595 -0.00289189 -0.01593310
v -0.04980259 0.04261064 -0.01593310
v -0.04991194 0.04215383 -0.01593310
v -0.04980259 0.04261064 -0.02251889
v -0.04755791 0.04551573 -0.01593310
v 0.04831561 -0.00396211 -0.01593310
v 0.04794978 -0.00425674 -0.01593310
v 0.04965086 0.04305519 -0.01593310
v 0.04945808 0.04348353 -0.01593310
v 0.04714346 -0.00473681 -0.01593310
v 0.04714346 -0.00473681 -0.02251889
v 0.04671010 -0.00491802 -0.01593310
v 0.04922595 0.04389189 -0.01593310
v -0.02998661 0.05192404 -0.01593310
v 0.04991194 -0.00115383 -0.01593310
v 0.04997794 -0.00068876 -0.01593310
v 0.04755791 -0.00451573 -0.01593310
v -0.04922595 0.04389189 -0.01593310
v 0.03082847 -0.01069846 -0.01593310
v 0.04997794 0.04168876 -0.01593310
v 0.04997794 0.04168876 -0.02251889
v 0.04991194 0.04215383 -0.01593310
v -0.04895653 0.04427666 -0.01593310
v -0.04895653 0.04427666 -0.02251889
v 0.02955414 -0.01098097 -0.01593310
v 0.02911837 -0.01100000 -0.01593310
v 0.04980259 0.04261064 -0.01593310
v 0.04831561 0.04496211 -0.01593310
v 0.04753183 -0.00452435 -0.02262701
v -0.04962614 0.04297402 -0.02283819
v -0.04968626 0.04249549 -0.02303444
v -0.04943521 0.04341232 -0.02283819
v -0.04935382 0.04337208 -0.02303444
v -0.04671010 -0.00491802 -0.01593310
v -0.04714346 -0.00473681 -0.01593310
v -0.04978753 0.04203724 -0.02303444
v -0.04984410 0.04157136 -0.02303444
v -0.04920287 0.04383014 -0.02283819
v -0.04966960 0.04299050 -0.02262701
v -0.04977387 0.04251934 -0.02283819
v -0.04865705 0.04462064 -0.02262701
v -0.04912574 0.04378223 -0.02303444
v -0.04893129 0.04422359 -0.02283819
v -0.04947688 0.04343292 -0.02262701
v -0.04755791 -0.00451573 -0.01593310
v -0.04794978 -0.00425674 -0.01593310
v -0.04865219 0.04463446 -0.01593310
v -0.04831561 0.04496211 -0.02251889
v -0.04865219 0.04463446 -0.02251889
v -0.04831561 0.04496211 -0.01593310
v -0.04895653 -0.00327666 -0.01593310
v -0.02998661 -0.01092404 -0.01593310
v -0.04831561 -0.00396211 -0.01593310
v -0.04865219 -0.00363446 -0.01593310
v -0.04794978 0.04525674 -0.01593310
v -0.02955414 0.05198097 -0.01593310
v 0.04862301 -0.00358899 -0.02283819
v 0.04954124 -0.00194182 -0.02303444
v 0.03030242 -0.01080388 -0.02283819
v -0.02935965 0.05198831 -0.02262701
v 0.03031354 -0.01084902 -0.02262701
v 0.04583816 -0.00219617 -0.02576079
f 1 2 3
f 4 5 6
f 7 8 9
f 8 10 11
f 12 13 14
f 13 12 15
f 16 17 18
f 19 20 21
f 17 22 18
f 23 24 25
f 26 27 28
f 29 30 31
f 32 33 30
f 34 35 36
f 37 38 39
f 40 41 42
f 43 41 40
f 44 45 46
f 47 48 34
f 43 37 41
f 49 34 50
f 49 50 51
f 52 53 54
f 55 56 52
f 57 58 59
f 30 60 44
f 31 44 56
f 33 61 60
f 62 49 51
f 42 58 57
f 63 64 65
f 58 66 59
f 56 53 52
f 47 34 49
f 67 68 69
f 70 71 72
f 73 74 7
f 74 73 75
f 75 73 76
f 76 73 77
f 76 77 78
f 78 77 2
f 78 2 79
f 79 2 1
f 79 1 80
f 80 1 81
f 80 81 82
f 82 81 83
f 82 83 84
f 84 83 85
f 84 85 86
f 86 85 87
f 86 87 88
f 88 87 89
f 88 89 90
f 90 89 91
f 90 91 92
f 92 91 93
f 92 93 94
f 94 93 95
f 94 95 96
f 96 95 97
f 96 97 98
f 98 97 99
f 98 99 100
f 100 99 61
f 100 61 101
f 101 61 102
f 101 102 103
f 103 102 104
f 103 104 105
f 105 104 106
f 105 106 107
f 107 106 108
f 107 108 109
f 109 108 110
f 109 110 111
f 111 110 66
f 111 66 112
f 112 66 65
f 112 65 113
f 113 65 64
f 113 64 114
f 114 64 115
f 114 115 116
f 116 115 117
f 116 117 118
f 116 118 119
f 120 121 122
f 123 68 124
f 125 126 127
f 128 129 130
f 131 132 133
f 127 126 134
f 25 135 136
f 137 138 139
f 135 140 141
f 142 129 128
f 137 93 138
f 71 143 142
f 143 71 144
f 145 146 147
f 148 149 150
f 151 152 27
f 153 154 155
f 156 145 157
f 158 159 160
f 159 158 54
f 161 162 131
f 163 164 149
f 7 165 8
f 165 7 74
f 38 118 117
f 118 38 166
f 167 168 169
f 170 171 172
f 157 173 174
f 147 173 157
f 175 176 177
f 170 178 179
f 180 181 182
f 183 184 185
f 186 187 188
f 173 174 157
f 189 190 191
f 192 193 184
f 194 195 196
f 197 198 199
f 21 196 195
f 200 201 188
f 182 197 199
f 170 171 172
f 171 172 170
f 202 203 180
f 204 205 206
f 207 208 209
f 208 207 210
f 195 196 194
f 188 200 201
f 211 212 213
f 214 187 186
f 178 179 170
f 147 173 157
f 195 196 194
f 200 188 187
f 202 203 180
f 215 206 205
f 214 187 186
f 19 21 216
f 217 218 126
f 147 173 157
f 171 19 219
f 69 215 220
f 221 222 223
f 222 221 224
f 135 225 140
f 226 144 227
f 95 93 137
f 159 67 228
f 157 174 229
f 230 231 62
f 120 122 232
f 157 174 229
f 233 234 235
f 234 233 134
f 236 237 238
f 157 147 173
f 217 218 126
f 21 216 19
f 239 233 240
f 236 241 237
f 241 236 242
f 243 244 245
f 246 247 248
f 229 231 230
f 249 236 250
f 245 244 204
f 229 231 230
f 251 252 253
f 237 233 239
f 254 194 196
f 255 220 215
f 196 254 194
f 254 173 147
f 256 128 130
f 128 256 72
f 60 97 45
f 137 139 123
f 257 25 136
f 72 142 128
f 142 72 71
f 258 259 178
f 68 70 69
f 93 91 138
f 124 67 159
f 67 69 220
f 260 261 129
f 1 3 225
f 13 262 153
f 70 72 256
f 226 89 144
f 232 122 263
f 259 6 264
f 6 259 265
f 174 266 229
f 173 174 157
f 250 236 238
f 265 4 6
f 4 265 267
f 147 173 157
f 237 233 239
f 157 174 229
f 174 266 229
f 250 236 238
f 249 236 250
f 21 216 19
f 243 244 245
f 254 194 196
f 147 194 254
f 204 205 206
f 229 231 230
f 238 237 239
f 268 269 270
f 217 218 126
f 230 231 62
f 62 218 217
f 196 195 21
f 254 194 196
f 194 254 147
f 229 231 230
f 239 233 240
f 186 187 188
f 271 272 202
f 273 158 160
f 158 273 274
f 199 198 175
f 187 200 188
f 19 219 171
f 267 223 4
f 223 267 221
f 173 147 254
f 275 211 276
f 230 62 217
f 147 194 254
f 176 275 177
f 276 211 213
f 19 219 171
f 214 186 212
f 194 195 196
f 21 196 195
f 176 275 177
f 214 186 212
f 254 173 147
f 218 234 126
f 220 215 255
f 198 176 175
f 217 218 126
f 194 195 196
f 198 176 175
f 277 278 279
f 177 275 276
f 189 191 280
f 176 275 177
f 281 282 283
f 187 200 188
f 284 285 286
f 287 167 288
f 211 214 212
f 175 176 177
f 186 187 188
f 289 290 285
f 168 189 169
f 291 292 293
f 294 295 296
f 295 294 297
f 76 298 299
f 300 301 302
f 303 304 305
f 306 280 307
f 308 309 310
f 311 312 313
f 310 309 314
f 190 315 191
f 316 317 318
f 319 320 321
f 322 323 324
f 325 113 114
f 323 326 327
f 328 329 330
f 331 332 333
f 334 335 336
f 318 325 337
f 338 339 340
f 101 341 100
f 342 343 344
f 345 311 346
f 347 185 348
f 349 350 351
f 352 353 354
f 355 356 198
f 24 225 135
f 357 85 358
f 359 54 158
f 73 7 9
f 11 360 361
f 81 225 24
f 355 362 356
f 261 25 257
f 361 360 363
f 358 83 23
f 361 363 364
f 365 361 364
f 141 366 367
f 13 153 14
f 368 369 370
f 241 127 134
f 146 371 372
f 373 374 375
f 376 265 258
f 193 277 301
f 377 244 243
f 162 378 379
f 370 273 380
f 381 382 383
f 371 384 385
f 379 378 386
f 387 388 389
f 390 391 392
f 393 394 395
f 386 396 371
f 397 398 242
f 131 156 132
f 209 369 368
f 153 399 154
f 400 401 341
f 399 125 154
f 402 403 404
f 405 406 407
f 408 409 311
f 410 411 103
f 412 262 413
f 377 414 244
f 415 390 384
f 349 416 350
f 398 127 241
f 417 397 242
f 385 148 418
f 408 419 409
f 420 341 411
f 122 421 422
f 423 230 217
f 424 425 319
f 426 397 417
f 384 390 392
f 242 398 241
f 427 428 378
f 156 379 145
f 429 430 275
f 161 431 162
f 396 415 384
f 351 350 432
f 262 133 399
f 146 372 194
f 428 415 396
f 384 392 385
f 238 433 434
f 121 421 122
f 435 436 437
f 438 436 435
f 239 439 433
f 440 441 442
f 433 443 444
f 445 446 436
f 439 240 447
f 240 439 239
f 448 364 449
f 250 238 434
f 436 450 437
f 366 442 247
f 450 451 452
f 445 434 446
f 453 454 168
f 283 282 455
f 283 455 315
f 343 456 344
f 312 457 458
f 305 304 459
f 460 461 462
f 461 460 344
f 187 188 186
f 193 301 300
f 190 283 315
f 463 453 168
f 453 463 464
f 304 465 466
f 467 271 468
f 462 469 470
f 469 462 461
f 471 354 472
f 211 214 212
f 288 167 329
f 473 474 338
f 194 254 147
f 287 463 167
f 465 475 476
f 275 211 276
f 214 187 186
f 168 454 189
f 179 477 478
f 477 179 468
f 180 181 182
f 339 465 340
f 197 198 199
f 479 373 480
f 214 186 212
f 187 200 188
f 281 338 282
f 481 344 460
f 344 481 342
f 295 281 296
f 454 296 190
f 192 278 193
f 196 254 194
f 296 281 283
f 473 338 281
f 313 312 458
f 340 465 304
f 329 169 306
f 179 264 468
f 264 179 259
f 482 483 484
f 313 458 84
f 485 279 475
f 176 275 177
f 175 176 177
f 271 272 202
f 329 306 330
f 254 173 147
f 288 329 328
f 173 147 254
f 173 174 157
f 271 272 202
f 167 169 329
f 169 189 280
f 177 275 276
f 470 486 201
f 486 470 469
f 188 200 201
f 296 283 190
f 487 488 489
f 50 490 51
f 487 489 48
f 490 491 492
f 493 115 64
f 494 495 496
f 497 110 498
f 130 499 269
f 500 501 502
f 501 500 503
f 20 40 495
f 504 505 43
f 110 108 498
f 506 487 507
f 478 508 504
f 508 478 477
f 509 510 29
f 510 509 491
f 50 511 490
f 34 36 50
f 440 448 441
f 488 59 497
f 29 512 32
f 512 29 510
f 507 487 48
f 50 36 511
f 48 489 35
f 48 35 34
f 495 42 57
f 59 66 110
f 330 306 513
f 161 131 133
f 446 444 451
f 514 330 513
f 515 285 516
f 285 515 286
f 517 518 121
f 434 444 446
f 519 303 305
f 421 520 422
f 262 399 153
f 521 522 523
f 522 521 524
f 525 517 121
f 191 315 526
f 75 299 527
f 346 311 313
f 282 303 455
f 520 248 528
f 529 530 531
f 499 532 251
f 488 497 489
f 367 366 246
f 130 269 268
f 499 257 532
f 51 490 492
f 496 57 488
f 218 51 492
f 36 533 534
f 366 440 442
f 210 437 208
f 490 510 491
f 365 364 448
f 364 363 535
f 489 497 498
f 436 446 450
f 136 367 532
f 434 433 444
f 363 500 536
f 504 537 505
f 537 504 508
f 106 104 534
f 206 130 268
f 130 206 256
f 35 498 533
f 506 496 487
f 490 511 510
f 533 106 534
f 507 48 47
f 108 106 533
f 43 505 37
f 538 491 509
f 491 538 492
f 489 498 35
f 41 493 63
f 493 64 63
f 498 108 533
f 40 42 495
f 496 488 487
f 28 448 440
f 87 357 143
f 518 539 540
f 541 542 543
f 363 536 535
f 544 545 546
f 545 544 547
f 518 540 421
f 11 10 360
f 548 445 438
f 517 549 518
f 550 551 552
f 499 251 269
f 366 247 246
f 539 253 540
f 27 553 365
f 422 520 528
f 554 443 359
f 443 554 444
f 555 556 557
f 558 440 366
f 549 539 518
f 559 555 560
f 208 450 452
f 559 556 555
f 250 434 445
f 553 361 365
f 561 562 563
f 140 26 558
f 151 27 26
f 73 9 152
f 549 564 539
f 553 11 361
f 143 357 260
f 444 554 451
f 152 553 27
f 3 26 140
f 358 23 261
f 3 151 26
f 565 566 404
f 563 567 568
f 261 23 25
f 10 569 360
f 337 114 116
f 141 558 366
f 570 470 200
f 260 358 261
f 571 572 529
f 412 161 262
f 573 255 414
f 530 243 574
f 273 160 380
f 369 273 370
f 414 205 244
f 156 157 229
f 255 575 220
f 575 255 573
f 485 475 339
f 14 153 155
f 479 395 373
f 558 28 440
f 154 127 398
f 238 239 433
f 435 437 210
f 367 246 576
f 171 577 172
f 577 171 219
f 578 579 580
f 532 252 251
f 572 581 377
f 564 582 539
f 532 576 252
f 583 268 270
f 394 584 374
f 564 270 582
f 581 573 414
f 274 554 158
f 155 154 398
f 540 585 520
f 249 250 548
f 421 540 520
f 540 253 585
f 443 439 586
f 439 443 433
f 585 248 520
f 500 502 536
f 560 555 587
f 539 582 253
f 464 588 453
f 249 236 250
f 157 174 229
f 485 474 589
f 252 585 253
f 582 251 253
f 236 237 238
f 590 441 591
f 252 576 585
f 174 266 229
f 238 237 239
f 243 244 245
f 380 160 228
f 230 231 62
f 205 215 206
f 174 266 229
f 236 237 238
f 442 441 590
f 380 160 228
f 447 586 439
f 590 441 591
f 270 269 582
f 243 244 245
f 449 545 547
f 592 442 590
f 552 328 514
f 328 552 551
f 583 206 268
f 206 583 204
f 244 205 204
f 252 576 585
f 593 594 595
f 554 359 158
f 236 237 238
f 235 447 240
f 160 228 380
f 596 243 245
f 245 244 204
f 233 235 240
f 277 279 597
f 596 243 245
f 302 301 598
f 592 442 590
f 215 206 205
f 244 205 204
f 248 247 592
f 204 205 206
f 228 220 575
f 599 245 600
f 245 599 596
f 238 237 239
f 247 442 592
f 249 236 250
f 575 228 220
f 247 442 592
f 574 243 596
f 204 205 206
f 588 297 294
f 582 251 253
f 269 251 582
f 582 251 253
f 536 502 601
f 279 485 602
f 562 603 567
f 297 604 295
f 596 243 245
f 248 247 592
f 600 204 583
f 204 600 245
f 484 483 605
f 602 485 589
f 606 574 596
f 501 464 463
f 607 501 287
f 501 607 502
f 576 246 585
f 449 545 547
f 598 301 608
f 2 151 3
f 609 336 610
f 611 612 613
f 614 460 615
f 382 598 608
f 237 134 233
f 134 237 241
f 194 254 147
f 173 174 157
f 217 218 126
f 230 62 217
f 62 218 217
f 244 205 204
f 170 178 179
f 229 266 231
f 439 447 586
f 229 266 231
f 244 205 204
f 606 574 596
f 217 62 218
f 443 586 359
f 250 236 238
f 230 62 217
f 603 616 567
f 237 233 239
f 174 266 229
f 605 302 598
f 484 483 605
f 359 158 554
f 617 596 599
f 596 617 606
f 443 586 359
f 359 158 554
f 249 242 236
f 242 249 417
f 217 218 126
f 62 218 217
f 157 174 229
f 229 266 231
f 586 359 443
f 233 235 240
f 592 442 590
f 575 228 220
f 618 277 597
f 596 243 245
f 439 447 586
f 157 174 229
f 229 231 230
f 229 266 231
f 616 484 619
f 484 616 482
f 249 236 250
f 250 236 238
f 229 231 230
f 369 274 273
f 274 369 452
f 209 452 369
f 452 209 208
f 229 266 231
f 580 620 469
f 302 605 483
f 602 485 589
f 598 301 608
f 456 580 461
f 608 301 277
f 473 621 474
f 622 287 288
f 287 622 607
f 562 603 567
f 473 621 474
f 562 603 567
f 593 594 595
f 461 580 469
f 623 624 619
f 461 580 469
f 442 441 590
f 594 625 603
f 625 594 626
f 461 580 469
f 567 616 624
f 627 579 628
f 562 603 567
f 623 624 619
f 593 626 594
f 626 593 348
f 457 629 630
f 624 616 619
f 620 627 486
f 631 632 623
f 343 456 344
f 461 580 469
f 94 432 92
f 297 294 588
f 469 620 486
f 410 420 411
f 589 474 621
f 604 295 297
f 515 516 628
f 584 633 289
f 633 584 634
f 635 636 637
f 350 416 323
f 393 638 394
f 638 393 639
f 344 456 461
f 419 640 409
f 641 631 636
f 579 628 627
f 632 623 631
f 628 515 516
f 469 620 486
f 394 634 584
f 634 394 638
f 456 580 461
f 344 456 461
f 501 464 463
f 456 580 461
f 624 616 619
f 632 623 631
f 92 322 90
f 567 616 624
f 641 631 636
f 627 579 628
f 343 456 344
f 580 620 469
f 616 619 624
f 456 580 461
f 342 343 344
f 407 416 349
f 637 635 636
f 515 516 628
f 594 603 562
f 289 637 290
f 637 289 633
f 621 473 604
f 603 616 567
f 485 474 589
f 285 290 516
f 639 18 638
f 636 641 631
f 516 285 290
f 39 117 115
f 60 99 97
f 251 252 253
f 606 574 596
f 595 594 562
f 593 594 595
f 245 244 204
f 589 474 621
f 582 251 253
f 585 246 248
f 535 536 642
f 270 269 582
f 297 604 295
f 574 243 596
f 441 449 591
f 567 616 624
f 597 279 602
f 623 624 619
f 483 302 605
f 268 269 270
f 270 269 582
f 608 277 618
f 535 536 642
f 605 302 598
f 277 279 597
f 585 246 248
f 616 619 624
f 269 251 582
f 464 588 453
f 595 594 562
f 302 301 598
f 245 244 204
f 635 636 637
f 545 535 546
f 269 251 582
f 596 243 245
f 594 603 562
f 239 233 240
f 246 247 248
f 574 243 596
f 545 535 546
f 574 243 596
f 606 574 596
f 302 605 483
f 351 432 94
f 618 277 597
f 501 464 463
f 285 290 516
f 594 603 562
f 551 288 328
f 288 551 622
f 588 453 464
f 580 620 469
f 469 620 486
f 562 603 567
f 343 456 344
f 343 456 344
f 486 620 627
f 627 579 628
f 279 485 602
f 535 536 642
f 464 463 501
f 588 297 294
f 285 290 516
f 603 482 616
f 482 603 625
f 486 620 627
f 302 301 598
f 562 603 567
f 567 616 624
f 603 616 567
f 344 456 461
f 536 502 601
f 473 621 474
f 590 441 591
f 595 594 562
f 457 383 629
f 605 302 598
f 474 589 485
f 597 279 602
f 608 277 618
f 616 619 624
f 302 301 598
f 616 619 624
f 603 616 567
f 643 644 645
f 316 318 643
f 293 646 647
f 648 112 113
f 611 610 612
f 649 598 382
f 317 650 318
f 648 613 112
f 613 612 111
f 613 111 112
f 651 652 634
f 522 653 523
f 336 335 654
f 655 656 203
f 657 658 659
f 336 654 610
f 438 445 436
f 22 660 651
f 641 632 631
f 632 641 660
f 446 451 450
f 643 337 644
f 661 613 648
f 477 662 316
f 532 367 576
f 633 635 637
f 586 52 359
f 663 664 665
f 437 450 208
f 452 451 274
f 335 666 663
f 528 592 667
f 668 666 335
f 669 670 671
f 609 610 611
f 662 672 317
f 673 653 420
f 600 583 564
f 130 129 499
f 632 624 623
f 624 632 568
f 54 124 159
f 124 54 53
f 674 43 40
f 123 139 68
f 31 30 44
f 538 509 31
f 53 123 124
f 123 53 46
f 174 507 47
f 152 9 553
f 227 71 70
f 69 70 256
f 538 31 55
f 68 227 70
f 138 91 226
f 569 503 500
f 503 569 314
f 139 227 68
f 136 135 141
f 8 310 10
f 310 8 527
f 527 8 165
f 161 133 262
f 227 144 71
f 143 260 142
f 124 68 67
f 155 398 397
f 418 148 150
f 44 60 45
f 142 260 129
f 91 89 226
f 426 155 397
f 61 99 60
f 81 1 225
f 129 257 499
f 46 137 123
f 137 46 45
f 32 102 33
f 77 73 152
f 136 141 367
f 385 392 148
f 389 214 211
f 18 651 638
f 635 641 636
f 641 635 652
f 9 11 553
f 9 8 11
f 26 28 558
f 595 562 561
f 2 77 151
f 675 565 676
f 561 563 17
f 677 678 679
f 634 652 633
f 21 20 494
f 18 22 651
f 680 595 561
f 16 18 639
f 332 681 333
f 141 140 558
f 85 83 358
f 682 683 675
f 182 199 657
f 655 684 656
f 680 561 685
f 677 686 678
f 566 402 404
f 687 682 688
f 77 152 151
f 685 561 17
f 22 568 660
f 460 462 615
f 638 651 634
f 689 647 690
f 567 624 568
f 171 20 19
f 182 657 672
f 675 683 565
f 681 686 677
f 691 637 405
f 637 691 290
f 388 214 389
f 628 516 425
f 468 271 477
f 333 681 677
f 180 182 672
f 692 655 272
f 615 462 570
f 5 684 655
f 409 381 312
f 223 332 331
f 481 460 614
f 693 694 695
f 630 629 696
f 683 566 565
f 637 636 405
f 293 647 689
f 308 689 309
f 197 355 198
f 184 300 697
f 698 302 483
f 516 290 691
f 699 403 402
f 27 365 28
f 651 660 652
f 672 700 317
f 6 5 692
f 679 678 362
f 660 641 652
f 4 331 5
f 685 17 16
f 462 470 570
f 466 465 476
f 318 650 325
f 654 701 702
f 644 337 116
f 121 518 421
f 692 5 655
f 527 308 310
f 5 331 684
f 346 313 86
f 703 292 291
f 401 349 351
f 349 401 321
f 185 697 626
f 298 291 704
f 422 528 705
f 704 689 308
f 320 405 407
f 405 320 691
f 271 692 272
f 692 271 467
f 419 706 640
f 706 419 707
f 328 330 514
f 76 299 75
f 202 180 672
f 548 250 445
f 368 573 581
f 56 46 53
f 266 47 49
f 139 226 227
f 31 56 55
f 10 314 569
f 314 10 310
f 225 3 140
f 30 33 60
f 102 61 33
f 256 206 215
f 196 506 254
f 196 195 21
f 214 186 212
f 453 294 454
f 294 453 588
f 229 266 231
f 177 275 276
f 255 220 215
f 295 473 281
f 473 295 604
f 174 266 229
f 200 201 188
f 501 463 287
f 170 171 172
f 199 198 175
f 87 85 357
f 144 87 143
f 87 144 89
f 129 261 257
f 360 500 363
f 486 627 522
f 697 300 698
f 188 201 524
f 276 334 708
f 352 354 471
f 629 709 696
f 458 457 630
f 710 623 706
f 455 303 519
f 697 698 625
f 188 524 711
f 712 703 291
f 199 658 657
f 175 177 658
f 105 410 103
f 410 105 713
f 177 276 708
f 186 188 711
f 276 213 334
f 430 389 211
f 474 485 339
f 627 628 424
f 714 703 712
f 693 570 694
f 709 471 703
f 202 672 662
f 458 630 82
f 626 697 625
f 321 407 349
f 407 321 320
f 524 486 522
f 486 524 201
f 627 424 522
f 516 691 425
f 341 401 98
f 704 293 689
f 513 306 307
f 352 471 709
f 86 313 84
f 710 631 623
f 212 186 668
f 645 644 119
f 474 339 338
f 299 704 308
f 351 94 96
f 315 455 715
f 716 523 673
f 523 716 521
f 713 673 410
f 673 713 716
f 98 351 96
f 351 98 401
f 526 315 715
f 88 345 346
f 280 191 717
f 348 185 626
f 718 466 719
f 686 687 678
f 459 304 466
f 640 619 484
f 619 640 706
f 307 280 717
f 88 346 86
f 720 476 192
f 459 466 718
f 706 623 619
f 299 308 527
f 345 327 408
f 327 345 324
f 213 212 668
f 88 324 345
f 324 88 90
f 625 698 482
f 564 583 270
f 466 476 720
f 476 278 192
f 451 554 274
f 528 248 592
f 408 707 419
f 707 408 327
f 198 356 176
f 566 721 402
f 721 566 722
f 412 723 431
f 723 412 724
f 725 14 426
f 14 725 12
f 686 726 687
f 726 686 727
f 670 695 403
f 728 480 729
f 480 728 730
f 495 57 496
f 674 40 20
f 478 504 43
f 37 39 493
f 84 458 82
f 82 630 696
f 719 720 731
f 684 732 656
f 177 708 658
f 615 570 693
f 689 690 309
f 312 381 457
f 406 636 631
f 271 662 477
f 213 668 334
f 223 331 4
f 720 192 183
f 309 690 503
f 731 720 183
f 715 455 519
f 356 429 176
f 199 175 658
f 405 636 406
f 731 183 347
f 186 711 668
f 291 293 704
f 733 676 429
f 628 425 424
f 570 200 694
f 271 202 662
f 406 631 710
f 734 513 735
f 513 734 514
f 342 343 344
f 736 16 639
f 16 736 737
f 738 552 739
f 552 738 587
f 682 740 683
f 740 682 741
f 739 514 734
f 514 739 552
f 742 593 680
f 593 742 743
f 735 307 744
f 307 735 513
f 745 435 210
f 435 745 746
f 746 438 435
f 438 746 747
f 748 249 548
f 249 748 749
f 750 210 207
f 210 750 745
f 751 526 752
f 526 751 717
f 343 456 344
f 747 548 438
f 548 747 748
f 753 531 606
f 531 753 754
f 749 417 249
f 417 749 755
f 756 606 617
f 606 756 753
f 757 617 525
f 617 757 756
f 758 759 760
f 759 758 761
f 762 519 763
f 519 762 715
f 764 560 765
f 560 764 766
f 767 525 120
f 525 767 757
f 768 671 699
f 671 768 769
f 428 770 415
f 770 428 771
f 752 715 762
f 715 752 526
f 772 481 773
f 481 772 774
f 427 771 428
f 771 427 775
f 754 529 531
f 529 754 776
f 332 777 681
f 777 332 778
f 769 669 671
f 669 769 779
f 760 766 764
f 766 760 759
f 681 727 686
f 727 681 777
f 744 717 751
f 717 744 307
f 779 773 669
f 773 779 772
f 683 722 566
f 722 683 740
f 780 761 758
f 761 780 543
f 774 342 481
f 342 774 781
f 391 782 783
f 782 391 784
f 785 543 780
f 543 785 786
f 783 224 221
f 224 783 782
f 787 393 479
f 393 787 788
f 223 778 332
f 778 223 222
f 390 784 391
f 784 390 789
f 721 699 402
f 699 721 768
f 730 479 480
f 479 730 787
f 431 775 427
f 775 431 723
f 568 632 660
f 357 358 260
f 790 412 413
f 412 790 724
f 415 789 390
f 789 415 770
f 687 741 682
f 741 687 726
f 781 729 342
f 729 781 728
f 383 352 629
f 416 710 326
f 356 733 429
f 202 655 203
f 655 202 272
f 122 422 263
f 617 517 525
f 670 693 695
f 652 635 633
f 614 615 791
f 407 406 416
f 695 388 387
f 792 544 793
f 794 544 792
f 74 527 165
f 527 74 75
f 794 795 544
f 796 347 348
f 347 796 797
f 364 535 545
f 795 449 547
f 449 795 591
f 798 601 799
f 799 607 622
f 601 502 607
f 800 795 794
f 801 559 766
f 801 802 559
f 793 642 798
f 803 541 786
f 793 535 642
f 535 793 546
f 559 802 556
f 667 590 804
f 805 804 800
f 555 550 587
f 792 793 802
f 759 801 766
f 805 667 804
f 806 801 759
f 364 545 449
f 807 719 731
f 719 807 808
f 342 343 344
f 809 810 811
f 810 809 812
f 342 343 344
f 766 559 560
f 763 305 813
f 305 763 519
f 667 592 590
f 786 541 543
f 798 536 601
f 536 798 642
f 804 590 591
f 800 804 795
f 814 680 685
f 680 814 742
f 344 456 461
f 550 557 551
f 343 456 344
f 737 685 16
f 685 737 814
f 448 449 441
f 788 639 393
f 639 788 736
f 344 456 461
f 15 413 13
f 413 15 790
f 815 459 718
f 459 815 816
f 813 459 816
f 459 813 305
f 555 557 550
f 812 232 810
f 232 812 817
f 761 806 759
f 817 120 232
f 120 817 767
f 797 731 347
f 731 797 807
f 818 207 571
f 207 818 750
f 808 718 719
f 718 808 815
f 755 426 417
f 426 755 725
f 743 348 593
f 348 743 796
f 765 587 738
f 587 765 560
f 809 786 785
f 786 809 811
f 776 571 529
f 571 776 818
f 733 675 676
f 791 693 670
f 430 211 275
f 409 649 381
f 78 298 76
f 345 408 311
f 82 696 80
f 404 387 819
f 470 201 200
f 176 429 275
f 694 200 187
f 182 820 197
f 820 182 181
f 185 184 697
f 656 820 181
f 6 692 264
f 688 682 675
f 298 704 299
f 323 327 324
f 383 353 352
f 710 706 326
f 347 183 185
f 264 467 468
f 326 706 707
f 773 614 791
f 791 615 693
f 180 656 181
f 656 180 203
f 278 475 279
f 331 333 684
f 403 695 387
f 563 568 22
f 432 322 92
f 695 694 388
f 679 362 355
f 678 687 688
f 671 403 699
f 333 677 732
f 162 427 378
f 264 692 467
f 676 819 430
f 593 595 680
f 416 326 323
f 431 427 162
f 429 676 430
f 773 791 669
f 403 387 404
f 565 404 819
f 732 679 820
f 676 565 819
f 684 333 732
f 820 679 355
f 362 733 356
f 819 389 430
f 17 563 22
f 656 732 820
f 481 614 773
f 671 670 403
f 653 319 400
f 413 262 13
f 719 466 720
f 432 350 322
f 372 418 195
f 134 126 234
f 577 258 172
f 322 324 90
f 150 149 577
f 549 600 564
f 577 376 258
f 154 125 127
f 166 119 118
f 119 166 645
f 156 229 132
f 148 163 149
f 231 49 62
f 164 221 267
f 170 258 178
f 258 170 172
f 150 577 219
f 131 379 156
f 372 385 418
f 194 372 195
f 379 386 145
f 694 187 388
f 386 371 146
f 159 228 160
f 423 217 125
f 617 599 517
f 149 164 376
f 62 51 218
f 258 265 259
f 688 675 733
f 696 709 714
f 326 707 327
f 629 352 709
f 311 409 312
f 517 599 549
f 80 696 714
f 45 95 137
f 95 45 97
f 67 220 228
f 164 267 376
f 783 221 164
f 388 187 214
f 376 267 265
f 820 355 197
f 381 383 457
f 266 49 231
f 174 47 266
f 232 263 810
f 163 783 164
f 712 291 298
f 599 600 549
f 387 389 819
f 669 791 670
f 362 688 733
f 678 688 362
f 32 104 102
f 104 32 512
f 56 44 46
f 20 495 494
f 35 533 36
f 534 104 512
f 58 65 66
f 36 534 511
f 59 110 497
f 494 496 506
f 38 117 39
f 41 63 42
f 42 63 58
f 505 38 37
f 37 493 41
f 478 43 674
f 509 29 31
f 511 534 512
f 57 59 488
f 63 65 58
f 511 512 510
f 505 166 38
f 166 505 645
f 645 505 537
f 562 567 563
f 378 396 386
f 178 259 179
f 257 136 532
f 133 423 399
f 21 418 216
f 418 21 195
f 396 384 371
f 173 507 174
f 525 121 120
f 25 24 135
f 218 492 234
f 132 230 423
f 19 150 219
f 150 19 216
f 821 578 456
f 456 578 580
f 294 296 454
f 169 280 306
f 286 515 578
f 383 382 353
f 278 277 193
f 821 286 578
f 529 572 530
f 729 343 342
f 340 304 303
f 822 209 368
f 370 575 573
f 649 605 598
f 823 375 821
f 480 823 729
f 353 597 354
f 708 334 336
f 480 373 823
f 690 464 503
f 579 515 628
f 515 579 578
f 824 521 716
f 375 284 286
f 729 823 343
f 581 414 377
f 647 588 690
f 659 609 611
f 698 483 482
f 300 302 698
f 375 286 821
f 354 597 602
f 612 702 111
f 664 716 713
f 640 605 649
f 711 524 824
f 107 665 105
f 353 618 597
f 653 424 319
f 661 611 613
f 732 677 679
f 610 654 702
f 664 713 665
f 700 659 661
f 666 711 824
f 472 589 621
f 702 701 109
f 646 604 647
f 690 588 464
f 824 524 521
f 284 289 285
f 316 643 537
f 665 713 105
f 317 700 650
f 537 643 645
f 335 663 654
f 319 321 400
f 666 664 663
f 640 484 605
f 334 668 335
f 354 589 472
f 392 391 163
f 392 163 148
f 374 284 375
f 157 145 147
f 14 155 426
f 125 217 126
f 147 146 194
f 378 428 396
f 207 209 822
f 391 783 163
f 531 530 574
f 133 132 423
f 145 386 146
f 531 574 606
f 149 376 577
f 371 385 372
f 132 229 230
f 418 150 216
f 571 822 572
f 412 431 161
f 399 423 125
f 131 162 379
f 472 621 646
f 530 377 243
f 822 368 581
f 395 394 374
f 207 822 571
f 368 370 573
f 572 377 530
f 205 255 215
f 255 205 414
f 620 579 627
f 579 620 580
f 184 193 300
f 292 472 646
f 374 584 284
f 354 602 589
f 584 289 284
f 822 581 572
f 393 395 479
f 373 375 823
f 647 604 297
f 823 821 343
f 382 608 618
f 575 380 228
f 380 575 370
f 339 475 465
f 610 702 612
f 395 374 373
f 343 821 456
f 705 667 805
f 542 806 761
f 83 81 23
f 171 674 20
f 541 805 800
f 544 546 793
f 586 55 52
f 179 478 170
f 235 492 538
f 492 235 234
f 705 528 667
f 196 494 506
f 806 794 792
f 235 538 447
f 802 798 556
f 811 263 803
f 810 263 811
f 556 799 557
f 556 798 799
f 557 622 551
f 802 793 798
f 542 800 794
f 69 256 215
f 447 55 586
f 170 478 674
f 170 674 171
f 360 569 500
f 801 792 802
f 799 601 607
f 541 800 542
f 795 547 544
f 806 792 801
f 173 506 507
f 359 52 54
f 263 705 803
f 804 591 795
f 803 805 541
f 21 494 196
f 587 550 552
f 557 799 622
f 447 538 55
f 263 422 705
f 542 794 806
f 811 803 786
f 254 506 173
f 39 115 493
f 29 32 30
f 138 226 139
f 522 424 653
f 337 325 114
f 350 323 322
f 103 411 101
f 411 341 101
f 508 316 537
f 666 824 664
f 824 716 664
f 79 712 78
f 382 618 353
f 477 316 508
f 662 317 316
f 708 336 609
f 341 98 100
f 717 191 526
f 644 116 119
f 406 710 416
f 714 709 703
f 703 471 292
f 643 318 337
f 650 648 325
f 471 472 292
f 668 711 666
f 338 340 282
f 400 321 401
f 183 192 184
f 425 691 320
f 292 646 293
f 649 382 381
f 454 190 189
f 653 400 420
f 282 340 303
f 78 712 298
f 463 168 167
f 79 714 712
f 523 653 673
f 23 81 24
f 28 365 448
f 803 705 805
f 543 542 761
f 640 649 409
f 420 400 341
f 659 611 661
f 700 661 650
f 672 657 700
f 309 503 314
f 658 609 659
f 319 425 320
f 673 420 410
f 701 665 107
f 476 475 278
f 325 648 113
f 80 714 79
f 658 708 609
f 647 297 588
f 657 659 700
f 111 702 109
f 503 464 501
f 109 701 107
f 646 621 604
f 650 661 648
f 654 663 701
f 663 665 701
f 734 738 739
f 738 734 735
f 738 735 765
f 765 735 744
f 765 744 764
f 764 744 751
f 764 751 760
f 760 751 752
f 760 752 758
f 758 752 762
f 758 762 780
f 780 762 763
f 780 763 785
f 785 763 813
f 785 813 809
f 809 813 816
f 809 816 812
f 812 816 815
f 812 815 817
f 817 815 808
f 817 808 767
f 767 808 807
f 767 807 757
f 757 807 797
f 757 797 756
f 756 797 796
f 756 796 753
f 753 796 743
f 753 743 754
f 754 743 742
f 754 742 776
f 776 742 814
f 776 814 818
f 818 814 737
f 818 737 750
f 750 737 736
f 750 736 745
f 745 736 788
f 745 788 746
f 746 788 787
f 746 787 747
f 747 787 730
f 747 730 748
f 748 730 728
f 748 728 749
f 749 728 781
f 749 781 755
f 755 781 774
f 755 774 725
f 725 774 772
f 725 772 12
f 12 772 779
f 12 779 15
f 15 779 769
f 15 769 790
f 790 769 768
f 790 768 724
f 724 768 721
f 724 721 723
f 723 721 722
f 723 722 775
f 775 722 740
f 775 740 771
f 771 740 741
f 771 741 770
f 770 741 726
f 770 726 789
f 789 726 727
f 789 727 784
f 784 727 777
f 784 777 782
f 782 777 778
f 782 778 224
f 224 778 222

