# https://github.com/mikedh/trimesh
v -0.04653253 -0.04205941 -0.02591993
v -0.04642225 -0.04192093 -0.02593310
v -0.04629900 -0.04212913 -0.02593310
v 0.04992388 0.00021956 -0.02290157
v 0.04993466 0.00057794 -0.02283819
v 0.04998079 0.00021956 -0.02271398
v -0.04673879 -0.04139448 -0.02591993
v -0.04678088 -0.04121956 -0.02591389
v -0.04658579 -0.04121956 -0.02593310
v -0.04694610 -0.04141534 -0.02586208
v -0.04696847 -0.04121956 -0.02585698
v 0.04755791 -0.04551573 -0.02251889
v 0.04794978 -0.04525674 -0.02251889
v 0.04755791 -0.04551573 -0.01593310
v 0.04794978 -0.04525674 -0.01593310
v -0.02935965 0.01098831 -0.02262701
v -0.02983996 0.01094173 -0.02262701
v -0.02955414 0.01098097 -0.02251889
v 0.04937842 -0.04294766 -0.02322599
v 0.04720891 -0.04183445 -0.02564021
v 0.04952126 -0.04252916 -0.02322599
v -0.02983325 0.01089573 -0.02283819
v -0.04621218 -0.04275457 -0.02586208
v -0.04625619 -0.04243445 -0.02591993
v -0.04608306 -0.04259105 -0.02591993
v -0.04688279 -0.04225135 -0.02576079
v -0.04682523 -0.04192253 -0.02586208
v -0.04671525 -0.04215954 -0.02586208
v 0.02968559 -0.04907069 -0.02576079
v 0.02963511 -0.04888643 -0.02586208
v 0.02979162 -0.04884976 -0.02585698
v 0.02958006 -0.04868548 -0.02591993
v 0.02972746 -0.04867348 -0.02591389
v 0.04599677 -0.04290244 -0.02586208
v 0.04621218 -0.04275457 -0.02586208
v 0.04633059 -0.04290450 -0.02576079
v 0.04673879 -0.04139448 -0.02591993
v 0.04678088 -0.04121956 -0.02591389
v 0.04694610 -0.04141534 -0.02586208
v 0.04682523 -0.04192253 -0.02586208
v 0.04690264 -0.04167298 -0.02586208
v 0.04708849 -0.04171727 -0.02576079
v 0.04713619 -0.04143446 -0.02576079
v 0.02911837 -0.04896847 -0.02585698
v 0.02911837 -0.04878088 -0.02591389
v 0.02937906 -0.04893847 -0.02586208
v 0.04654330 -0.04271212 -0.02576079
v 0.04657348 -0.04288735 -0.02564021
v 0.04609413 -0.04306682 -0.02576079
v 0.04633330 -0.04308495 -0.02564021
v 0.04606859 -0.04324822 -0.02564021
v 0.02911837 -0.04929289 -0.02564021
v 0.02911837 -0.04914136 -0.02576457
v 0.02938455 -0.04927739 -0.02564021
v 0.02940453 -0.04912782 -0.02576079
v 0.02964714 -0.04923109 -0.02564021
v 0.04640692 -0.04225618 -0.02591993
v 0.04653253 -0.04205941 -0.02591993
v 0.04671525 -0.04215954 -0.02586208
v 0.02935129 -0.04873198 -0.02591993
v 0.02948407 -0.04854304 -0.02593310
v 0.04740807 -0.04526407 -0.02322599
v 0.04642225 -0.04192093 -0.02593310
v 0.04651239 -0.04169641 -0.02593310
v 0.04663080 -0.04184765 -0.02591993
v 0.04629900 -0.04212913 -0.02593310
v -0.02964714 -0.04923109 -0.02564021
v -0.02940453 -0.04912782 -0.02576079
v -0.02938455 -0.04927739 -0.02564021
v -0.02985075 -0.04901222 -0.02576457
v -0.02979162 -0.04884976 -0.02585698
v -0.02968559 -0.04907069 -0.02576079
v -0.04658579 -0.02050000 -0.02592349
v -0.04656733 -0.04146079 -0.02593310
v -0.04658579 0.00021956 -0.02593310
v -0.04656733 0.00046079 -0.02593310
v -0.04651239 -0.04169641 -0.02593310
v -0.04651239 0.00069641 -0.02593310
v -0.04642225 0.00092093 -0.02593310
v -0.04629900 0.00112913 -0.02593310
v -0.04614551 -0.04231615 -0.02593310
v -0.04614551 0.00131615 -0.02593310
v -0.04596537 -0.04247765 -0.02593310
v -0.04596537 0.00147765 -0.02593310
v -0.04576275 -0.04260986 -0.02593310
v -0.04576275 0.00160986 -0.02593310
v -0.04554237 -0.04270971 -0.02593310
v -0.04554237 0.00170971 -0.02593310
v -0.02966074 -0.04849015 -0.02593310
v -0.02966074 0.00749015 -0.02593310
v -0.02948407 -0.04854304 -0.02593310
v -0.02948407 0.00754304 -0.02593310
v -0.02930246 -0.04857506 -0.02593310
v -0.02930246 0.00757506 -0.02593310
v -0.02911837 -0.04858579 -0.02593310
v -0.02911837 0.00758579 -0.02593310
v 0.02911837 -0.04858579 -0.02593310
v 0.02911837 0.00758579 -0.02593310
v 0.02930246 -0.04857506 -0.02593310
v 0.02930246 0.00757506 -0.02593310
v 0.02948407 0.00754304 -0.02593310
v 0.02966074 -0.04849015 -0.02593310
v 0.02966074 0.00749015 -0.02593310
v 0.04554237 -0.04270971 -0.02593310
v 0.04554237 0.00170971 -0.02593310
v 0.04576275 -0.04260986 -0.02593310
v 0.04576275 0.00160986 -0.02593310
v 0.04596537 -0.04247765 -0.02593310
v 0.04596537 0.00147765 -0.02593310
v 0.04614551 -0.04231615 -0.02593310
v 0.04614551 0.00131615 -0.02593310
v 0.04629900 0.00112913 -0.02593310
v 0.04642225 0.00092093 -0.02593310
v 0.04651239 0.00069641 -0.02593310
v 0.04656733 -0.04146079 -0.02593310
v 0.04656733 0.00046079 -0.02593310
v 0.04658579 -0.04121956 -0.02593310
v 0.04658579 -0.02050000 -0.02592349
v 0.04658579 0.00021956 -0.02593310
v -0.04793548 -0.04525990 -0.02262701
v -0.04753183 -0.04552435 -0.02262701
v -0.04755791 -0.04551573 -0.02251889
v -0.02911837 -0.04914136 -0.02576457
v -0.02911837 -0.04896847 -0.02585698
v 0.04704668 -0.04562412 -0.02303444
v 0.04699154 -0.04550544 -0.02320659
v 0.04746223 -0.04540602 -0.02303444
v -0.04578422 -0.04337417 -0.02564021
v -0.04583816 -0.04319617 -0.02576079
v -0.04573239 -0.04323177 -0.02576457
v 0.04828090 -0.04492293 -0.02283819
v 0.04822069 -0.04485497 -0.02303444
v 0.04862301 -0.04458899 -0.02283819
v 0.04665246 -0.04575965 -0.02307446
v -0.04633059 -0.04290450 -0.02576079
v -0.04640596 -0.04257930 -0.02586208
v -0.02937906 -0.04893847 -0.02586208
v -0.02935129 -0.04873198 -0.02591993
v -0.02911837 -0.04878088 -0.02591389
v -0.04654330 -0.04271212 -0.02576079
v -0.04657466 -0.04237977 -0.02586208
v -0.04567326 -0.04306931 -0.02585698
v -0.04560910 -0.04289303 -0.02591389
v -0.02972746 -0.04867348 -0.02591389
v 0.04875517 -0.04408900 -0.02320659
v 0.04912574 -0.04378223 -0.02303444
v 0.04885915 -0.04416846 -0.02303444
v 0.04968626 -0.04249549 -0.02303444
v 0.04987703 -0.04205253 -0.02283819
v 0.04977387 -0.04251934 -0.02283819
v -0.04669996 -0.04162468 -0.02591993
v -0.04663080 -0.04184765 -0.02591993
v 0.04753183 -0.04552435 -0.02262701
v 0.04750826 -0.04548428 -0.02283819
v 0.04793548 -0.04525990 -0.02262701
v 0.04846070 -0.04443804 -0.02320659
v 0.04855652 -0.04452715 -0.02303444
v -0.02911837 -0.05170711 -0.02322599
v -0.02911837 -0.04929289 -0.02564021
v 0.02911837 -0.05170711 -0.02322599
v 0.04896823 -0.04425181 -0.02262701
v 0.04865705 -0.04462064 -0.02262701
v 0.04998102 -0.04158131 -0.02262701
v 0.04992285 -0.04206036 -0.02262701
v -0.04678088 -0.02050000 -0.02591389
v 0.04678088 -0.02050000 -0.02591389
v -0.04987703 0.00105253 -0.02283819
v -0.04978753 0.00103724 -0.02303444
v -0.04984410 0.00057136 -0.02303444
v 0.04965854 -0.04201521 -0.02320659
v 0.04962420 -0.04209910 -0.02322599
v 0.04968634 -0.04166128 -0.02322599
v 0.04843825 -0.04443442 -0.02322599
v 0.04872476 -0.04409758 -0.02322599
v 0.04872476 0.00309758 -0.02322599
v 0.04875517 0.00308900 -0.02320659
v 0.04897840 0.00273535 -0.02322599
v 0.04970711 -0.04121956 -0.02322599
v 0.04971358 -0.04156188 -0.02320659
v 0.04937842 0.00194766 -0.02322599
v 0.04941888 0.00189542 -0.02320659
v 0.04952126 0.00152916 -0.02322599
v -0.04710454 0.00474861 -0.02262701
v -0.04750826 0.00448428 -0.02283819
v -0.04753183 0.00452435 -0.02262701
v 0.04701790 0.00447220 -0.02322599
v 0.04739589 0.00429322 -0.02320659
v 0.04740807 0.00426407 -0.02322599
v -0.04966960 0.00199050 -0.02262701
v -0.04962614 0.00197402 -0.02283819
v -0.04977387 0.00151934 -0.02283819
v -0.04785479 0.00414884 -0.02303444
v -0.04790816 0.00422229 -0.02283819
v 0.04919693 -0.04335091 -0.02322599
v 0.04923651 -0.04331408 -0.02320659
v 0.04901458 -0.04371318 -0.02320659
v 0.04919693 0.00235091 -0.02322599
v 0.04901458 0.00271318 -0.02320659
v 0.04923651 0.00231408 -0.02320659
v 0.04660993 0.00464279 -0.02322599
v 0.04699154 0.00450544 -0.02320659
v 0.04956000 0.00146111 -0.02320659
v 0.04962420 0.00109910 -0.02322599
v -0.03072829 -0.05142323 -0.02322599
v -0.03068696 -0.05145809 -0.02320659
v -0.03077083 -0.05154010 -0.02307446
v -0.02911837 -0.05198079 -0.02271398
v 0.02911837 -0.05198079 -0.02271398
v -0.02911837 -0.05200000 -0.02251889
v 0.02911837 -0.05200000 -0.02251889
v 0.04812139 0.00374288 -0.02322599
v 0.04777698 0.00402024 -0.02322599
v 0.04813391 0.00375702 -0.02320659
v 0.04777787 0.00404297 -0.02320659
v -0.03033665 -0.05154672 -0.02322599
v 0.04941888 -0.04289542 -0.02320659
v 0.04701790 -0.04547220 -0.02322599
v 0.04739589 -0.04529322 -0.02320659
v 0.04956000 -0.04246111 -0.02320659
v -0.02993575 -0.05163560 -0.02322599
v 0.05000000 0.00021956 -0.02251889
v 0.05000000 0.00021956 -0.01593310
v 0.05000000 -0.04121956 -0.02251889
v 0.05000000 -0.04121956 -0.01593310
v -0.04640692 -0.04225618 -0.02591993
v -0.02963511 -0.04888643 -0.02586208
v -0.02958006 -0.04868548 -0.02591993
v -0.02952862 -0.05168919 -0.02322599
v 0.04813391 -0.04475702 -0.02320659
v 0.04777698 -0.04502024 -0.02322599
v 0.04777787 -0.04504297 -0.02320659
v -0.04794978 -0.04525674 -0.02251889
v 0.03072829 -0.05142323 -0.02322599
v 0.04660993 -0.04564279 -0.02322599
v 0.03077083 -0.05154010 -0.02307446
v 0.03076053 -0.05166718 -0.02283819
v 0.03080243 -0.05162693 -0.02290157
v 0.03082189 -0.05168041 -0.02271398
v 0.03068696 -0.05145809 -0.02320659
v 0.03073039 -0.05158153 -0.02303444
v 0.04668407 -0.04584649 -0.02290157
v 0.04670353 -0.04589996 -0.02271398
v -0.03080243 -0.05162693 -0.02290157
v -0.03073039 -0.05158153 -0.02303444
v -0.03076053 -0.05166718 -0.02283819
v -0.04846070 -0.04443804 -0.02320659
v -0.04872476 -0.04409758 -0.02322599
v -0.04843825 -0.04443442 -0.02322599
v 0.03077596 -0.05171103 -0.02262701
v 0.03082847 -0.05169846 -0.02251889
v -0.04777787 -0.04504297 -0.02320659
v -0.04777698 -0.04502024 -0.02322599
v -0.04740807 -0.04526407 -0.02322599
v 0.04897840 -0.04373535 -0.02322599
v -0.03024937 -0.05158867 -0.02320659
v -0.02990258 -0.04915461 -0.02564021
v -0.04609413 -0.04306682 -0.02576079
v 0.04983147 -0.04121956 -0.02307446
v 0.04984410 -0.04157136 -0.02303444
v -0.04599677 -0.04290244 -0.02586208
v -0.04576357 -0.04302028 -0.02586208
v 0.04831173 -0.04495772 -0.02262701
v -0.04831173 -0.04495772 -0.02262701
v 0.04983147 0.00021956 -0.02307446
v 0.04992388 -0.04121956 -0.02290157
v 0.04812139 -0.04474288 -0.02322599
v 0.04998079 -0.04121956 -0.02271398
v -0.04699154 -0.04550544 -0.02320659
v -0.04701790 -0.04547220 -0.02322599
v -0.04660993 -0.04564279 -0.02322599
v 0.04965854 0.00101521 -0.02320659
v 0.04968634 0.00066128 -0.02322599
v -0.02911837 -0.05183147 -0.02307446
v 0.02911837 -0.05183147 -0.02307446
v 0.04843825 0.00343442 -0.02322599
v 0.04846070 0.00343804 -0.02320659
v -0.04846070 0.00343804 -0.02320659
v -0.04822069 0.00385497 -0.02303444
v -0.04813391 0.00375702 -0.02320659
v -0.04981872 0.00153155 -0.02262701
v -0.04943521 0.00241232 -0.02283819
v -0.04920287 0.00283014 -0.02283819
v -0.04935382 0.00237208 -0.02303444
v 0.02982013 0.01080589 -0.02303444
v 0.02934669 0.01072048 -0.02320659
v 0.02935302 0.01085119 -0.02303444
v -0.04992388 0.00021956 -0.02290157
v -0.04983147 0.00021956 -0.02307446
v 0.02911837 0.01070711 -0.02322599
v 0.02911837 0.01083147 -0.02307446
v -0.04700351 0.00099120 -0.02576079
v -0.04688279 0.00125135 -0.02576079
v -0.04682523 0.00092253 -0.02586208
v -0.04954124 0.00194182 -0.02303444
v -0.04941888 0.00189542 -0.02320659
v -0.04956000 0.00146111 -0.02320659
v -0.04952126 0.00152916 -0.02322599
v -0.04673879 0.00039448 -0.02591993
v -0.04669996 0.00062468 -0.02591993
v -0.04739589 0.00429322 -0.02320659
v -0.04777787 0.00404297 -0.02320659
v -0.04746223 0.00440602 -0.02303444
v -0.04895653 0.00327666 -0.02251889
v -0.04865705 0.00362064 -0.02262701
v -0.04896823 0.00325181 -0.02262701
v -0.04991194 0.00115383 -0.02251889
v -0.04992285 0.00106036 -0.02262701
v -0.04696847 0.00021956 -0.02585698
v -0.04713619 0.00043446 -0.02576079
v -0.04694610 0.00041534 -0.02586208
v -0.04589059 0.00172317 -0.02591993
v -0.04599677 0.00190244 -0.02586208
v -0.04576357 0.00202028 -0.02586208
v -0.04714136 0.00021956 -0.02576457
v -0.04947688 0.00243292 -0.02262701
v 0.04690264 0.00067298 -0.02586208
v 0.04708849 0.00071727 -0.02576079
v 0.04713619 0.00043446 -0.02576079
v 0.02911837 0.00796847 -0.02585698
v 0.02911837 0.00814136 -0.02576457
v 0.02940453 0.00812782 -0.02576079
v -0.02972746 0.00767348 -0.02591389
v -0.02963511 0.00788643 -0.02586208
v -0.02958006 0.00768548 -0.02591993
v 0.04663080 0.00084765 -0.02591993
v -0.02979162 0.00784976 -0.02585698
v -0.02968559 0.00807069 -0.02576079
v -0.04998102 0.00058131 -0.02262701
v -0.04993466 0.00057794 -0.02283819
v -0.04998079 0.00021956 -0.02271398
v 0.04992285 0.00106036 -0.02262701
v 0.04997794 0.00068876 -0.02251889
v 0.04998102 0.00058131 -0.02262701
v 0.04654330 0.00171212 -0.02576079
v 0.04633059 0.00190450 -0.02576079
v 0.04657348 0.00188735 -0.02564021
v 0.04669996 0.00062468 -0.02591993
v -0.04893129 0.00322359 -0.02283819
v -0.04885915 0.00316846 -0.02303444
v -0.04912574 0.00278223 -0.02303444
v 0.02935129 0.00773198 -0.02591993
v 0.03082189 0.01068041 -0.02271398
v 0.03077596 0.01071103 -0.02262701
v 0.03082847 0.01069846 -0.02251889
v -0.04568223 0.00182846 -0.02591993
v -0.04560910 0.00189303 -0.02591389
v -0.04671010 0.00491802 -0.02251889
v -0.04714346 0.00473681 -0.02251889
v -0.02911837 0.00778088 -0.02591389
v -0.02937906 0.00793847 -0.02586208
v -0.02911837 0.00796847 -0.02585698
v -0.04678471 0.00165906 -0.02564021
v -0.04657348 0.00188735 -0.02564021
v -0.04654330 0.00171212 -0.02576079
v 0.04912574 0.00278223 -0.02303444
v 0.04935382 0.00237208 -0.02303444
v -0.04589059 -0.04272317 -0.02591993
v -0.04568223 -0.04282846 -0.02591993
v 0.02952862 -0.05168919 -0.02322599
v -0.04708849 -0.04171727 -0.02576079
v -0.04713619 -0.04143446 -0.02576079
v 0.04943521 0.00241232 -0.02283819
v -0.04727180 -0.04152986 -0.02564021
v -0.04720891 -0.04183445 -0.02564021
v -0.04700351 -0.04199120 -0.02576079
v -0.04657348 -0.04288735 -0.02564021
v -0.04678471 -0.04265906 -0.02564021
v -0.02935302 -0.05185119 -0.02303444
v -0.02911837 -0.05192388 -0.02290157
v -0.02935740 -0.05194188 -0.02283819
v 0.04935382 -0.04337208 -0.02303444
v 0.04943521 -0.04341232 -0.02283819
v 0.02983325 0.01089573 -0.02283819
v 0.02935740 0.01094188 -0.02283819
v 0.02983996 0.01094173 -0.02262701
v 0.04993466 -0.04157794 -0.02283819
v -0.03030242 -0.05180388 -0.02283819
v 0.04893129 -0.04422359 -0.02283819
v 0.04924236 -0.04385467 -0.02262701
v -0.02934669 -0.05172048 -0.02320659
v -0.04633059 0.00190450 -0.02576079
v -0.04633330 0.00208495 -0.02564021
v -0.04609413 0.00206682 -0.02576079
v 0.04962614 -0.04297402 -0.02283819
v 0.04966960 -0.04299050 -0.02262701
v 0.04920287 -0.04383014 -0.02283819
v 0.04822069 0.00385497 -0.02303444
v 0.04785479 0.00414884 -0.02303444
v 0.04828090 0.00392293 -0.02283819
v 0.04981872 -0.04253155 -0.02262701
v 0.04991194 -0.04215383 -0.02251889
v 0.04980259 -0.04261064 -0.02251889
v 0.02935965 0.01098831 -0.02262701
v 0.02911837 0.01098079 -0.02271398
v 0.02911837 0.01100000 -0.02251889
v 0.04947688 -0.04343292 -0.02262701
v 0.04708495 -0.04570646 -0.02283819
v 0.04710454 -0.04574861 -0.02262701
v 0.04790816 -0.04522229 -0.02283819
v 0.02911837 0.00778088 -0.02591389
v 0.02937906 0.00793847 -0.02586208
v 0.04865705 0.00362064 -0.02262701
v 0.04831173 0.00395772 -0.02262701
v 0.04865219 0.00363446 -0.02251889
v -0.02911837 0.00814136 -0.02576457
v -0.02938455 0.00827739 -0.02564021
v -0.02911837 0.00829289 -0.02564021
v -0.04583816 0.00219617 -0.02576079
v -0.04567326 0.00206931 -0.02585698
v 0.02958006 0.00768548 -0.02591993
v 0.02972746 0.00767348 -0.02591389
v 0.04831561 -0.04496211 -0.02251889
v 0.04865219 -0.04463446 -0.02251889
v -0.03028069 -0.05171573 -0.02303444
v 0.04965086 -0.04305519 -0.02251889
v -0.02940453 0.00812782 -0.02576079
v 0.04671010 -0.04591802 -0.02251889
v 0.04954124 -0.04294182 -0.02303444
v -0.04573239 0.00223177 -0.02576457
v 0.02963511 0.00788643 -0.02586208
v -0.04828090 -0.04492293 -0.02283819
v -0.04790816 -0.04522229 -0.02283819
v 0.04785479 -0.04514884 -0.02303444
v 0.02938455 0.00827739 -0.02564021
v 0.02964714 0.00823109 -0.02564021
v 0.04714346 -0.04573681 -0.02251889
v 0.04945808 -0.04348353 -0.02251889
v 0.04922595 -0.04389189 -0.02251889
v 0.04855652 0.00352715 -0.02303444
v 0.04885915 0.00316846 -0.02303444
v 0.04895653 -0.04427666 -0.02251889
v -0.02935129 0.00773198 -0.02591993
v 0.03030242 -0.05180388 -0.02283819
v 0.03028069 -0.05171573 -0.02303444
v 0.02935965 -0.05198831 -0.02262701
v 0.02983996 -0.05194173 -0.02262701
v 0.02955414 -0.05198097 -0.02251889
v 0.02998661 -0.05192404 -0.02251889
v 0.03024937 -0.05158867 -0.02320659
v -0.04897840 -0.04373535 -0.02322599
v -0.04919693 -0.04335091 -0.02322599
v -0.04696310 -0.04240429 -0.02564021
v 0.02982013 -0.05180589 -0.02303444
v 0.02980122 -0.05167640 -0.02320659
v 0.02983325 -0.05189573 -0.02283819
v 0.03031354 -0.05184902 -0.02262701
v 0.03033665 -0.05154672 -0.02322599
v -0.04937842 -0.04294766 -0.02322599
v -0.04710537 -0.04212773 -0.02564021
v 0.02935740 -0.05194188 -0.02283819
v 0.02911837 -0.05192388 -0.02290157
v 0.02935302 -0.05185119 -0.02303444
v -0.04968626 0.00149549 -0.02303444
v -0.04965854 0.00101521 -0.02320659
v -0.04924236 0.00285467 -0.02262701
v 0.03076053 0.01066718 -0.02283819
v -0.04608306 0.00159105 -0.02591993
v -0.04621218 0.00175457 -0.02586208
v -0.04865219 0.00363446 -0.02251889
v 0.04668407 0.00484649 -0.02290157
v 0.03080243 0.01062693 -0.02290157
v 0.04670353 0.00489996 -0.02271398
v -0.04971358 0.00056188 -0.02320659
v -0.04968634 0.00066128 -0.02322599
v -0.04831173 0.00395772 -0.02262701
v -0.04862301 0.00358899 -0.02283819
v 0.04970711 0.00021956 -0.02322599
v 0.04971358 0.00056188 -0.02320659
v 0.04665246 0.00475965 -0.02307446
v 0.03077083 0.01054010 -0.02307446
v -0.04696310 0.00140429 -0.02564021
v -0.04672846 0.00149310 -0.02576079
v -0.04901458 0.00271318 -0.02320659
v -0.04923651 0.00231408 -0.02320659
v -0.04828090 0.00392293 -0.02283819
v -0.04855652 0.00352715 -0.02303444
v 0.04729289 -0.04121956 -0.02564021
v 0.04729289 0.00021956 -0.02564021
v 0.02998661 0.01092404 -0.02251889
v 0.02955414 0.01098097 -0.02251889
v 0.04671010 0.00491802 -0.02251889
v -0.04660993 0.00464279 -0.02322599
v -0.04699154 0.00450544 -0.02320659
v -0.04665246 0.00475965 -0.02307446
v -0.04875517 0.00308900 -0.02320659
v 0.03072829 0.01042323 -0.02322599
v 0.04640596 -0.04257930 -0.02586208
v 0.04657466 -0.04237977 -0.02586208
v 0.04672846 -0.04249310 -0.02576079
v 0.04583816 -0.04319617 -0.02576079
v 0.04578422 -0.04337417 -0.02564021
v 0.04573239 -0.04323177 -0.02576457
v 0.04669996 -0.04162468 -0.02591993
v 0.04688279 -0.04225135 -0.02576079
v 0.04700351 -0.04199120 -0.02576079
v 0.04710537 -0.04212773 -0.02564021
v 0.04608306 -0.04259105 -0.02591993
v 0.04625619 -0.04243445 -0.02591993
v -0.04606859 -0.04324822 -0.02564021
v -0.04970711 -0.04121956 -0.02322599
v -0.04970711 0.00021956 -0.02322599
v -0.04729289 -0.04121956 -0.02564021
v -0.04729289 0.00021956 -0.02564021
v 0.04696847 -0.04121956 -0.02585698
v 0.04714136 -0.04121956 -0.02576457
v 0.04678471 -0.04265906 -0.02564021
v 0.04696310 -0.04240429 -0.02564021
v 0.04714136 0.00021956 -0.02576457
v 0.04567326 -0.04306931 -0.02585698
v 0.02985075 -0.04901222 -0.02576457
v 0.04576357 -0.04302028 -0.02586208
v 0.04560910 -0.04289303 -0.02591389
v -0.04997794 0.00068876 -0.02251889
v -0.05000000 0.00021956 -0.02251889
v 0.02952862 0.01068919 -0.02322599
v 0.02980122 0.01067640 -0.02320659
v -0.04750826 -0.04548428 -0.02283819
v -0.04710454 -0.04574861 -0.02262701
v -0.04922595 0.00289189 -0.02251889
v -0.04822069 -0.04485497 -0.02303444
v 0.02985075 0.00801222 -0.02576457
v 0.02990258 0.00815461 -0.02564021
v 0.04573239 0.00223177 -0.02576457
v 0.04578422 0.00237417 -0.02564021
v -0.04714346 -0.04573681 -0.02251889
v -0.04965086 0.00205519 -0.02251889
v -0.04678088 0.00021956 -0.02591389
v -0.04855652 -0.04452715 -0.02303444
v -0.03041246 -0.05182963 -0.02251889
v -0.03031354 -0.05184902 -0.02262701
v -0.02998661 -0.05192404 -0.02251889
v -0.04633330 -0.04308495 -0.02564021
v 0.04568223 -0.04282846 -0.02591993
v 0.04589059 -0.04272317 -0.02591993
v -0.04962420 -0.04209910 -0.02322599
v -0.04968634 -0.04166128 -0.02322599
v 0.04696847 0.00021956 -0.02585698
v 0.02990258 -0.04915461 -0.02564021
v -0.04785479 -0.04514884 -0.02303444
v -0.04746223 -0.04540602 -0.02303444
v -0.04922595 -0.04389189 -0.02251889
v -0.04924236 -0.04385467 -0.02262701
v -0.04896823 -0.04425181 -0.02262701
v -0.04956000 -0.04246111 -0.02320659
v -0.04952126 -0.04252916 -0.02322599
v -0.04954124 -0.04294182 -0.02303444
v -0.04941888 -0.04289542 -0.02320659
v 0.03041246 -0.05182963 -0.02251889
v -0.04708495 -0.04570646 -0.02283819
v -0.05000000 -0.04121956 -0.02251889
v -0.04998079 -0.04121956 -0.02271398
v -0.04998102 -0.04158131 -0.02262701
v -0.04690264 -0.04167298 -0.02586208
v 0.02934669 -0.05172048 -0.02320659
v -0.04993466 -0.04157794 -0.02283819
v -0.04987703 -0.04205253 -0.02283819
v -0.04992285 -0.04206036 -0.02262701
v -0.04672846 -0.04249310 -0.02576079
v -0.04991194 -0.04215383 -0.02251889
v -0.04981872 -0.04253155 -0.02262701
v -0.03030242 0.01080388 -0.02283819
v -0.03076053 0.01066718 -0.02283819
v -0.03031354 0.01084902 -0.02262701
v -0.04704668 -0.04562412 -0.02303444
v 0.04895653 0.00327666 -0.02251889
v 0.04896823 0.00325181 -0.02262701
v -0.03028069 0.01071573 -0.02303444
v -0.03073039 0.01058153 -0.02303444
v -0.04714136 -0.04121956 -0.02576457
v 0.04704668 0.00462412 -0.02303444
v -0.02983996 -0.05194173 -0.02262701
v -0.02955414 -0.05198097 -0.02251889
v -0.02982013 -0.05180589 -0.02303444
v -0.03077596 -0.05171103 -0.02262701
v -0.02980122 -0.05167640 -0.02320659
v -0.04812139 -0.04474288 -0.02322599
v 0.04978753 -0.04203724 -0.02303444
v 0.03073039 0.01058153 -0.02303444
v 0.03024937 0.01058867 -0.02320659
v 0.03028069 0.01071573 -0.02303444
v -0.02983325 -0.05189573 -0.02283819
v -0.04739589 -0.04529322 -0.02320659
v -0.04665246 -0.04575965 -0.02307446
v 0.02911837 0.01092388 -0.02290157
v -0.04813391 -0.04475702 -0.02320659
v 0.02993575 -0.05163560 -0.02322599
v -0.04997794 -0.04168876 -0.02251889
v -0.04962420 0.00109910 -0.02322599
v -0.04897840 0.00273535 -0.02322599
v -0.04923651 -0.04331408 -0.02320659
v -0.04901458 -0.04371318 -0.02320659
v -0.04875517 -0.04408900 -0.02320659
v -0.03077596 0.01071103 -0.02262701
v -0.03082189 0.01068041 -0.02271398
v -0.03082847 0.01069846 -0.02251889
v -0.03082189 -0.05168041 -0.02271398
v -0.04843825 0.00343442 -0.02322599
v -0.04740807 0.00426407 -0.02322599
v -0.04668407 -0.04584649 -0.02290157
v -0.04670353 -0.04589996 -0.02271398
v -0.04971358 -0.04156188 -0.02320659
v -0.04872476 0.00309758 -0.02322599
v -0.03080243 0.01062693 -0.02290157
v -0.04937842 0.00194766 -0.02322599
v -0.04701790 0.00447220 -0.02322599
v -0.03082847 -0.05169846 -0.02251889
v -0.04983147 -0.04121956 -0.02307446
v -0.04777698 0.00402024 -0.02322599
v 0.04640596 0.00157930 -0.02586208
v 0.04672846 0.00149310 -0.02576079
v 0.04640692 0.00125618 -0.02591993
v 0.04625619 0.00143445 -0.02591993
v 0.04657466 0.00137977 -0.02586208
v 0.04708495 0.00470646 -0.02283819
v 0.04710454 0.00474861 -0.02262701
v -0.03077083 0.01054010 -0.02307446
v -0.04671010 -0.04591802 -0.02251889
v -0.04812139 0.00374288 -0.02322599
v -0.03072829 0.01042323 -0.02322599
v 0.03068696 0.01045809 -0.02320659
v -0.04919693 0.00235091 -0.02322599
v -0.04992388 -0.04121956 -0.02290157
v -0.03068696 0.01045809 -0.02320659
v -0.03033665 0.01054672 -0.02322599
v -0.04668407 0.00484649 -0.02290157
v -0.04670353 0.00489996 -0.02271398
v 0.02993575 0.01063560 -0.02322599
v 0.03033665 0.01054672 -0.02322599
v -0.04625619 0.00143445 -0.02591993
v -0.04640596 0.00157930 -0.02586208
v -0.03024937 0.01058867 -0.02320659
v -0.02993575 0.01063560 -0.02322599
v -0.02911837 0.01083147 -0.02307446
v -0.02911837 0.01092388 -0.02290157
v -0.02911837 0.01070711 -0.02322599
v -0.02952862 0.01068919 -0.02322599
v -0.02934669 0.01072048 -0.02320659
v -0.02911837 0.01098079 -0.02271398
v -0.02911837 0.01100000 -0.02251889
v -0.04578422 0.00237417 -0.02564021
v -0.02980122 0.01067640 -0.02320659
v -0.04965854 -0.04201521 -0.02320659
v 0.04678088 0.00021956 -0.02591389
v 0.04673879 0.00039448 -0.02591993
v 0.04694610 0.00041534 -0.02586208
v -0.04720891 0.00083445 -0.02564021
v -0.04710537 0.00112773 -0.02564021
v 0.04653253 0.00105941 -0.02591993
v -0.04606859 0.00224822 -0.02564021
v 0.04682523 0.00092253 -0.02586208
v -0.02935302 0.01085119 -0.02303444
v -0.02935740 0.01094188 -0.02283819
v 0.02968559 0.00807069 -0.02576079
v 0.04621218 0.00175457 -0.02586208
v 0.04968626 0.00149549 -0.02303444
v 0.04978753 0.00103724 -0.02303444
v 0.04688279 0.00125135 -0.02576079
v 0.04696310 0.00140429 -0.02564021
v 0.04710537 0.00112773 -0.02564021
v -0.02982013 0.01080589 -0.02303444
v 0.04671525 0.00115954 -0.02586208
v 0.04727180 0.00052986 -0.02564021
v 0.04568223 0.00182846 -0.02591993
v 0.04576357 0.00202028 -0.02586208
v 0.04599677 0.00190244 -0.02586208
v 0.04609413 0.00206682 -0.02576079
v -0.04885915 -0.04416846 -0.02303444
v 0.04633330 0.00208495 -0.02564021
v 0.04794978 0.00425674 -0.02251889
v 0.04793548 0.00425990 -0.02262701
v 0.04755791 0.00451573 -0.02251889
v 0.04720891 0.00083445 -0.02564021
v 0.02979162 0.00784976 -0.02585698
v 0.04727180 -0.04152986 -0.02564021
v 0.04893129 0.00322359 -0.02283819
v 0.04924236 0.00285467 -0.02262701
v 0.04962614 0.00197402 -0.02283819
v 0.04966960 0.00199050 -0.02262701
v 0.04981872 0.00153155 -0.02262701
v -0.03041246 0.01082963 -0.02251889
v 0.04991194 0.00115383 -0.02251889
v 0.04922595 0.00289189 -0.02251889
v 0.04945808 0.00248353 -0.02251889
v 0.04987703 0.00105253 -0.02283819
v -0.02998661 0.01092404 -0.02251889
v 0.04980259 0.00161064 -0.02251889
v 0.04947688 0.00243292 -0.02262701
v 0.04965086 0.00205519 -0.02251889
v -0.04727180 0.00052986 -0.02564021
v -0.04708849 0.00071727 -0.02576079
v 0.02911837 0.00829289 -0.02564021
v 0.04984410 0.00057136 -0.02303444
v 0.04790816 0.00422229 -0.02283819
v 0.04746223 0.00440602 -0.02303444
v 0.04750826 0.00448428 -0.02283819
v -0.04640692 0.00125618 -0.02591993
v -0.04708495 0.00470646 -0.02283819
v -0.04704668 0.00462412 -0.02303444
v 0.04831561 0.00396211 -0.02251889
v 0.04700351 0.00099120 -0.02576079
v 0.04608306 0.00159105 -0.02591993
v 0.04589059 0.00172317 -0.02591993
v -0.04671525 0.00115954 -0.02586208
v -0.04690264 0.00067298 -0.02586208
v -0.04862301 -0.04458899 -0.02283819
v -0.02990258 0.00815461 -0.02564021
v -0.02985075 0.00801222 -0.02576457
v 0.04678471 0.00165906 -0.02564021
v -0.04657466 0.00137977 -0.02586208
v -0.02964714 0.00823109 -0.02564021
v 0.04606859 0.00224822 -0.02564021
v -0.04663080 0.00084765 -0.02591993
v 0.04560910 0.00189303 -0.02591389
v -0.04653253 0.00105941 -0.02591993
v -0.04945808 0.00248353 -0.02251889
v 0.04567326 0.00206931 -0.02585698
v -0.04980259 0.00161064 -0.02251889
v -0.04794978 0.00425674 -0.02251889
v -0.04831561 0.00396211 -0.02251889
v -0.04793548 0.00425990 -0.02262701
v 0.04865219 0.00363446 -0.01593310
v 0.04895653 0.00327666 -0.01593310
v 0.04895653 -0.04427666 -0.01593310
v 0.04865219 -0.04463446 -0.01593310
v 0.04714346 -0.04573681 -0.01593310
v 0.04965086 0.00205519 -0.01593310
v 0.04980259 0.00161064 -0.01593310
v 0.03041246 0.01082963 -0.02251889
v 0.03041246 0.01082963 -0.01593310
v 0.02998661 0.01092404 -0.01593310
v -0.04755791 0.00451573 -0.02251889
v 0.04977387 0.00151934 -0.02283819
v 0.04920287 0.00283014 -0.02283819
v -0.04997794 0.00068876 -0.01593310
v -0.05000000 0.00021956 -0.01593310
v -0.02911837 0.01100000 -0.01593310
v -0.02955414 0.01098097 -0.01593310
v -0.05000000 -0.04121956 -0.01593310
v -0.04997794 -0.04168876 -0.01593310
v 0.04922595 0.00289189 -0.01593310
v 0.04945808 0.00248353 -0.01593310
v -0.03041246 0.01082963 -0.01593310
v -0.03082847 0.01069846 -0.01593310
v -0.04991194 0.00115383 -0.01593310
v 0.02911837 -0.05200000 -0.01593310
v 0.02955414 -0.05198097 -0.01593310
v 0.02998661 -0.05192404 -0.01593310
v 0.03041246 -0.05182963 -0.01593310
v 0.03082847 -0.05169846 -0.01593310
v -0.02911837 -0.05200000 -0.01593310
v -0.04965086 0.00205519 -0.01593310
v -0.04980259 0.00161064 -0.01593310
v -0.03082847 -0.05169846 -0.01593310
v -0.03041246 -0.05182963 -0.01593310
v 0.04671010 -0.04591802 -0.01593310
v -0.04671010 -0.04591802 -0.01593310
v -0.04714346 -0.04573681 -0.01593310
v -0.04965086 -0.04305519 -0.01593310
v -0.04965086 -0.04305519 -0.02251889
v -0.04945808 -0.04348353 -0.01593310
v -0.04945808 -0.04348353 -0.02251889
v -0.04922595 0.00289189 -0.01593310
v -0.04945808 0.00248353 -0.01593310
v -0.04991194 -0.04215383 -0.01593310
v -0.04980259 -0.04261064 -0.01593310
v -0.04980259 -0.04261064 -0.02251889
v -0.04755791 -0.04551573 -0.01593310
v 0.04831561 0.00396211 -0.01593310
v 0.04794978 0.00425674 -0.01593310
v 0.04965086 -0.04305519 -0.01593310
v 0.04945808 -0.04348353 -0.01593310
v 0.04714346 0.00473681 -0.02251889
v 0.04714346 0.00473681 -0.01593310
v 0.04671010 0.00491802 -0.01593310
v 0.04922595 -0.04389189 -0.01593310
v -0.02998661 -0.05192404 -0.01593310
v 0.04991194 0.00115383 -0.01593310
v 0.04997794 0.00068876 -0.01593310
v 0.04755791 0.00451573 -0.01593310
v -0.04922595 -0.04389189 -0.01593310
v 0.03082847 0.01069846 -0.01593310
v 0.04997794 -0.04168876 -0.02251889
v 0.04997794 -0.04168876 -0.01593310
v 0.04991194 -0.04215383 -0.01593310
v -0.04895653 -0.04427666 -0.01593310
v -0.04895653 -0.04427666 -0.02251889
v 0.02955414 0.01098097 -0.01593310
v 0.02911837 0.01100000 -0.01593310
v 0.04980259 -0.04261064 -0.01593310
v 0.04831561 -0.04496211 -0.01593310
v 0.04753183 0.00452435 -0.02262701
v -0.04968626 -0.04249549 -0.02303444
v -0.04962614 -0.04297402 -0.02283819
v -0.04943521 -0.04341232 -0.02283819
v -0.04935382 -0.04337208 -0.02303444
v -0.04671010 0.00491802 -0.01593310
v -0.04714346 0.00473681 -0.01593310
v -0.04984410 -0.04157136 -0.02303444
v -0.04978753 -0.04203724 -0.02303444
v -0.04920287 -0.04383014 -0.02283819
v -0.04966960 -0.04299050 -0.02262701
v -0.04977387 -0.04251934 -0.02283819
v -0.04865705 -0.04462064 -0.02262701
v -0.04912574 -0.04378223 -0.02303444
v -0.04893129 -0.04422359 -0.02283819
v -0.04947688 -0.04343292 -0.02262701
v -0.04755791 0.00451573 -0.01593310
v -0.04794978 0.00425674 -0.01593310
v -0.04865219 -0.04463446 -0.02251889
v -0.04831561 -0.04496211 -0.02251889
v -0.04865219 -0.04463446 -0.01593310
v -0.04831561 -0.04496211 -0.01593310
v -0.04895653 0.00327666 -0.01593310
v -0.02998661 0.01092404 -0.01593310
v -0.04831561 0.00396211 -0.01593310
v -0.04865219 0.00363446 -0.01593310
v -0.04794978 -0.04525674 -0.01593310
v -0.02955414 -0.05198097 -0.01593310
v 0.04862301 0.00358899 -0.02283819
v 0.04954124 0.00194182 -0.02303444
v 0.03030242 0.01080388 -0.02283819
v -0.02935965 -0.05198831 -0.02262701
v 0.03031354 0.01084902 -0.02262701
v 0.04583816 0.00219617 -0.02576079
f 1 2 3
f 4 5 6
f 7 8 9
f 10 11 8
f 12 13 14
f 15 14 13
f 16 17 18
f 19 20 21
f 16 22 17
f 23 24 25
f 26 27 28
f 29 30 31
f 30 32 33
f 34 35 36
f 37 38 39
f 40 41 42
f 42 41 43
f 44 45 46
f 36 47 48
f 41 39 43
f 49 36 50
f 51 49 50
f 52 53 54
f 54 55 56
f 57 58 59
f 46 60 30
f 55 46 29
f 60 61 32
f 51 50 62
f 59 58 40
f 63 64 65
f 57 66 58
f 54 53 55
f 50 36 48
f 67 68 69
f 70 71 72
f 9 73 74
f 75 74 73
f 76 74 75
f 77 74 76
f 78 77 76
f 2 77 78
f 79 2 78
f 3 2 79
f 80 3 79
f 81 3 80
f 82 81 80
f 83 81 82
f 84 83 82
f 85 83 84
f 86 85 84
f 87 85 86
f 88 87 86
f 89 87 88
f 90 89 88
f 91 89 90
f 92 91 90
f 93 91 92
f 94 93 92
f 95 93 94
f 96 95 94
f 97 95 96
f 98 97 96
f 99 97 98
f 100 99 98
f 61 99 100
f 101 61 100
f 102 61 101
f 103 102 101
f 104 102 103
f 105 104 103
f 106 104 105
f 107 106 105
f 108 106 107
f 109 108 107
f 110 108 109
f 111 110 109
f 66 110 111
f 112 66 111
f 63 66 112
f 113 63 112
f 64 63 113
f 114 64 113
f 115 64 114
f 116 115 114
f 117 115 116
f 118 117 116
f 119 118 116
f 120 121 122
f 123 68 124
f 125 126 127
f 128 129 130
f 131 132 133
f 134 126 125
f 135 136 23
f 137 138 139
f 140 141 136
f 130 129 142
f 138 93 139
f 142 143 71
f 144 71 143
f 145 146 147
f 148 149 150
f 27 151 152
f 153 154 155
f 156 147 157
f 158 159 160
f 52 160 159
f 133 161 162
f 149 163 164
f 8 165 9
f 73 9 165
f 117 118 38
f 166 38 118
f 167 168 169
f 170 171 172
f 173 174 156
f 156 174 145
f 175 176 177
f 178 179 172
f 180 181 182
f 183 184 185
f 186 187 188
f 156 173 174
f 189 190 191
f 184 192 193
f 194 195 196
f 197 198 199
f 195 194 19
f 186 200 201
f 197 199 180
f 170 171 172
f 172 170 171
f 182 202 203
f 204 205 206
f 207 208 209
f 210 209 208
f 196 194 195
f 200 201 186
f 211 212 213
f 188 187 214
f 172 178 179
f 156 174 145
f 196 194 195
f 187 186 201
f 182 202 203
f 205 204 215
f 188 187 214
f 216 19 21
f 126 217 218
f 156 174 145
f 219 21 171
f 220 215 67
f 221 222 223
f 224 223 222
f 141 225 136
f 226 144 227
f 139 93 95
f 228 69 159
f 229 173 156
f 62 230 231
f 232 120 122
f 229 173 156
f 233 234 235
f 134 235 234
f 236 237 238
f 174 145 156
f 126 217 218
f 21 216 19
f 239 235 240
f 237 241 238
f 242 238 241
f 243 244 245
f 246 247 248
f 231 230 229
f 249 238 250
f 206 244 243
f 231 230 229
f 251 252 253
f 240 235 237
f 194 196 254
f 215 220 255
f 196 254 194
f 145 174 254
f 128 130 256
f 70 256 130
f 45 97 60
f 124 137 139
f 135 23 257
f 130 142 70
f 71 70 142
f 179 258 259
f 67 72 68
f 138 91 93
f 159 69 123
f 220 67 69
f 129 260 261
f 225 1 3
f 155 262 13
f 256 70 72
f 144 89 227
f 263 120 232
f 264 4 258
f 265 258 4
f 229 266 173
f 156 173 174
f 236 238 249
f 4 6 265
f 267 265 6
f 156 174 145
f 240 235 237
f 229 173 156
f 229 266 173
f 236 238 249
f 249 238 250
f 21 216 19
f 243 244 245
f 194 196 254
f 254 196 145
f 204 205 206
f 231 230 229
f 240 237 236
f 268 269 270
f 126 217 218
f 62 230 231
f 218 217 62
f 19 195 194
f 194 196 254
f 145 254 196
f 231 230 229
f 239 235 240
f 186 187 188
f 203 271 272
f 158 160 273
f 274 273 160
f 177 198 197
f 186 201 187
f 171 219 21
f 6 221 267
f 223 267 221
f 254 145 174
f 275 213 276
f 218 62 231
f 254 196 145
f 175 276 176
f 211 213 275
f 171 219 21
f 212 188 214
f 194 195 196
f 195 194 19
f 175 276 176
f 212 188 214
f 145 174 254
f 126 234 217
f 255 215 220
f 177 176 198
f 126 217 218
f 194 195 196
f 177 176 198
f 277 278 279
f 275 276 175
f 280 189 191
f 175 276 176
f 281 282 283
f 186 201 187
f 284 285 286
f 287 169 288
f 212 214 213
f 175 176 177
f 186 187 188
f 285 289 290
f 167 191 168
f 291 292 293
f 294 295 296
f 297 296 295
f 298 299 76
f 300 301 302
f 303 304 305
f 306 280 307
f 308 309 310
f 311 312 313
f 314 309 308
f 189 315 190
f 316 317 318
f 319 320 321
f 322 323 324
f 114 113 325
f 326 327 323
f 328 329 330
f 331 332 333
f 334 335 336
f 337 325 316
f 338 339 340
f 100 341 101
f 342 343 344
f 345 313 346
f 347 183 348
f 349 350 351
f 352 353 354
f 198 355 356
f 136 225 24
f 357 85 358
f 160 52 359
f 7 9 74
f 360 361 10
f 24 225 81
f 355 362 356
f 257 23 260
f 363 361 360
f 25 83 357
f 364 363 360
f 364 360 365
f 366 367 140
f 12 155 13
f 368 369 370
f 134 125 241
f 371 372 146
f 373 374 375
f 259 265 376
f 301 279 192
f 245 244 377
f 378 379 161
f 380 273 368
f 381 382 383
f 384 385 372
f 386 379 378
f 387 388 389
f 390 391 392
f 393 394 395
f 372 396 386
f 242 397 398
f 132 157 133
f 370 369 207
f 154 399 155
f 341 400 401
f 154 127 399
f 402 403 404
f 405 406 407
f 313 408 409
f 103 410 411
f 412 262 413
f 244 414 377
f 385 392 415
f 350 416 351
f 241 125 397
f 242 398 417
f 418 150 384
f 408 419 409
f 410 341 420
f 421 422 120
f 218 231 423
f 321 424 425
f 417 398 426
f 390 392 385
f 241 397 242
f 379 427 428
f 147 378 157
f 276 429 430
f 161 431 162
f 385 415 396
f 432 350 349
f 399 131 262
f 196 371 146
f 396 415 427
f 384 390 385
f 433 434 236
f 120 422 121
f 435 436 437
f 437 436 438
f 434 439 240
f 440 441 442
f 443 444 434
f 436 445 446
f 447 239 439
f 240 439 239
f 448 364 449
f 433 236 249
f 435 450 436
f 247 440 367
f 451 452 450
f 445 433 446
f 168 453 454
f 455 282 281
f 315 455 281
f 342 456 343
f 457 458 312
f 459 304 303
f 460 461 462
f 342 462 461
f 188 186 187
f 302 301 192
f 315 281 190
f 168 454 463
f 464 463 454
f 465 466 304
f 467 272 468
f 469 470 460
f 461 460 470
f 471 352 472
f 212 214 213
f 329 169 287
f 340 473 474
f 145 254 196
f 169 463 288
f 475 476 466
f 275 213 276
f 188 187 214
f 191 453 168
f 477 478 178
f 467 178 478
f 180 181 182
f 338 466 339
f 197 198 199
f 479 375 480
f 212 188 214
f 186 201 187
f 282 340 283
f 462 342 481
f 344 481 342
f 294 283 295
f 190 294 453
f 192 278 193
f 196 254 194
f 281 283 294
f 283 340 474
f 457 312 311
f 304 466 338
f 307 167 329
f 467 264 178
f 258 178 264
f 482 483 484
f 84 457 311
f 476 277 485
f 175 276 176
f 175 176 177
f 203 271 272
f 328 307 329
f 145 174 254
f 330 329 287
f 254 145 174
f 156 173 174
f 203 271 272
f 329 167 169
f 280 191 167
f 275 276 175
f 200 486 469
f 470 469 486
f 200 201 186
f 190 281 294
f 487 488 489
f 51 490 49
f 47 487 489
f 491 492 490
f 64 115 493
f 494 495 496
f 497 110 498
f 269 499 128
f 500 501 502
f 503 502 501
f 495 42 20
f 43 504 505
f 497 108 110
f 506 489 507
f 505 508 477
f 478 477 508
f 31 509 510
f 492 510 509
f 490 511 49
f 49 34 36
f 441 449 442
f 498 57 488
f 33 512 31
f 509 31 512
f 47 489 506
f 511 34 49
f 35 487 47
f 36 35 47
f 59 40 495
f 110 66 57
f 513 307 328
f 131 133 162
f 452 443 445
f 513 328 514
f 515 285 516
f 284 516 285
f 121 517 518
f 445 443 433
f 303 305 519
f 421 520 422
f 155 399 262
f 521 522 523
f 524 523 522
f 121 518 525
f 526 315 189
f 527 298 75
f 311 313 345
f 455 305 282
f 528 246 520
f 529 530 531
f 253 532 499
f 487 498 488
f 248 367 366
f 270 269 128
f 532 257 499
f 491 490 51
f 488 59 494
f 491 51 217
f 533 534 34
f 440 442 367
f 208 435 210
f 492 509 490
f 449 364 365
f 535 363 364
f 497 498 487
f 450 445 436
f 532 366 135
f 443 434 433
f 536 502 363
f 504 537 505
f 508 505 537
f 533 104 106
f 270 128 204
f 256 204 128
f 534 497 35
f 489 494 507
f 509 511 490
f 533 106 534
f 48 47 506
f 534 106 108
f 39 504 43
f 510 492 538
f 491 538 492
f 35 497 487
f 65 493 41
f 65 64 493
f 534 108 497
f 495 40 42
f 489 488 494
f 442 449 26
f 143 358 87
f 539 540 517
f 541 542 543
f 535 536 363
f 544 545 546
f 547 546 545
f 422 539 517
f 361 11 10
f 438 446 548
f 517 549 518
f 550 551 552
f 269 253 499
f 248 247 367
f 539 251 540
f 365 553 27
f 528 520 421
f 359 444 554
f 443 554 444
f 555 556 557
f 367 442 558
f 517 540 549
f 559 557 560
f 451 450 208
f 557 556 560
f 446 433 249
f 365 360 553
f 561 562 563
f 558 28 141
f 28 27 152
f 151 7 74
f 540 564 549
f 360 10 553
f 261 358 143
f 452 554 443
f 27 553 151
f 141 28 1
f 260 25 357
f 28 152 1
f 402 565 566
f 567 568 561
f 23 25 260
f 361 569 11
f 116 114 337
f 367 558 140
f 201 469 570
f 260 357 261
f 531 571 572
f 262 162 413
f 414 255 573
f 574 245 530
f 380 158 273
f 368 273 369
f 244 205 414
f 229 156 157
f 220 575 255
f 573 255 575
f 339 476 485
f 153 155 12
f 375 393 480
f 442 26 558
f 397 125 154
f 434 240 236
f 210 435 437
f 576 248 366
f 170 577 171
f 219 171 577
f 578 579 580
f 253 252 532
f 377 581 571
f 540 582 564
f 252 576 532
f 268 270 583
f 374 584 394
f 582 268 564
f 414 573 581
f 160 554 274
f 397 154 153
f 520 585 539
f 548 249 250
f 520 539 422
f 585 251 539
f 586 439 444
f 434 444 439
f 520 246 585
f 536 500 502
f 587 557 559
f 251 582 540
f 454 588 464
f 249 238 250
f 229 173 156
f 589 473 485
f 251 585 252
f 251 253 582
f 236 237 238
f 590 441 591
f 585 576 252
f 229 266 173
f 240 237 236
f 243 244 245
f 228 158 380
f 62 230 231
f 204 215 205
f 229 266 173
f 236 237 238
f 591 441 440
f 228 158 380
f 439 586 447
f 590 441 591
f 582 269 268
f 243 244 245
f 547 545 448
f 591 440 592
f 514 330 550
f 551 550 330
f 270 204 583
f 206 583 204
f 206 205 244
f 585 576 252
f 593 594 595
f 160 359 554
f 236 237 238
f 239 447 233
f 380 228 158
f 243 245 596
f 206 244 243
f 239 233 235
f 597 277 279
f 243 245 596
f 598 301 300
f 591 440 592
f 205 204 215
f 206 205 244
f 592 247 246
f 204 205 206
f 575 220 228
f 599 243 600
f 596 600 243
f 240 237 236
f 592 440 247
f 249 238 250
f 220 228 575
f 592 440 247
f 596 245 574
f 204 205 206
f 296 297 588
f 251 253 582
f 582 253 269
f 251 253 582
f 601 500 536
f 602 485 277
f 568 603 562
f 295 604 297
f 243 245 596
f 592 247 246
f 583 206 599
f 243 599 206
f 605 483 482
f 589 485 602
f 596 574 606
f 463 464 501
f 288 501 607
f 500 607 501
f 585 248 576
f 547 545 448
f 608 301 598
f 1 152 2
f 609 334 610
f 611 612 613
f 614 462 615
f 608 598 382
f 235 134 237
f 241 237 134
f 145 254 196
f 156 173 174
f 126 217 218
f 218 62 231
f 218 217 62
f 206 205 244
f 178 179 172
f 230 266 229
f 586 447 439
f 230 266 229
f 206 205 244
f 596 574 606
f 217 62 218
f 359 586 444
f 236 238 249
f 218 62 231
f 568 616 603
f 240 235 237
f 229 266 173
f 598 300 605
f 605 483 482
f 554 160 359
f 600 596 617
f 606 617 596
f 359 586 444
f 554 160 359
f 238 242 250
f 417 250 242
f 126 217 218
f 218 217 62
f 229 173 156
f 230 266 229
f 444 359 586
f 239 233 235
f 591 440 592
f 220 228 575
f 597 279 618
f 243 245 596
f 586 447 439
f 229 173 156
f 231 230 229
f 230 266 229
f 619 482 616
f 484 616 482
f 249 238 250
f 236 238 249
f 231 230 229
f 273 274 369
f 451 369 274
f 369 451 207
f 208 207 451
f 230 266 229
f 470 620 578
f 483 605 300
f 589 485 602
f 608 301 598
f 461 578 456
f 279 301 608
f 473 621 474
f 287 288 622
f 607 622 288
f 568 603 562
f 473 621 474
f 568 603 562
f 593 594 595
f 470 578 461
f 619 623 624
f 470 578 461
f 591 441 440
f 603 625 594
f 626 594 625
f 470 578 461
f 623 616 568
f 627 579 628
f 568 603 562
f 619 623 624
f 594 626 595
f 347 595 626
f 629 630 458
f 619 616 623
f 486 628 620
f 624 631 632
f 342 456 343
f 470 578 461
f 92 432 94
f 588 296 297
f 486 620 470
f 410 420 411
f 621 473 589
f 297 295 604
f 627 515 516
f 290 633 584
f 634 584 633
f 635 636 637
f 323 416 350
f 394 638 395
f 639 395 638
f 461 456 342
f 408 640 419
f 636 632 641
f 628 627 579
f 632 624 631
f 515 516 627
f 486 620 470
f 584 634 394
f 638 394 634
f 461 578 456
f 461 456 342
f 463 464 501
f 461 578 456
f 619 616 623
f 632 624 631
f 90 324 92
f 623 616 568
f 636 632 641
f 627 579 628
f 342 456 343
f 470 620 578
f 623 619 616
f 461 578 456
f 342 343 344
f 351 416 405
f 636 637 635
f 627 515 516
f 562 603 594
f 289 635 290
f 633 290 635
f 604 474 621
f 568 616 603
f 589 473 485
f 515 289 285
f 638 16 639
f 632 641 636
f 289 285 515
f 115 117 37
f 97 99 60
f 251 252 253
f 596 574 606
f 562 594 593
f 593 594 595
f 206 244 243
f 621 473 589
f 251 253 582
f 246 248 585
f 642 536 535
f 582 269 268
f 295 604 297
f 596 245 574
f 590 448 441
f 623 616 568
f 602 277 597
f 619 623 624
f 605 300 483
f 268 269 270
f 582 269 268
f 618 279 608
f 642 536 535
f 598 300 605
f 597 277 279
f 246 248 585
f 623 619 616
f 582 253 269
f 454 588 464
f 562 594 593
f 598 301 300
f 206 244 243
f 635 636 637
f 544 535 545
f 582 253 269
f 243 245 596
f 562 603 594
f 239 235 240
f 246 247 248
f 596 245 574
f 544 535 545
f 596 245 574
f 596 574 606
f 483 605 300
f 94 432 349
f 597 279 618
f 463 464 501
f 515 289 285
f 562 603 594
f 330 287 551
f 622 551 287
f 464 454 588
f 470 620 578
f 486 620 470
f 568 603 562
f 342 456 343
f 342 456 343
f 628 620 486
f 627 579 628
f 602 485 277
f 642 536 535
f 501 463 464
f 296 297 588
f 515 289 285
f 616 484 603
f 625 603 484
f 628 620 486
f 598 301 300
f 568 603 562
f 623 616 568
f 568 616 603
f 461 456 342
f 601 500 536
f 473 621 474
f 590 441 591
f 562 594 593
f 630 381 458
f 598 300 605
f 485 589 473
f 602 277 597
f 618 279 608
f 623 619 616
f 598 301 300
f 623 619 616
f 568 616 603
f 643 644 645
f 645 316 318
f 646 647 291
f 113 112 648
f 612 609 613
f 382 598 649
f 316 650 317
f 112 611 648
f 111 612 611
f 112 111 611
f 634 651 652
f 521 653 522
f 654 335 334
f 202 655 656
f 657 658 659
f 609 654 334
f 436 446 438
f 652 660 22
f 632 631 641
f 660 641 631
f 450 452 445
f 644 337 645
f 648 611 661
f 318 662 478
f 576 366 532
f 635 637 633
f 359 54 586
f 663 664 665
f 208 450 435
f 274 452 451
f 665 666 335
f 667 592 528
f 335 666 668
f 669 670 671
f 613 609 610
f 317 672 662
f 420 653 673
f 564 583 599
f 499 129 128
f 624 623 631
f 567 631 623
f 159 123 52
f 53 52 123
f 42 43 674
f 68 137 124
f 46 30 29
f 29 510 538
f 123 124 53
f 44 53 124
f 48 506 173
f 553 7 151
f 72 71 226
f 256 72 67
f 56 29 538
f 72 226 68
f 227 91 138
f 502 503 569
f 314 569 503
f 68 226 137
f 140 136 135
f 11 308 8
f 527 8 308
f 165 8 527
f 262 131 162
f 71 144 226
f 142 261 143
f 69 68 123
f 398 397 153
f 148 150 418
f 45 60 46
f 129 261 142
f 227 89 91
f 398 153 426
f 60 99 61
f 225 3 81
f 499 257 129
f 124 139 44
f 45 44 139
f 32 102 33
f 151 74 77
f 366 140 135
f 150 390 384
f 213 214 387
f 638 652 16
f 636 641 637
f 651 637 641
f 553 10 7
f 10 8 7
f 558 26 28
f 563 562 593
f 152 77 2
f 675 566 676
f 17 561 563
f 677 678 679
f 633 651 634
f 496 20 19
f 652 22 16
f 563 593 680
f 639 16 18
f 331 681 332
f 558 141 140
f 357 83 85
f 676 682 683
f 659 197 180
f 655 684 656
f 685 563 680
f 678 686 679
f 402 404 565
f 687 683 688
f 152 151 77
f 17 563 685
f 660 567 22
f 614 460 462
f 634 652 638
f 689 646 690
f 567 623 568
f 21 20 171
f 672 659 180
f 566 682 676
f 679 686 681
f 407 635 691
f 289 691 635
f 387 214 388
f 424 515 627
f 478 272 467
f 679 681 331
f 672 180 182
f 271 656 692
f 570 460 614
f 656 684 5
f 312 383 408
f 333 332 221
f 615 462 481
f 693 694 695
f 696 630 629
f 566 565 682
f 407 636 635
f 690 646 291
f 309 690 310
f 198 356 199
f 697 302 184
f 483 300 698
f 691 289 515
f 404 403 699
f 26 365 27
f 651 660 652
f 317 700 672
f 692 5 4
f 362 678 677
f 651 641 660
f 5 333 6
f 18 17 685
f 570 469 460
f 475 466 465
f 325 650 316
f 701 702 654
f 116 337 644
f 422 517 121
f 656 5 692
f 308 310 527
f 684 333 5
f 86 311 345
f 293 292 703
f 349 351 400
f 319 400 351
f 626 697 183
f 704 293 299
f 705 528 421
f 310 690 704
f 405 407 320
f 691 320 407
f 271 692 272
f 468 272 692
f 640 706 419
f 707 419 706
f 514 328 330
f 75 298 76
f 672 182 203
f 446 249 548
f 581 573 370
f 53 44 55
f 50 48 266
f 226 227 137
f 56 55 29
f 569 314 11
f 308 11 314
f 141 1 225
f 60 32 30
f 32 61 102
f 215 204 256
f 254 507 194
f 19 195 194
f 212 188 214
f 453 296 454
f 588 454 296
f 230 266 229
f 275 276 175
f 215 220 255
f 283 474 295
f 604 295 474
f 229 266 173
f 186 200 201
f 288 463 501
f 170 171 172
f 177 198 197
f 358 85 87
f 143 87 144
f 89 144 87
f 257 260 129
f 363 502 361
f 522 628 486
f 698 302 697
f 524 200 186
f 708 336 275
f 472 352 354
f 696 709 630
f 629 458 457
f 706 624 710
f 519 305 455
f 625 698 697
f 711 524 186
f 293 703 712
f 659 658 197
f 658 175 177
f 103 411 105
f 713 105 411
f 708 275 175
f 711 186 188
f 336 211 275
f 213 387 429
f 339 485 473
f 425 627 628
f 712 703 714
f 694 570 695
f 703 472 709
f 662 672 203
f 82 629 457
f 625 697 626
f 351 405 319
f 320 319 405
f 522 486 524
f 200 524 486
f 522 425 628
f 424 691 515
f 98 400 341
f 690 291 704
f 306 307 513
f 709 472 354
f 84 311 86
f 624 632 710
f 668 188 212
f 119 644 643
f 340 339 473
f 310 704 298
f 96 94 349
f 715 455 315
f 673 521 716
f 523 716 521
f 411 673 713
f 716 713 673
f 96 349 98
f 400 98 349
f 715 315 526
f 345 346 88
f 717 189 280
f 626 183 347
f 718 465 719
f 678 688 686
f 465 304 459
f 482 619 640
f 706 640 619
f 717 280 306
f 86 345 88
f 193 475 720
f 719 465 459
f 619 624 706
f 527 310 298
f 409 326 346
f 322 346 326
f 668 212 211
f 346 322 88
f 90 88 322
f 484 698 625
f 268 583 564
f 720 475 465
f 193 278 475
f 274 554 452
f 592 246 528
f 419 707 409
f 326 409 707
f 176 355 198
f 404 721 565
f 722 565 721
f 431 723 413
f 724 413 723
f 426 12 725
f 14 725 12
f 688 726 686
f 727 686 726
f 403 693 670
f 728 479 729
f 730 729 479
f 494 59 495
f 20 42 674
f 43 505 477
f 493 37 39
f 82 457 84
f 696 629 82
f 731 720 718
f 655 732 684
f 658 708 175
f 695 570 614
f 309 689 690
f 458 383 312
f 632 636 406
f 478 662 272
f 336 668 211
f 6 333 221
f 185 193 720
f 503 689 309
f 185 720 731
f 519 455 715
f 176 430 355
f 658 177 197
f 406 636 407
f 348 185 731
f 668 711 188
f 704 291 293
f 430 675 733
f 425 424 627
f 694 201 570
f 662 203 272
f 710 632 406
f 734 513 735
f 514 735 513
f 342 343 344
f 639 18 736
f 737 736 18
f 738 550 739
f 587 739 550
f 682 740 683
f 741 683 740
f 735 514 738
f 550 738 514
f 680 595 742
f 743 742 595
f 744 306 734
f 513 734 306
f 210 437 745
f 746 745 437
f 437 438 746
f 747 746 438
f 548 250 748
f 749 748 250
f 209 210 750
f 745 750 210
f 751 526 752
f 717 752 526
f 342 456 343
f 438 548 747
f 748 747 548
f 606 529 753
f 754 753 529
f 250 417 749
f 755 749 417
f 617 606 756
f 753 756 606
f 525 617 757
f 756 757 617
f 758 759 760
f 761 760 759
f 762 519 763
f 715 763 519
f 764 559 765
f 766 765 559
f 122 525 767
f 757 767 525
f 699 669 768
f 769 768 669
f 415 770 427
f 771 427 770
f 763 715 751
f 526 751 715
f 772 481 773
f 774 773 481
f 427 771 428
f 775 428 771
f 529 531 754
f 776 754 531
f 681 777 332
f 778 332 777
f 669 671 769
f 779 769 671
f 765 766 758
f 759 758 766
f 686 727 681
f 777 681 727
f 752 717 744
f 306 744 717
f 671 772 779
f 773 779 772
f 565 722 682
f 740 682 722
f 760 761 780
f 541 780 761
f 481 344 774
f 781 774 344
f 782 783 391
f 784 391 783
f 780 541 785
f 786 785 541
f 223 224 782
f 783 782 224
f 480 395 787
f 788 787 395
f 332 778 221
f 222 221 778
f 391 784 392
f 789 392 784
f 404 699 721
f 768 721 699
f 479 480 730
f 787 730 480
f 428 775 431
f 723 431 775
f 660 631 567
f 261 357 358
f 412 413 790
f 724 790 413
f 392 789 415
f 770 415 789
f 683 741 688
f 726 688 741
f 344 728 781
f 729 781 728
f 630 354 381
f 327 710 416
f 430 733 355
f 202 656 203
f 271 203 656
f 263 421 120
f 525 518 617
f 693 695 670
f 633 637 651
f 791 614 615
f 416 406 405
f 389 388 693
f 792 546 793
f 793 546 794
f 165 527 73
f 75 73 527
f 546 795 794
f 347 348 796
f 797 796 348
f 545 535 364
f 547 448 795
f 590 795 448
f 798 601 799
f 622 607 798
f 607 500 601
f 794 795 800
f 766 560 801
f 560 802 801
f 799 642 792
f 786 543 803
f 642 535 792
f 544 792 535
f 556 802 560
f 804 591 667
f 800 804 805
f 587 552 557
f 802 792 793
f 766 801 759
f 804 667 805
f 759 801 806
f 448 545 364
f 731 718 807
f 808 807 718
f 342 343 344
f 809 810 811
f 812 811 810
f 342 343 344
f 559 560 766
f 813 303 762
f 519 762 303
f 591 592 667
f 541 543 786
f 601 536 799
f 642 799 536
f 590 591 804
f 795 804 800
f 685 680 814
f 742 814 680
f 461 456 342
f 551 555 552
f 342 456 343
f 18 685 737
f 814 737 685
f 441 448 449
f 395 639 788
f 736 788 639
f 461 456 342
f 13 412 15
f 790 15 412
f 719 459 815
f 816 815 459
f 816 459 813
f 303 813 459
f 552 555 557
f 810 232 812
f 817 812 232
f 759 806 761
f 232 122 817
f 767 817 122
f 348 731 797
f 807 797 731
f 572 209 818
f 750 818 209
f 718 719 808
f 815 808 719
f 417 426 755
f 725 755 426
f 595 347 743
f 796 743 347
f 739 587 764
f 559 764 587
f 785 786 811
f 809 811 786
f 531 572 776
f 818 776 572
f 675 676 733
f 670 695 791
f 276 213 429
f 383 649 408
f 76 299 78
f 313 409 346
f 80 696 82
f 819 389 402
f 201 200 469
f 276 430 176
f 187 201 694
f 199 820 180
f 181 180 820
f 697 184 183
f 181 820 655
f 264 692 4
f 676 683 687
f 298 704 299
f 322 326 323
f 354 353 381
f 327 706 710
f 183 185 348
f 467 468 264
f 707 706 327
f 791 615 772
f 695 614 791
f 181 655 182
f 202 182 655
f 277 476 278
f 684 331 333
f 389 693 403
f 22 567 561
f 92 324 432
f 388 694 693
f 356 362 677
f 687 688 678
f 699 403 669
f 732 679 331
f 379 428 161
f 468 692 264
f 429 819 675
f 680 593 595
f 323 327 416
f 161 428 431
f 429 675 430
f 671 791 772
f 402 389 403
f 819 402 566
f 820 677 732
f 819 566 675
f 732 331 684
f 356 677 820
f 355 733 362
f 429 387 819
f 22 561 17
f 820 732 655
f 772 615 481
f 403 670 669
f 401 321 653
f 13 262 412
f 720 465 718
f 324 350 432
f 195 418 371
f 234 126 134
f 170 259 577
f 90 322 324
f 577 149 148
f 564 599 549
f 259 376 577
f 125 127 154
f 118 119 166
f 643 166 119
f 132 229 157
f 149 164 150
f 62 50 230
f 267 223 163
f 179 259 172
f 170 172 259
f 219 577 148
f 157 378 133
f 418 384 371
f 195 371 196
f 147 386 378
f 388 187 694
f 146 372 386
f 158 228 159
f 127 218 423
f 518 600 617
f 376 163 149
f 217 51 62
f 258 265 259
f 733 676 687
f 714 709 696
f 326 707 327
f 709 354 630
f 312 408 313
f 549 600 518
f 714 696 80
f 139 95 45
f 97 45 95
f 228 220 69
f 376 267 163
f 163 223 782
f 214 187 388
f 265 267 376
f 199 356 820
f 458 381 383
f 230 50 266
f 266 48 173
f 810 263 232
f 163 782 164
f 299 293 712
f 549 599 600
f 819 387 389
f 670 791 671
f 733 687 362
f 362 687 678
f 102 104 33
f 512 33 104
f 44 46 55
f 496 495 20
f 34 534 35
f 512 104 533
f 66 63 58
f 511 533 34
f 498 110 57
f 507 494 496
f 37 117 38
f 40 65 41
f 58 65 40
f 39 38 504
f 41 493 39
f 674 43 477
f 29 31 510
f 512 533 511
f 488 57 59
f 58 63 65
f 509 512 511
f 38 166 504
f 643 504 166
f 537 504 643
f 561 568 562
f 386 396 379
f 178 258 179
f 532 135 257
f 399 423 131
f 216 418 19
f 195 19 418
f 372 385 396
f 173 506 174
f 122 121 525
f 136 24 23
f 234 491 217
f 423 231 132
f 219 148 21
f 216 21 148
f 456 580 821
f 578 580 456
f 453 294 296
f 307 280 167
f 580 516 284
f 353 382 381
f 192 279 278
f 580 284 821
f 530 571 531
f 344 343 728
f 305 304 338
f 370 207 822
f 573 575 368
f 598 605 649
f 821 373 823
f 728 823 479
f 352 597 353
f 334 336 708
f 823 375 479
f 503 464 689
f 627 516 579
f 580 579 516
f 716 523 824
f 284 286 373
f 343 823 728
f 377 414 581
f 689 588 646
f 613 610 657
f 484 483 698
f 698 300 302
f 821 284 373
f 602 597 352
f 111 701 612
f 713 716 664
f 649 605 640
f 824 524 711
f 105 663 107
f 597 618 353
f 321 425 653
f 611 613 661
f 677 679 732
f 701 654 609
f 663 713 664
f 661 657 700
f 824 711 666
f 621 589 471
f 109 702 701
f 646 604 647
f 464 588 689
f 523 524 824
f 285 290 286
f 537 645 318
f 105 713 663
f 650 700 317
f 643 645 537
f 654 665 335
f 401 319 321
f 665 664 666
f 605 482 640
f 335 668 336
f 471 589 352
f 164 391 390
f 150 164 390
f 373 286 374
f 145 147 156
f 426 153 12
f 126 218 127
f 196 146 145
f 396 427 379
f 822 207 209
f 164 782 391
f 574 530 529
f 423 132 131
f 146 386 147
f 606 574 529
f 577 376 149
f 371 384 372
f 231 229 132
f 216 148 418
f 571 822 572
f 162 431 413
f 127 423 399
f 378 161 133
f 647 621 471
f 245 377 530
f 581 370 822
f 374 394 393
f 572 822 209
f 573 368 370
f 530 377 571
f 215 255 205
f 414 205 255
f 628 579 620
f 578 620 579
f 302 192 184
f 647 471 292
f 286 584 374
f 589 602 352
f 286 290 584
f 571 581 822
f 480 393 395
f 823 373 375
f 297 604 646
f 343 821 823
f 618 608 382
f 228 380 575
f 368 575 380
f 466 476 339
f 612 701 609
f 375 374 393
f 456 821 343
f 805 667 705
f 761 806 542
f 25 81 83
f 20 674 171
f 800 805 543
f 792 544 546
f 54 56 586
f 172 477 178
f 538 491 233
f 234 233 491
f 667 528 705
f 507 496 194
f 793 794 806
f 447 538 233
f 556 799 802
f 803 263 809
f 809 263 810
f 555 798 556
f 798 799 556
f 551 622 555
f 799 792 802
f 794 800 542
f 215 256 67
f 586 56 447
f 674 477 172
f 171 674 172
f 502 569 361
f 802 793 801
f 607 601 798
f 542 800 543
f 546 547 795
f 801 793 806
f 506 507 174
f 52 54 359
f 803 705 263
f 795 590 804
f 543 805 803
f 194 496 19
f 550 552 587
f 622 798 555
f 56 538 447
f 705 421 263
f 806 794 542
f 786 803 809
f 174 507 254
f 493 115 37
f 30 33 31
f 137 227 138
f 653 425 522
f 114 325 337
f 324 323 350
f 101 410 103
f 101 341 410
f 537 318 508
f 664 824 666
f 664 716 824
f 78 712 79
f 353 618 382
f 508 318 478
f 318 317 662
f 610 334 708
f 100 98 341
f 526 189 717
f 119 116 644
f 416 710 406
f 703 709 714
f 292 472 703
f 337 316 645
f 325 648 650
f 292 471 472
f 666 711 668
f 282 338 340
f 400 319 401
f 184 193 185
f 320 691 424
f 291 647 292
f 383 382 649
f 191 190 453
f 420 401 653
f 305 338 282
f 299 712 78
f 169 168 463
f 712 714 79
f 673 653 521
f 24 81 25
f 449 365 26
f 805 705 803
f 761 542 541
f 408 649 640
f 341 401 420
f 661 613 657
f 650 661 700
f 700 659 672
f 314 503 309
f 657 610 658
f 320 424 321
f 411 420 673
f 107 663 702
f 278 476 475
f 113 648 325
f 79 714 80
f 610 708 658
f 588 297 646
f 700 657 659
f 109 701 111
f 501 464 503
f 738 739 735
f 734 735 739
f 764 734 739
f 744 734 764
f 765 744 764
f 752 744 765
f 758 752 765
f 751 752 758
f 760 751 758
f 763 751 760
f 780 763 760
f 762 763 780
f 785 762 780
f 813 762 785
f 811 813 785
f 816 813 811
f 812 816 811
f 815 816 812
f 817 815 812
f 808 815 817
f 767 808 817
f 807 808 767
f 757 807 767
f 797 807 757
f 756 797 757
f 796 797 756
f 753 796 756
f 743 796 753
f 754 743 753
f 742 743 754
f 776 742 754
f 814 742 776
f 818 814 776
f 737 814 818
f 750 737 818
f 736 737 750
f 745 736 750
f 788 736 745
f 746 788 745
f 787 788 746
f 747 787 746
f 730 787 747
f 748 730 747
f 729 730 748
f 749 729 748
f 781 729 749
f 755 781 749
f 774 781 755
f 725 774 755
f 773 774 725
f 14 773 725
f 779 773 14
f 15 779 14
f 769 779 15
f 790 769 15
f 768 769 790
f 724 768 790
f 721 768 724
f 723 721 724
f 722 721 723
f 775 722 723
f 740 722 775
f 771 740 775
f 741 740 771
f 770 741 771
f 726 741 770
f 789 726 770
f 727 726 789
f 784 727 789
f 777 727 784
f 783 777 784
f 778 777 783
f 224 778 783
f 222 778 224
f 107 702 109
f 604 621 647
f 648 661 650
f 702 665 654
f 702 663 665

